<svg width="151" height="35" viewBox="0 0 151 35" fill="none" xmlns="http://www.w3.org/2000/svg">
<path d="M7.35547 26.291H2.88477V23.8027H7.10254V22.2168H2.88477V19.8379H7.35547V18.1357H0.820312V28H7.35547V26.291Z" fill="white"/>
<path d="M19.991 28V18.1357H17.5984L14.7957 25.1289H14.741L11.9383 18.1357H9.5457V28H11.3846V21.3418H11.4393L14.1189 27.9043H15.4178L18.0975 21.3418H18.1521V28H19.991Z" fill="white"/>
<path d="M22.3316 18.1357V28H24.3961V24.8896H26.2418C28.3199 24.8896 29.7623 23.5361 29.7623 21.5127C29.7623 19.4824 28.3678 18.1357 26.3443 18.1357H22.3316ZM24.3961 19.7695H25.7975C26.9801 19.7695 27.6637 20.3984 27.6637 21.5195C27.6637 22.6475 26.9732 23.2764 25.7906 23.2764H24.3961V19.7695Z" fill="white"/>
<path d="M38.0639 26.291H33.7504V18.1357H31.6859V28H38.0639V26.291Z" fill="white"/>
<path d="M44.0275 17.9648C41.1018 17.9648 39.2697 19.9268 39.2697 23.0713C39.2697 26.209 41.1018 28.1709 44.0275 28.1709C46.9465 28.1709 48.7854 26.209 48.7854 23.0713C48.7854 19.9268 46.9465 17.9648 44.0275 17.9648ZM44.0275 19.6875C45.6408 19.6875 46.673 21 46.673 23.0713C46.673 25.1357 45.6408 26.4414 44.0275 26.4414C42.4074 26.4414 41.3752 25.1357 41.3752 23.0713C41.3752 21 42.4143 19.6875 44.0275 19.6875Z" fill="white"/>
<path d="M55.0977 28V24.3154L58.5361 18.1357H56.3213L54.1064 22.3467H54.0586L51.8506 18.1357H49.6016L53.0332 24.3154V28H55.0977Z" fill="white"/>
<path d="M66.7762 26.291H62.3055V23.8027H66.5232V22.2168H62.3055V19.8379H66.7762V18.1357H60.241V28H66.7762V26.291Z" fill="white"/>
<path d="M75.5016 26.291H71.0309V23.8027H75.2486V22.2168H71.0309V19.8379H75.5016V18.1357H68.9664V28H75.5016V26.291Z" fill="white"/>
<path d="M80.798 25.1904C80.8596 27.043 82.3703 28.1709 84.7424 28.1709C87.1896 28.1709 88.7414 26.9609 88.7414 25.0469C88.7414 23.543 87.8801 22.6953 85.9045 22.2715L84.7082 22.0186C83.5734 21.7588 83.0949 21.417 83.0949 20.8086C83.0949 20.0771 83.7785 19.5918 84.7971 19.5918C85.8293 19.5918 86.5607 20.0977 86.6291 20.9316H88.5637C88.5295 19.1475 87.0871 17.9648 84.7902 17.9648C82.5891 17.9648 81.0168 19.168 81.0168 20.9863C81.0168 22.4287 81.9123 23.3516 83.7307 23.7412L85.0158 24.0215C86.2053 24.2881 86.6769 24.6436 86.6769 25.2861C86.6769 26.0107 85.925 26.5371 84.8244 26.5371C83.7307 26.5371 82.883 26.0039 82.7873 25.1904H80.798Z" fill="white"/>
<path d="M97.248 26.291H92.7773V23.8027H96.9951V22.2168H92.7773V19.8379H97.248V18.1357H90.7129V28H97.248V26.291Z" fill="white"/>
<path d="M101.503 19.749H103.26C104.285 19.749 104.928 20.3643 104.928 21.3213C104.928 22.2988 104.319 22.8936 103.28 22.8936H101.503V19.749ZM101.503 24.3906H103.157L104.996 28H107.334L105.256 24.083C106.39 23.6387 107.047 22.5449 107.047 21.2803C107.047 19.332 105.748 18.1357 103.478 18.1357H99.4383V28H101.503V24.3906Z" fill="white"/>
<path d="M114.172 28L117.488 18.1357H115.239L112.983 25.874H112.935L110.679 18.1357H108.369L111.684 28H114.172Z" fill="white"/>
<path d="M121.264 28V18.1357H119.2V28H121.264Z" fill="white"/>
<path d="M127.966 28.1709C130.386 28.1709 132.074 26.7764 132.307 24.5752H130.297C130.078 25.7441 129.196 26.4619 127.973 26.4619C126.394 26.4619 125.403 25.1631 125.403 23.0576C125.403 20.9795 126.407 19.6738 127.966 19.6738C129.169 19.6738 130.099 20.4668 130.29 21.6768H132.3C132.143 19.4688 130.338 17.9648 127.966 17.9648C125.109 17.9648 123.297 19.8857 123.297 23.0645C123.297 26.25 125.095 28.1709 127.966 28.1709Z" fill="white"/>
<path d="M140.82 26.291H136.35V23.8027H140.567V22.2168H136.35V19.8379H140.82V18.1357H134.285V28H140.82V26.291Z" fill="white"/>
<path d="M142.641 25.1904C142.703 27.043 144.214 28.1709 146.586 28.1709C149.033 28.1709 150.585 26.9609 150.585 25.0469C150.585 23.543 149.723 22.6953 147.748 22.2715L146.552 22.0186C145.417 21.7588 144.938 21.417 144.938 20.8086C144.938 20.0771 145.622 19.5918 146.64 19.5918C147.673 19.5918 148.404 20.0977 148.472 20.9316H150.407C150.373 19.1475 148.93 17.9648 146.634 17.9648C144.432 17.9648 142.86 19.168 142.86 20.9863C142.86 22.4287 143.756 23.3516 145.574 23.7412L146.859 24.0215C148.049 24.2881 148.52 24.6436 148.52 25.2861C148.52 26.0107 147.768 26.5371 146.668 26.5371C145.574 26.5371 144.726 26.0039 144.631 25.1904H142.641Z" fill="white"/>
<path d="M5.07812 8.93555H1.87988V2.9541H0.620117V10H5.07812V8.93555Z" fill="#CCDFFF"/>
<path d="M11.342 8.93555H8.04121V6.92383H11.1613V5.92285H8.04121V4.01855H11.342V2.9541H6.78145V10H11.342V8.93555Z" fill="#CCDFFF"/>
<path d="M16.6439 10L19.0951 2.9541H17.7377L15.9506 8.64746H15.9213L14.1342 2.9541H12.7475L15.1986 10H16.6439Z" fill="#CCDFFF"/>
<path d="M25.2076 8.93555H21.9068V6.92383H25.027V5.92285H21.9068V4.01855H25.2076V2.9541H20.6471V10H25.2076V8.93555Z" fill="#CCDFFF"/>
<path d="M28.3611 3.97461H29.7576C30.5535 3.97461 31.0467 4.43359 31.0467 5.17578C31.0467 5.9375 30.5828 6.38184 29.782 6.38184H28.3611V3.97461ZM28.3611 7.34863H29.7234L31.1102 10H32.5457L31.0076 7.1582C31.8475 6.85547 32.3357 6.0791 32.3357 5.14648C32.3357 3.79883 31.4227 2.9541 29.8992 2.9541H27.1014V10H28.3611V7.34863Z" fill="#CCDFFF"/>
<path d="M33.7461 10H35.1182L36.7979 7.41211H36.8369L38.4971 10H39.9473L37.6377 6.49902V6.46484L39.9863 2.9541H38.5752L36.9248 5.60059H36.8857L35.2549 2.9541H33.7656L36.041 6.43555V6.46973L33.7461 10Z" fill="#CCDFFF"/>
<path d="M50.5902 7.06055V6.30859H47.6605V7.27051H49.3598L49.3549 7.3877C49.3354 8.37402 48.598 9.04785 47.5336 9.04785C46.2641 9.04785 45.473 8.05664 45.473 6.43555C45.473 4.84863 46.2299 3.90625 47.4994 3.90625C48.3637 3.90625 49.018 4.38477 49.2572 5.19531H50.5365C50.307 3.78418 49.0961 2.83691 47.4945 2.83691C45.4584 2.83691 44.184 4.21387 44.184 6.4502C44.184 8.7207 45.4633 10.1172 47.5189 10.1172C49.4477 10.1172 50.5902 8.96973 50.5902 7.06055Z" fill="#CCDFFF"/>
<path d="M53.6803 3.97461H55.0768C55.8727 3.97461 56.3658 4.43359 56.3658 5.17578C56.3658 5.9375 55.902 6.38184 55.1012 6.38184H53.6803V3.97461ZM53.6803 7.34863H55.0426L56.4293 10H57.8648L56.3268 7.1582C57.1666 6.85547 57.6549 6.0791 57.6549 5.14648C57.6549 3.79883 56.7418 2.9541 55.2184 2.9541H52.4205V10H53.6803V7.34863Z" fill="#CCDFFF"/>
<path d="M62.576 2.83691C60.5203 2.83691 59.2313 4.23828 59.2313 6.47949C59.2313 8.7207 60.5203 10.1172 62.576 10.1172C64.6268 10.1172 65.9158 8.7207 65.9158 6.47949C65.9158 4.23828 64.6268 2.83691 62.576 2.83691ZM62.576 3.91113C63.8309 3.91113 64.6316 4.90723 64.6316 6.47949C64.6316 8.04688 63.8309 9.04297 62.576 9.04297C61.3162 9.04297 60.5203 8.04688 60.5203 6.47949C60.5203 4.90723 61.3162 3.91113 62.576 3.91113Z" fill="#CCDFFF"/>
<path d="M68.9814 2.9541H67.7217V7.51465C67.7217 9.05273 68.835 10.1172 70.6172 10.1172C72.4043 10.1172 73.5127 9.05273 73.5127 7.51465V2.9541H72.2578V7.40234C72.2578 8.36426 71.6621 9.01855 70.6172 9.01855C69.5723 9.01855 68.9814 8.36426 68.9814 7.40234V2.9541Z" fill="#CCDFFF"/>
<path d="M75.5627 2.9541V10H76.8225V7.6709H78.2482C79.674 7.6709 80.675 6.71875 80.675 5.3125C80.675 3.90625 79.7033 2.9541 78.302 2.9541H75.5627ZM76.8225 3.98438H77.9699C78.8732 3.98438 79.3957 4.46777 79.3957 5.3125C79.3957 6.16699 78.8684 6.65527 77.965 6.65527H76.8225V3.98438Z" fill="#CCDFFF"/>
</svg>
