<svg width="260" height="286" viewBox="0 0 260 286" fill="none" xmlns="http://www.w3.org/2000/svg">
<path d="M30.5337 165C30.5337 167.207 28.74 169 26.5227 169C24.3054 169 22.5117 167.207 22.5117 165C22.5117 162.793 24.3054 161 26.5227 161C28.74 161 30.5337 162.793 30.5337 165Z" stroke="#FF9800" stroke-width="2"/>
<path opacity="0.65385" d="M155.556 139C179.358 129.25 185.622 129.25 202.409 99.4998C219.196 69.7498 195.408 24.7498 155.556 24.7498C115.704 24.7498 7.23101 58.4998 56.0882 99.4998C104.945 140.5 131.754 148.75 155.556 139Z" fill="#E9E9E9"/>
<path opacity="0.391071" d="M128.65 184.25C180.403 184.25 221.952 151.138 221.952 99.4998C221.952 47.8611 232.113 35.2498 180.361 35.2498C128.609 35.2498 34.541 47.8611 34.541 99.4998C34.541 151.138 76.8983 184.25 128.65 184.25Z" fill="#E9E9E9"/>
<path opacity="0.202288" d="M157.007 188C218.821 188 255.305 131.19 240.22 80.9345C225.135 30.6794 169.416 64.9112 117.591 28.0088C65.7654 -8.89349 16.373 19.2564 16.373 80.9345C16.373 142.613 95.1937 188 157.007 188Z" fill="#E9E9E9"/>
<path d="M239.994 64.4998C239.994 66.7068 238.2 68.4998 235.983 68.4998C233.765 68.4998 231.972 66.7068 231.972 64.4998C231.972 62.2927 233.765 60.4998 235.983 60.4998C238.2 60.4998 239.994 62.2927 239.994 64.4998Z" stroke="#FF9800" stroke-width="2"/>
<path d="M47.8184 150.25H206.67V157C206.67 157.966 205.887 158.75 204.92 158.75H49.5684C48.6019 158.75 47.8184 157.966 47.8184 157V150.25Z" fill="white" stroke="#C9C9C9" stroke-width="1.5"/>
<path opacity="0.298549" d="M67.1123 72.4998C67.1123 71.119 68.2316 69.9998 69.6123 69.9998H184.876C186.257 69.9998 187.376 71.119 187.376 72.4998V145H69.6123C68.2316 145 67.1123 143.88 67.1123 142.5V72.4998Z" fill="#D8D8D8"/>
<path d="M105.946 150.25H147.541V151C147.541 153.071 145.862 154.75 143.791 154.75H109.696C107.625 154.75 105.946 153.071 105.946 151V150.25Z" stroke="#C9C9C9" stroke-width="1.5"/>
<path d="M57.8408 63.4998C57.8408 61.7048 59.2959 60.2498 61.0908 60.2498H193.399C195.193 60.2498 196.649 61.7048 196.649 63.4998V150.25H57.8408V63.4998Z" fill="white" stroke="#C9C9C9" stroke-width="1.5"/>
<path opacity="0.198326" d="M68.1143 72.4998C68.1143 71.3952 69.0097 70.4998 70.1143 70.4998H184.375C185.755 70.4998 186.875 71.619 186.875 72.9998V145.5H68.1143V72.4998Z" fill="#D8D8D8"/>
<path d="M68 96.2498V114.25" stroke="#C9C9C9" stroke-width="1.5" stroke-linecap="square"/>
<path d="M68 121V131" stroke="#C9C9C9" stroke-width="1.5" stroke-linecap="square"/>
<path d="M186.624 135V144.25" stroke="#C9C9C9" stroke-width="1.5" stroke-linecap="square"/>
<path d="M68.75 88.9998H67.25V71.4998C67.25 69.9834 68.4656 68.7498 69.9707 68.7498H184.529C186.034 68.7498 187.25 69.9834 187.25 71.4998V129H185.75V71.4998C185.75 70.8069 185.201 70.2498 184.529 70.2498H69.9707C69.299 70.2498 68.75 70.8069 68.75 71.4998V88.9998Z" fill="#C9C9C9"/>
<path d="M87.1562 39.4998H167.332V145H87.1562V39.4998Z" fill="white"/>
<path d="M152 40.9998V39.4998H163C165.623 39.4998 167.75 41.6264 167.75 44.2498V124.25H166.25V44.2498C166.25 42.4548 164.795 40.9998 163 40.9998H152Z" fill="#C9C9C9"/>
<path d="M102.75 40.9998H91.75C89.9551 40.9998 88.5 42.4548 88.5 44.2498V145.25H87V44.2498C87 41.6264 89.1266 39.4998 91.75 39.4998H102.75V40.9998Z" fill="#C9C9C9"/>
<path d="M167 136.25V144.25" stroke="#C9C9C9" stroke-width="1.5" stroke-linecap="square"/>
<path d="M131.503 40.2498H111.96" stroke="#C9C9C9" stroke-width="1.5" stroke-linecap="square"/>
<path d="M157.56 40.2498H138.018" stroke="#C9C9C9" stroke-width="1.5" stroke-linecap="square"/>
<path d="M101.939 40.2498H92.9189" stroke="#C9C9C9" stroke-width="1.5" stroke-linecap="square"/>
<path opacity="0.603739" d="M107.2 69.4998C112.735 69.4998 117.222 65.0226 117.222 59.4998C117.222 53.9769 112.735 49.4998 107.2 49.4998C101.665 49.4998 97.1777 53.9769 97.1777 59.4998C97.1777 65.0226 101.665 69.4998 107.2 69.4998Z" fill="#5395FF"/>
<rect opacity="0.597489" x="122.233" y="121" width="30.0659" height="15" rx="3" fill="#97BFFF"/>
<path opacity="0.602176" d="M127.244 50.4998C127.244 49.9475 127.692 49.4998 128.244 49.4998H156.31C156.862 49.4998 157.31 49.9475 157.31 50.4998C157.31 51.052 156.862 51.4998 156.31 51.4998H128.244C127.692 51.4998 127.244 51.052 127.244 50.4998Z" fill="#9F9F9F"/>
<rect opacity="0.602176" x="97.1777" y="79.4998" width="60.1319" height="2" rx="1" fill="#9F9F9F"/>
<path opacity="0.602176" d="M97.1777 90.4998C97.1777 89.9475 97.6254 89.4998 98.1777 89.4998H136.266C136.818 89.4998 137.266 89.9475 137.266 90.4998C137.266 91.052 136.818 91.4998 136.266 91.4998H98.1777C97.6255 91.4998 97.1777 91.052 97.1777 90.4998Z" fill="#9F9F9F"/>
<rect opacity="0.602176" x="97.1777" y="99.4998" width="50.1099" height="2" rx="1" fill="#9F9F9F"/>
<rect opacity="0.602176" x="97.1777" y="109.5" width="10.022" height="2" rx="1" fill="#9F9F9F"/>
<rect opacity="0.602176" x="117.222" y="109.5" width="10.022" height="2" rx="1" fill="#9F9F9F"/>
<rect opacity="0.602176" x="137.266" y="109.5" width="20.044" height="2" rx="1" fill="#9F9F9F"/>
<path opacity="0.602176" d="M97.1777 130.5C97.1777 129.947 97.6254 129.5 98.1777 129.5H116.222C116.774 129.5 117.222 129.947 117.222 130.5C117.222 131.052 116.774 131.5 116.222 131.5H98.1777C97.6255 131.5 97.1777 131.052 97.1777 130.5Z" fill="#9F9F9F"/>
<path opacity="0.602176" d="M127.244 130.5C127.244 129.947 127.692 129.5 128.244 129.5H156.31C156.862 129.5 157.31 129.947 157.31 130.5C157.31 131.052 156.862 131.5 156.31 131.5H128.244C127.692 131.5 127.244 131.052 127.244 130.5Z" fill="#9F9F9F"/>
<path opacity="0.602176" d="M97.1777 140.5C97.1777 139.947 97.6254 139.5 98.1777 139.5H136.266C136.818 139.5 137.266 139.947 137.266 140.5C137.266 141.052 136.818 141.5 136.266 141.5H98.1777C97.6255 141.5 97.1777 141.052 97.1777 140.5Z" fill="#9F9F9F"/>
<path opacity="0.602176" d="M147.288 140.5C147.288 139.947 147.736 139.5 148.288 139.5H156.31C156.862 139.5 157.31 139.947 157.31 140.5C157.31 141.052 156.862 141.5 156.31 141.5H148.288C147.736 141.5 147.288 141.052 147.288 140.5Z" fill="#9F9F9F"/>
<rect opacity="0.602176" x="127.244" y="59.4998" width="15.5341" height="2" rx="1" fill="#9F9F9F"/>
<path opacity="0.602176" d="M148.288 59.4998H156.31C156.862 59.4998 157.31 59.9475 157.31 60.4998C157.31 61.052 156.862 61.4998 156.31 61.4998H148.288C147.736 61.4998 147.288 61.052 147.288 60.4998C147.288 59.9475 147.736 59.4998 148.288 59.4998Z" fill="#9F9F9F"/>
<path fill-rule="evenodd" clip-rule="evenodd" d="M38.5626 20.5861C38.3088 20.3322 37.8972 20.3322 37.6434 20.5861C37.3896 20.8399 37.3896 21.2515 37.6434 21.5053L41.3305 25.1924L37.6434 28.8794C37.3896 29.1333 37.3896 29.5448 37.6434 29.7987C37.8972 30.0525 38.3088 30.0525 38.5626 29.7987L42.2497 26.1116L45.9368 29.7987C46.1906 30.0525 46.6022 30.0525 46.856 29.7987C47.1098 29.5448 47.1098 29.1333 46.856 28.8794L43.1689 25.1924L46.856 21.5053C47.1098 21.2515 47.1098 20.8399 46.856 20.5861C46.6022 20.3322 46.1906 20.3322 45.9368 20.5861L42.2497 24.2731L38.5626 20.5861Z" fill="#FF9800"/>
<path d="M41.3305 25.1924L41.5072 25.3692L41.684 25.1924L41.5072 25.0156L41.3305 25.1924ZM42.2497 26.1116L42.4265 25.9348L42.2497 25.7581L42.0729 25.9348L42.2497 26.1116ZM46.856 28.8794L47.0328 28.7027L46.856 28.8794ZM43.1689 25.1924L42.9922 25.0156L42.8154 25.1924L42.9922 25.3692L43.1689 25.1924ZM46.856 21.5053L47.0328 21.6821L46.856 21.5053ZM42.2497 24.2731L42.0729 24.4499L42.2497 24.6267L42.4265 24.4499L42.2497 24.2731ZM37.8202 20.7629C37.9764 20.6067 38.2297 20.6067 38.3859 20.7629L38.7394 20.4093C38.3879 20.0578 37.8181 20.0578 37.4666 20.4093L37.8202 20.7629ZM37.8202 21.3285C37.664 21.1723 37.664 20.9191 37.8202 20.7629L37.4666 20.4093C37.1152 20.7608 37.1152 21.3306 37.4666 21.6821L37.8202 21.3285ZM41.5072 25.0156L37.8202 21.3285L37.4666 21.6821L41.1537 25.3692L41.5072 25.0156ZM37.8202 29.0562L41.5072 25.3692L41.1537 25.0156L37.4666 28.7027L37.8202 29.0562ZM37.8202 29.6219C37.664 29.4657 37.664 29.2124 37.8202 29.0562L37.4666 28.7027C37.1152 29.0541 37.1152 29.624 37.4666 29.9755L37.8202 29.6219ZM38.3859 29.6219C38.2297 29.7781 37.9764 29.7781 37.8202 29.6219L37.4666 29.9755C37.8181 30.3269 38.3879 30.3269 38.7394 29.9755L38.3859 29.6219ZM42.0729 25.9348L38.3859 29.6219L38.7394 29.9755L42.4265 26.2884L42.0729 25.9348ZM46.1135 29.6219L42.4265 25.9348L42.0729 26.2884L45.76 29.9755L46.1135 29.6219ZM46.6792 29.6219C46.523 29.7781 46.2697 29.7781 46.1135 29.6219L45.76 29.9755C46.1115 30.3269 46.6813 30.3269 47.0328 29.9755L46.6792 29.6219ZM46.6792 29.0562C46.8354 29.2124 46.8354 29.4657 46.6792 29.6219L47.0328 29.9755C47.3842 29.624 47.3842 29.0541 47.0328 28.7027L46.6792 29.0562ZM42.9922 25.3692L46.6792 29.0562L47.0328 28.7027L43.3457 25.0156L42.9922 25.3692ZM46.6792 21.3285L42.9922 25.0156L43.3457 25.3692L47.0328 21.6821L46.6792 21.3285ZM46.6792 20.7629C46.8354 20.9191 46.8354 21.1723 46.6792 21.3285L47.0328 21.6821C47.3842 21.3306 47.3842 20.7608 47.0328 20.4093L46.6792 20.7629ZM46.1135 20.7629C46.2697 20.6067 46.523 20.6067 46.6792 20.7629L47.0328 20.4093C46.6813 20.0578 46.1115 20.0578 45.76 20.4093L46.1135 20.7629ZM42.4265 24.4499L46.1135 20.7629L45.76 20.4093L42.0729 24.0964L42.4265 24.4499ZM38.3859 20.7629L42.0729 24.4499L42.4265 24.0964L38.7394 20.4093L38.3859 20.7629Z" fill="#FF9800"/>
<path fill-rule="evenodd" clip-rule="evenodd" d="M120.026 21.0535C119.782 21.0104 119.55 21.1734 119.507 21.4175C119.463 21.6615 119.626 21.8943 119.871 21.9373L123.416 22.5624L122.791 26.1075C122.748 26.3516 122.91 26.5843 123.155 26.6274C123.399 26.6704 123.631 26.5074 123.674 26.2634L124.3 22.7183L127.845 23.3434C128.089 23.3864 128.321 23.2234 128.364 22.9794C128.408 22.7353 128.245 22.5025 128 22.4595L124.455 21.8344L125.08 18.2893C125.123 18.0452 124.961 17.8125 124.716 17.7694C124.472 17.7264 124.24 17.8894 124.197 18.1334L123.572 21.6786L120.026 21.0535Z" fill="#FF9800"/>
<path d="M119.871 21.9373L119.827 22.1835L119.871 21.9373ZM123.416 22.5624L123.662 22.6058L123.705 22.3596L123.459 22.3162L123.416 22.5624ZM122.791 26.1075L122.544 26.0641L122.791 26.1075ZM124.3 22.7183L124.343 22.4721L124.097 22.4286L124.053 22.6748L124.3 22.7183ZM124.455 21.8344L124.209 21.791L124.166 22.0372L124.412 22.0806L124.455 21.8344ZM124.197 18.1334L124.443 18.1768L124.197 18.1334ZM123.572 21.6786L123.528 21.9248L123.774 21.9682L123.818 21.722L123.572 21.6786ZM119.753 21.4609C119.772 21.3528 119.875 21.2806 119.983 21.2997L120.07 20.8073C119.69 20.7402 119.327 20.994 119.26 21.374L119.753 21.4609ZM119.914 21.6911C119.806 21.672 119.734 21.569 119.753 21.4609L119.26 21.374C119.193 21.7541 119.447 22.1165 119.827 22.1835L119.914 21.6911ZM123.459 22.3162L119.914 21.6911L119.827 22.1835L123.372 22.8086L123.459 22.3162ZM123.037 26.1509L123.662 22.6058L123.169 22.519L122.544 26.0641L123.037 26.1509ZM123.198 26.3812C123.09 26.3621 123.018 26.259 123.037 26.1509L122.544 26.0641C122.477 26.4442 122.731 26.8066 123.111 26.8736L123.198 26.3812ZM123.428 26.22C123.409 26.3281 123.306 26.4002 123.198 26.3812L123.111 26.8736C123.491 26.9406 123.854 26.6868 123.921 26.3068L123.428 26.22ZM124.053 22.6748L123.428 26.22L123.921 26.3068L124.546 22.7617L124.053 22.6748ZM127.888 23.0972L124.343 22.4721L124.256 22.9645L127.801 23.5896L127.888 23.0972ZM128.118 22.9359C128.099 23.044 127.996 23.1162 127.888 23.0972L127.801 23.5896C128.181 23.6566 128.544 23.4028 128.611 23.0228L128.118 22.9359ZM127.957 22.7057C128.065 22.7248 128.137 22.8278 128.118 22.9359L128.611 23.0228C128.678 22.6427 128.424 22.2803 128.044 22.2133L127.957 22.7057ZM124.412 22.0806L127.957 22.7057L128.044 22.2133L124.499 21.5882L124.412 22.0806ZM124.834 18.2459L124.209 21.791L124.702 21.8778L125.327 18.3327L124.834 18.2459ZM124.673 18.0156C124.781 18.0347 124.853 18.1378 124.834 18.2459L125.327 18.3327C125.394 17.9527 125.14 17.5902 124.76 17.5232L124.673 18.0156ZM124.443 18.1768C124.462 18.0688 124.565 17.9966 124.673 18.0156L124.76 17.5232C124.38 17.4562 124.017 17.71 123.95 18.09L124.443 18.1768ZM123.818 21.722L124.443 18.1768L123.95 18.09L123.325 21.6351L123.818 21.722ZM119.983 21.2997L123.528 21.9248L123.615 21.4324L120.07 20.8073L119.983 21.2997Z" fill="#FF9800"/>
<path fill-rule="evenodd" clip-rule="evenodd" d="M176.257 168.19C176.129 167.855 175.753 167.687 175.418 167.816C175.082 167.945 174.915 168.321 175.044 168.656L176.912 173.524L172.044 175.392C171.709 175.521 171.542 175.897 171.67 176.232C171.799 176.567 172.175 176.735 172.51 176.606L177.378 174.737L179.247 179.605C179.375 179.94 179.751 180.108 180.087 179.979C180.422 179.85 180.589 179.474 180.46 179.139L178.592 174.271L183.46 172.403C183.795 172.274 183.962 171.898 183.834 171.563C183.705 171.228 183.329 171.06 182.994 171.189L178.126 173.058L176.257 168.19Z" fill="#FF9800"/>
<path d="M176.257 168.19L176.491 168.1L176.257 168.19ZM175.044 168.656L175.277 168.566L175.044 168.656ZM176.912 173.524L177.002 173.757L177.235 173.667L177.146 173.434L176.912 173.524ZM177.378 174.737L177.612 174.648L177.522 174.414L177.289 174.504L177.378 174.737ZM178.592 174.271L178.502 174.038L178.269 174.128L178.358 174.361L178.592 174.271ZM182.994 171.189L183.083 171.422L182.994 171.189ZM178.126 173.058L177.893 173.147L177.982 173.381L178.216 173.291L178.126 173.058ZM175.507 168.049C175.713 167.97 175.945 168.073 176.024 168.279L176.491 168.1C176.313 167.636 175.792 167.404 175.328 167.582L175.507 168.049ZM175.277 168.566C175.198 168.36 175.301 168.128 175.507 168.049L175.328 167.582C174.864 167.761 174.632 168.281 174.81 168.745L175.277 168.566ZM177.146 173.434L175.277 168.566L174.81 168.745L176.679 173.613L177.146 173.434ZM172.134 175.626L177.002 173.757L176.823 173.29L171.955 175.159L172.134 175.626ZM171.904 176.142C171.825 175.936 171.928 175.705 172.134 175.626L171.955 175.159C171.491 175.337 171.259 175.858 171.437 176.322L171.904 176.142ZM172.421 176.372C172.214 176.452 171.983 176.349 171.904 176.142L171.437 176.322C171.615 176.786 172.136 177.017 172.6 176.839L172.421 176.372ZM177.289 174.504L172.421 176.372L172.6 176.839L177.468 174.971L177.289 174.504ZM179.48 179.516L177.612 174.648L177.145 174.827L179.013 179.695L179.48 179.516ZM179.997 179.746C179.791 179.825 179.559 179.722 179.48 179.516L179.013 179.695C179.192 180.159 179.712 180.391 180.176 180.212L179.997 179.746ZM180.227 179.229C180.306 179.435 180.203 179.667 179.997 179.746L180.176 180.212C180.64 180.034 180.872 179.514 180.694 179.05L180.227 179.229ZM178.358 174.361L180.227 179.229L180.694 179.05L178.825 174.182L178.358 174.361ZM183.37 172.169L178.502 174.038L178.681 174.505L183.549 172.636L183.37 172.169ZM183.6 171.653C183.679 171.859 183.576 172.09 183.37 172.169L183.549 172.636C184.013 172.458 184.245 171.937 184.067 171.473L183.6 171.653ZM183.083 171.422C183.29 171.343 183.521 171.446 183.6 171.653L184.067 171.473C183.889 171.009 183.368 170.778 182.904 170.956L183.083 171.422ZM178.216 173.291L183.083 171.422L182.904 170.956L178.036 172.824L178.216 173.291ZM176.024 168.279L177.893 173.147L178.359 172.968L176.491 168.1L176.024 168.279Z" fill="#FF9800"/>
<path d="M196.414 18.8117C196.662 18.7212 196.791 18.4469 196.7 18.1988C196.61 17.9508 196.335 17.8231 196.087 17.9136C195.838 18.0041 195.71 18.2784 195.8 18.5265C195.89 18.7745 196.165 18.9022 196.414 18.8117Z" fill="#FF9800" stroke="#FF9800" stroke-width="0.5"/>
<path d="M194.05 18.0178C194.204 18.0892 194.373 18.0917 194.521 18.0379C194.669 17.984 194.796 17.8737 194.868 17.7197C195.012 17.4121 194.879 17.0464 194.571 16.9031L189.933 14.747C189.625 14.6039 189.259 14.7372 189.115 15.0448C188.971 15.3525 189.104 15.7182 189.412 15.8615L194.05 18.0178Z" fill="#FF9800" stroke="#FF9800" stroke-width="0.5"/>
<path d="M197.366 17.0023C197.515 16.9484 197.642 16.8381 197.714 16.6844L199.881 12.0513C200.025 11.7434 199.892 11.3779 199.583 11.2346C199.275 11.0913 198.909 11.2247 198.765 11.5324L196.598 16.1653C196.454 16.4731 196.588 16.8387 196.896 16.982C197.05 17.0536 197.218 17.0562 197.366 17.0023Z" fill="#FF9800" stroke="#FF9800" stroke-width="0.5"/>
<path d="M202.567 21.9782C202.721 22.0497 202.89 22.0522 203.038 21.9983C203.186 21.9445 203.314 21.8342 203.386 21.6802C203.53 21.3725 203.397 21.0068 203.088 20.8635L198.451 18.7074C198.143 18.5643 197.776 18.6976 197.632 19.0053C197.488 19.3129 197.622 19.6787 197.93 19.822L202.567 21.9782Z" fill="#FF9800" stroke="#FF9800" stroke-width="0.5"/>
<path d="M193.388 25.5111C193.536 25.4572 193.663 25.3469 193.736 25.1932L195.902 20.5603C196.046 20.2524 195.913 19.8869 195.605 19.7436C195.297 19.6003 194.931 19.7338 194.787 20.0414L192.62 24.6741C192.476 24.982 192.609 25.3475 192.917 25.4908C193.071 25.5625 193.24 25.565 193.388 25.5111Z" fill="#FF9800" stroke="#FF9800" stroke-width="0.5"/>
<path d="M39.0422 100.735C39.2475 100.66 39.3535 100.434 39.279 100.229C39.2044 100.024 38.9775 99.9184 38.7722 99.9931C38.5668 100.068 38.4608 100.295 38.5354 100.499C38.61 100.704 38.8369 100.81 39.0422 100.735Z" fill="#FF9800"/>
<path d="M37.0899 100.079C37.2172 100.138 37.3565 100.14 37.4787 100.096C37.601 100.051 37.7064 99.96 37.7658 99.8328C37.8848 99.5786 37.7749 99.2765 37.5203 99.1581L33.6891 97.3771C33.4346 97.2588 33.1322 97.3689 33.0132 97.6231C32.8942 97.8772 33.0041 98.1794 33.2587 98.2977L37.0899 100.079Z" fill="#FF9800"/>
<path d="M39.8303 99.2401C39.9527 99.1956 40.058 99.1045 40.1175 98.9775L41.9074 95.1501C42.0263 94.8958 41.9164 94.5939 41.6618 94.4755C41.4072 94.3571 41.1048 94.4674 40.9858 94.7215L39.1959 98.5487C39.077 98.803 39.1869 99.105 39.4415 99.2233C39.5688 99.2825 39.708 99.2846 39.8303 99.2401Z" fill="#FF9800"/>
<path d="M44.126 103.351C44.2533 103.41 44.3926 103.412 44.5148 103.367C44.6371 103.323 44.7425 103.232 44.802 103.105C44.9209 102.85 44.811 102.548 44.5564 102.43L40.7253 100.649C40.4707 100.531 40.1683 100.641 40.0493 100.895C39.9303 101.149 40.0403 101.451 40.2948 101.569L44.126 103.351Z" fill="#FF9800"/>
<path d="M36.5432 106.269C36.6656 106.225 36.7709 106.134 36.8304 106.007L38.6202 102.179C38.7392 101.925 38.6293 101.623 38.3747 101.505C38.1201 101.386 37.8177 101.497 37.6987 101.751L35.9088 105.578C35.7898 105.832 35.8997 106.134 36.1543 106.252C36.2816 106.312 36.421 106.314 36.5432 106.269Z" fill="#FF9800"/>
<path d="M227.466 120C227.466 122.207 225.673 124 223.455 124C221.238 124 219.444 122.207 219.444 120C219.444 117.793 221.238 116 223.455 116C225.673 116 227.466 117.793 227.466 120Z" stroke="#FF9800" stroke-width="2"/>
<path d="M55.6523 225H53.6494L48.7344 217.036H48.6797L48.7139 217.48C48.7777 218.328 48.8096 219.103 48.8096 219.805V225H47.3262V215.006H49.3086L54.21 222.929H54.251C54.2419 222.824 54.2236 222.443 54.1963 221.787C54.1689 221.126 54.1553 220.611 54.1553 220.242V215.006H55.6523V225ZM64.8262 221.206C64.8262 222.441 64.5094 223.405 63.876 224.098C63.2425 224.79 62.3607 225.137 61.2305 225.137C60.5241 225.137 59.8997 224.977 59.3574 224.658C58.8151 224.339 58.3981 223.881 58.1064 223.284C57.8148 222.687 57.6689 221.994 57.6689 221.206C57.6689 219.98 57.9834 219.023 58.6123 218.335C59.2412 217.647 60.1276 217.303 61.2715 217.303C62.3652 217.303 63.2311 217.656 63.8691 218.362C64.5072 219.064 64.8262 220.012 64.8262 221.206ZM59.3232 221.206C59.3232 222.951 59.9681 223.824 61.2578 223.824C62.5339 223.824 63.1719 222.951 63.1719 221.206C63.1719 219.479 62.5293 218.615 61.2441 218.615C60.5697 218.615 60.0798 218.839 59.7744 219.285C59.4736 219.732 59.3232 220.372 59.3232 221.206ZM72.0381 225L69.167 217.439H70.8623L72.4004 221.835C72.6647 222.573 72.8242 223.17 72.8789 223.626H72.9336C72.9746 223.298 73.1341 222.701 73.4121 221.835L74.9502 217.439H76.6592L73.7744 225H72.0381ZM82.5381 225L82.2168 223.947H82.1621C81.7975 224.408 81.4307 224.722 81.0615 224.891C80.6924 225.055 80.2184 225.137 79.6396 225.137C78.8968 225.137 78.3158 224.936 77.8965 224.535C77.4818 224.134 77.2744 223.567 77.2744 222.833C77.2744 222.054 77.5638 221.466 78.1426 221.069C78.7214 220.673 79.6032 220.456 80.7881 220.42L82.0938 220.379V219.976C82.0938 219.493 81.9798 219.132 81.752 218.896C81.5286 218.654 81.18 218.533 80.7061 218.533C80.3187 218.533 79.9473 218.59 79.5918 218.704C79.2363 218.818 78.8945 218.952 78.5664 219.107L78.0469 217.959C78.457 217.745 78.9059 217.583 79.3936 217.474C79.8812 217.36 80.3415 217.303 80.7744 217.303C81.736 217.303 82.4606 217.512 82.9482 217.932C83.4404 218.351 83.6865 219.009 83.6865 219.907V225H82.5381ZM80.1455 223.906C80.7288 223.906 81.196 223.744 81.5469 223.421C81.9023 223.093 82.0801 222.635 82.0801 222.047V221.391L81.1094 221.432C80.3529 221.459 79.8014 221.587 79.4551 221.814C79.1133 222.038 78.9424 222.382 78.9424 222.847C78.9424 223.184 79.0426 223.446 79.2432 223.633C79.4437 223.815 79.7445 223.906 80.1455 223.906ZM88.9775 225.137C87.8337 225.137 86.9632 224.804 86.3662 224.139C85.7738 223.469 85.4775 222.509 85.4775 221.261C85.4775 219.989 85.7874 219.012 86.4072 218.328C87.0316 217.645 87.9316 217.303 89.1074 217.303C89.9049 217.303 90.6227 217.451 91.2607 217.747L90.7754 219.039C90.0964 218.775 89.5358 218.643 89.0938 218.643C87.7858 218.643 87.1318 219.511 87.1318 221.247C87.1318 222.095 87.2936 222.733 87.6172 223.161C87.9453 223.585 88.4238 223.797 89.0527 223.797C89.7682 223.797 90.445 223.619 91.083 223.264V224.665C90.7959 224.834 90.4883 224.954 90.1602 225.027C89.8366 225.1 89.4424 225.137 88.9775 225.137ZM97.5908 225L97.2695 223.947H97.2148C96.8503 224.408 96.4834 224.722 96.1143 224.891C95.7451 225.055 95.2712 225.137 94.6924 225.137C93.9495 225.137 93.3685 224.936 92.9492 224.535C92.5345 224.134 92.3271 223.567 92.3271 222.833C92.3271 222.054 92.6165 221.466 93.1953 221.069C93.7741 220.673 94.6559 220.456 95.8408 220.42L97.1465 220.379V219.976C97.1465 219.493 97.0326 219.132 96.8047 218.896C96.5814 218.654 96.2327 218.533 95.7588 218.533C95.3714 218.533 95 218.59 94.6445 218.704C94.2891 218.818 93.9473 218.952 93.6191 219.107L93.0996 217.959C93.5098 217.745 93.9587 217.583 94.4463 217.474C94.9339 217.36 95.3942 217.303 95.8271 217.303C96.7887 217.303 97.5133 217.512 98.001 217.932C98.4932 218.351 98.7393 219.009 98.7393 219.907V225H97.5908ZM95.1982 223.906C95.7816 223.906 96.2487 223.744 96.5996 223.421C96.9551 223.093 97.1328 222.635 97.1328 222.047V221.391L96.1621 221.432C95.4056 221.459 94.8542 221.587 94.5078 221.814C94.166 222.038 93.9951 222.382 93.9951 222.847C93.9951 223.184 94.0954 223.446 94.2959 223.633C94.4964 223.815 94.7972 223.906 95.1982 223.906ZM103.798 223.838C104.19 223.838 104.582 223.776 104.974 223.653V224.863C104.796 224.941 104.566 225.005 104.283 225.055C104.005 225.109 103.716 225.137 103.415 225.137C101.893 225.137 101.132 224.335 101.132 222.73V218.656H100.1V217.945L101.207 217.357L101.754 215.758H102.745V217.439H104.898V218.656H102.745V222.703C102.745 223.09 102.841 223.378 103.032 223.564C103.228 223.747 103.483 223.838 103.798 223.838ZM108.098 225H106.491V217.439H108.098V225ZM106.396 215.437C106.396 215.149 106.473 214.928 106.628 214.773C106.787 214.618 107.013 214.541 107.305 214.541C107.587 214.541 107.806 214.618 107.961 214.773C108.12 214.928 108.2 215.149 108.2 215.437C108.2 215.71 108.12 215.926 107.961 216.086C107.806 216.241 107.587 216.318 107.305 216.318C107.013 216.318 106.787 216.241 106.628 216.086C106.473 215.926 106.396 215.71 106.396 215.437ZM117.107 221.206C117.107 222.441 116.791 223.405 116.157 224.098C115.524 224.79 114.642 225.137 113.512 225.137C112.805 225.137 112.181 224.977 111.639 224.658C111.096 224.339 110.679 223.881 110.388 223.284C110.096 222.687 109.95 221.994 109.95 221.206C109.95 219.98 110.265 219.023 110.894 218.335C111.522 217.647 112.409 217.303 113.553 217.303C114.646 217.303 115.512 217.656 116.15 218.362C116.788 219.064 117.107 220.012 117.107 221.206ZM111.604 221.206C111.604 222.951 112.249 223.824 113.539 223.824C114.815 223.824 115.453 222.951 115.453 221.206C115.453 219.479 114.811 218.615 113.525 218.615C112.851 218.615 112.361 218.839 112.056 219.285C111.755 219.732 111.604 220.372 111.604 221.206ZM125.611 225H123.998V220.352C123.998 219.768 123.88 219.333 123.643 219.046C123.41 218.759 123.039 218.615 122.528 218.615C121.849 218.615 121.353 218.816 121.038 219.217C120.724 219.618 120.566 220.29 120.566 221.233V225H118.96V217.439H120.218L120.443 218.431H120.525C120.753 218.071 121.077 217.793 121.496 217.597C121.915 217.401 122.38 217.303 122.891 217.303C124.704 217.303 125.611 218.226 125.611 220.071V225ZM135.318 217.303C135.642 217.303 135.909 217.326 136.118 217.371L135.961 218.868C135.733 218.813 135.496 218.786 135.25 218.786C134.607 218.786 134.086 218.996 133.685 219.415C133.288 219.834 133.09 220.379 133.09 221.049V225H131.483V217.439H132.741L132.953 218.772H133.035C133.286 218.321 133.612 217.964 134.013 217.699C134.418 217.435 134.854 217.303 135.318 217.303ZM140.828 225.137C139.652 225.137 138.732 224.795 138.066 224.111C137.406 223.423 137.075 222.478 137.075 221.274C137.075 220.039 137.383 219.069 137.998 218.362C138.613 217.656 139.459 217.303 140.534 217.303C141.532 217.303 142.321 217.606 142.899 218.212C143.478 218.818 143.768 219.652 143.768 220.714V221.582H138.729C138.752 222.316 138.951 222.881 139.324 223.277C139.698 223.669 140.224 223.865 140.903 223.865C141.35 223.865 141.765 223.824 142.147 223.742C142.535 223.656 142.95 223.514 143.392 223.318V224.624C143 224.811 142.603 224.943 142.202 225.021C141.801 225.098 141.343 225.137 140.828 225.137ZM140.534 218.52C140.024 218.52 139.614 218.681 139.304 219.005C138.998 219.328 138.816 219.8 138.757 220.42H142.188C142.179 219.796 142.029 219.324 141.737 219.005C141.446 218.681 141.045 218.52 140.534 218.52ZM148.587 223.852C149.261 223.852 149.744 223.658 150.036 223.271C150.332 222.879 150.48 222.288 150.48 221.5V221.247C150.48 220.313 150.328 219.641 150.022 219.23C149.722 218.82 149.234 218.615 148.56 218.615C147.985 218.615 147.548 218.843 147.247 219.299C146.946 219.755 146.796 220.409 146.796 221.261C146.796 222.988 147.393 223.852 148.587 223.852ZM148.129 225.137C147.195 225.137 146.463 224.795 145.935 224.111C145.406 223.423 145.142 222.464 145.142 221.233C145.142 220.003 145.41 219.041 145.948 218.349C146.486 217.651 147.227 217.303 148.17 217.303C148.644 217.303 149.068 217.392 149.441 217.569C149.82 217.743 150.157 218.03 150.453 218.431H150.508L150.686 217.439H152.019V228.363H150.405V225.157C150.405 224.957 150.414 224.745 150.433 224.521C150.451 224.298 150.467 224.127 150.48 224.009H150.392C149.918 224.761 149.163 225.137 148.129 225.137ZM159.647 225L159.422 224.009H159.34C159.117 224.36 158.798 224.635 158.383 224.836C157.973 225.036 157.503 225.137 156.975 225.137C156.059 225.137 155.375 224.909 154.924 224.453C154.473 223.997 154.247 223.307 154.247 222.382V217.439H155.867V222.102C155.867 222.68 155.986 223.116 156.223 223.407C156.46 223.694 156.831 223.838 157.337 223.838C158.011 223.838 158.506 223.637 158.82 223.236C159.139 222.831 159.299 222.154 159.299 221.206V217.439H160.912V225H159.647ZM166.504 225.137C165.328 225.137 164.408 224.795 163.742 224.111C163.081 223.423 162.751 222.478 162.751 221.274C162.751 220.039 163.059 219.069 163.674 218.362C164.289 217.656 165.134 217.303 166.21 217.303C167.208 217.303 167.996 217.606 168.575 218.212C169.154 218.818 169.443 219.652 169.443 220.714V221.582H164.405C164.428 222.316 164.626 222.881 165 223.277C165.374 223.669 165.9 223.865 166.579 223.865C167.026 223.865 167.44 223.824 167.823 223.742C168.211 223.656 168.625 223.514 169.067 223.318V224.624C168.675 224.811 168.279 224.943 167.878 225.021C167.477 225.098 167.019 225.137 166.504 225.137ZM166.21 218.52C165.7 218.52 165.289 218.681 164.979 219.005C164.674 219.328 164.492 219.8 164.433 220.42H167.864C167.855 219.796 167.705 219.324 167.413 219.005C167.121 218.681 166.72 218.52 166.21 218.52ZM176.348 222.847C176.348 223.585 176.079 224.152 175.541 224.549C175.003 224.941 174.233 225.137 173.23 225.137C172.223 225.137 171.414 224.984 170.804 224.679V223.291C171.692 223.701 172.52 223.906 173.285 223.906C174.274 223.906 174.769 223.608 174.769 223.011C174.769 222.819 174.714 222.66 174.604 222.532C174.495 222.405 174.315 222.272 174.064 222.136C173.814 221.999 173.465 221.844 173.019 221.671C172.148 221.334 171.558 220.996 171.248 220.659C170.943 220.322 170.79 219.884 170.79 219.347C170.79 218.7 171.05 218.198 171.569 217.843C172.093 217.483 172.804 217.303 173.702 217.303C174.591 217.303 175.432 217.483 176.225 217.843L175.705 219.053C174.889 218.715 174.203 218.547 173.647 218.547C172.8 218.547 172.376 218.788 172.376 219.271C172.376 219.508 172.485 219.709 172.704 219.873C172.927 220.037 173.41 220.263 174.153 220.55C174.778 220.791 175.231 221.012 175.514 221.213C175.796 221.413 176.006 221.646 176.143 221.91C176.279 222.17 176.348 222.482 176.348 222.847ZM180.907 223.838C181.299 223.838 181.691 223.776 182.083 223.653V224.863C181.905 224.941 181.675 225.005 181.393 225.055C181.115 225.109 180.825 225.137 180.524 225.137C179.002 225.137 178.241 224.335 178.241 222.73V218.656H177.209V217.945L178.316 217.357L178.863 215.758H179.854V217.439H182.008V218.656H179.854V222.703C179.854 223.09 179.95 223.378 180.142 223.564C180.338 223.747 180.593 223.838 180.907 223.838ZM188.68 222.847C188.68 223.585 188.411 224.152 187.873 224.549C187.335 224.941 186.565 225.137 185.562 225.137C184.555 225.137 183.746 224.984 183.136 224.679V223.291C184.024 223.701 184.852 223.906 185.617 223.906C186.606 223.906 187.101 223.608 187.101 223.011C187.101 222.819 187.046 222.66 186.937 222.532C186.827 222.405 186.647 222.272 186.396 222.136C186.146 221.999 185.797 221.844 185.351 221.671C184.48 221.334 183.89 220.996 183.58 220.659C183.275 220.322 183.122 219.884 183.122 219.347C183.122 218.7 183.382 218.198 183.901 217.843C184.425 217.483 185.136 217.303 186.034 217.303C186.923 217.303 187.764 217.483 188.557 217.843L188.037 219.053C187.221 218.715 186.535 218.547 185.979 218.547C185.132 218.547 184.708 218.788 184.708 219.271C184.708 219.508 184.817 219.709 185.036 219.873C185.259 220.037 185.743 220.263 186.485 220.55C187.11 220.791 187.563 221.012 187.846 221.213C188.128 221.413 188.338 221.646 188.475 221.91C188.611 222.17 188.68 222.482 188.68 222.847ZM192.911 217.439H194.661L196.199 221.726C196.432 222.336 196.587 222.91 196.664 223.448H196.719C196.76 223.198 196.835 222.895 196.944 222.539C197.054 222.179 197.632 220.479 198.681 217.439H200.417L197.184 226.005C196.596 227.577 195.616 228.363 194.244 228.363C193.889 228.363 193.542 228.325 193.205 228.247V226.976C193.447 227.03 193.722 227.058 194.032 227.058C194.807 227.058 195.352 226.609 195.666 225.711L195.946 225L192.911 217.439ZM204.867 225.137C203.691 225.137 202.771 224.795 202.105 224.111C201.445 223.423 201.114 222.478 201.114 221.274C201.114 220.039 201.422 219.069 202.037 218.362C202.652 217.656 203.498 217.303 204.573 217.303C205.571 217.303 206.36 217.606 206.938 218.212C207.517 218.818 207.807 219.652 207.807 220.714V221.582H202.769C202.791 222.316 202.99 222.881 203.363 223.277C203.737 223.669 204.263 223.865 204.942 223.865C205.389 223.865 205.804 223.824 206.187 223.742C206.574 223.656 206.989 223.514 207.431 223.318V224.624C207.039 224.811 206.642 224.943 206.241 225.021C205.84 225.098 205.382 225.137 204.867 225.137ZM204.573 218.52C204.063 218.52 203.653 218.681 203.343 219.005C203.037 219.328 202.855 219.8 202.796 220.42H206.228C206.218 219.796 206.068 219.324 205.776 219.005C205.485 218.681 205.084 218.52 204.573 218.52ZM212.448 223.838C212.84 223.838 213.232 223.776 213.624 223.653V224.863C213.446 224.941 213.216 225.005 212.934 225.055C212.656 225.109 212.366 225.137 212.065 225.137C210.543 225.137 209.782 224.335 209.782 222.73V218.656H208.75V217.945L209.857 217.357L210.404 215.758H211.396V217.439H213.549V218.656H211.396V222.703C211.396 223.09 211.491 223.378 211.683 223.564C211.879 223.747 212.134 223.838 212.448 223.838Z" fill="#494949"/>
<path opacity="0.701842" d="M15.5518 249L14.3965 246.048H10.6768L9.53418 249H8.44238L12.1113 239.682H13.019L16.6689 249H15.5518ZM14.0601 245.077L12.981 242.202C12.8413 241.838 12.6974 241.391 12.5493 240.862C12.4562 241.269 12.3229 241.715 12.1494 242.202L11.0576 245.077H14.0601ZM22.2739 247.102C22.2739 247.75 22.0327 248.249 21.5503 248.6C21.0679 248.951 20.3908 249.127 19.519 249.127C18.5965 249.127 17.8771 248.981 17.3608 248.689V247.711C17.6951 247.881 18.0527 248.014 18.4336 248.111C18.8187 248.209 19.189 248.257 19.5444 248.257C20.0946 248.257 20.5177 248.171 20.814 247.997C21.1102 247.819 21.2583 247.551 21.2583 247.191C21.2583 246.92 21.1398 246.689 20.9028 246.499C20.6701 246.304 20.2131 246.076 19.5317 245.813C18.8843 245.572 18.423 245.363 18.1479 245.185C17.8771 245.003 17.674 244.798 17.5386 244.569C17.4074 244.341 17.3418 244.068 17.3418 243.75C17.3418 243.183 17.5724 242.737 18.0337 242.411C18.495 242.081 19.1276 241.916 19.9316 241.916C20.6807 241.916 21.4128 242.068 22.1279 242.373L21.7534 243.23C21.0552 242.942 20.4225 242.798 19.8555 242.798C19.3561 242.798 18.9795 242.877 18.7256 243.033C18.4717 243.19 18.3447 243.406 18.3447 243.681C18.3447 243.867 18.3913 244.026 18.4844 244.157C18.5817 244.288 18.7362 244.413 18.9478 244.531C19.1593 244.65 19.5656 244.821 20.1665 245.045C20.9917 245.346 21.5482 245.648 21.8359 245.953C22.1279 246.258 22.2739 246.641 22.2739 247.102ZM31.8589 247.102C31.8589 247.75 31.6177 248.249 31.1353 248.6C30.6528 248.951 29.9757 249.127 29.104 249.127C28.1815 249.127 27.4621 248.981 26.9458 248.689V247.711C27.2801 247.881 27.6377 248.014 28.0186 248.111C28.4036 248.209 28.7739 248.257 29.1294 248.257C29.6795 248.257 30.1027 248.171 30.3989 247.997C30.6951 247.819 30.8433 247.551 30.8433 247.191C30.8433 246.92 30.7248 246.689 30.4878 246.499C30.255 246.304 29.798 246.076 29.1167 245.813C28.4692 245.572 28.008 245.363 27.7329 245.185C27.4621 245.003 27.259 244.798 27.1235 244.569C26.9924 244.341 26.9268 244.068 26.9268 243.75C26.9268 243.183 27.1574 242.737 27.6187 242.411C28.0799 242.081 28.7126 241.916 29.5166 241.916C30.2656 241.916 30.9977 242.068 31.7129 242.373L31.3384 243.23C30.6401 242.942 30.0075 242.798 29.4404 242.798C28.9411 242.798 28.5645 242.877 28.3105 243.033C28.0566 243.19 27.9297 243.406 27.9297 243.681C27.9297 243.867 27.9762 244.026 28.0693 244.157C28.1667 244.288 28.3211 244.413 28.5327 244.531C28.7443 244.65 29.1506 244.821 29.7515 245.045C30.5767 245.346 31.1331 245.648 31.4209 245.953C31.7129 246.258 31.8589 246.641 31.8589 247.102ZM39.584 245.515C39.584 246.649 39.2983 247.536 38.7271 248.175C38.1558 248.81 37.3665 249.127 36.3594 249.127C35.7373 249.127 35.1851 248.981 34.7026 248.689C34.2202 248.397 33.8478 247.978 33.5854 247.432C33.3231 246.886 33.1919 246.247 33.1919 245.515C33.1919 244.381 33.4754 243.499 34.0425 242.868C34.6095 242.233 35.3966 241.916 36.4038 241.916C37.3771 241.916 38.1494 242.24 38.7207 242.887C39.2962 243.535 39.584 244.411 39.584 245.515ZM34.2837 245.515C34.2837 246.404 34.4614 247.081 34.8169 247.546C35.1724 248.012 35.695 248.245 36.3848 248.245C37.0745 248.245 37.5972 248.014 37.9526 247.553C38.3123 247.087 38.4922 246.408 38.4922 245.515C38.4922 244.631 38.3123 243.96 37.9526 243.503C37.5972 243.042 37.0703 242.811 36.3721 242.811C35.6823 242.811 35.1618 243.037 34.8105 243.49C34.4593 243.943 34.2837 244.618 34.2837 245.515ZM47.4424 245.515C47.4424 246.649 47.1567 247.536 46.5854 248.175C46.0142 248.81 45.2249 249.127 44.2178 249.127C43.5957 249.127 43.0435 248.981 42.561 248.689C42.0786 248.397 41.7062 247.978 41.4438 247.432C41.1815 246.886 41.0503 246.247 41.0503 245.515C41.0503 244.381 41.3338 243.499 41.9009 242.868C42.4679 242.233 43.255 241.916 44.2622 241.916C45.2355 241.916 46.0078 242.24 46.5791 242.887C47.1546 243.535 47.4424 244.411 47.4424 245.515ZM42.1421 245.515C42.1421 246.404 42.3198 247.081 42.6753 247.546C43.0308 248.012 43.5534 248.245 44.2432 248.245C44.9329 248.245 45.4556 248.014 45.811 247.553C46.1707 247.087 46.3506 246.408 46.3506 245.515C46.3506 244.631 46.1707 243.96 45.811 243.503C45.4556 243.042 44.9287 242.811 44.2305 242.811C43.5407 242.811 43.0202 243.037 42.6689 243.49C42.3177 243.943 42.1421 244.618 42.1421 245.515ZM54.0566 249V244.5C54.0566 243.932 53.9276 243.509 53.6694 243.23C53.4113 242.951 53.0072 242.811 52.457 242.811C51.7292 242.811 51.196 243.008 50.8574 243.401C50.5189 243.795 50.3496 244.444 50.3496 245.35V249H49.2959V242.043H50.1528L50.3242 242.995H50.375C50.5908 242.652 50.8934 242.388 51.2827 242.202C51.672 242.011 52.1058 241.916 52.584 241.916C53.4219 241.916 54.0524 242.119 54.4756 242.525C54.8988 242.927 55.1104 243.573 55.1104 244.461V249H54.0566ZM64.9365 249L64.7271 248.01H64.6763C64.3293 248.446 63.9823 248.742 63.6353 248.898C63.2925 249.051 62.863 249.127 62.3467 249.127C61.6569 249.127 61.1152 248.949 60.7217 248.594C60.3324 248.238 60.1377 247.733 60.1377 247.077C60.1377 245.672 61.2612 244.935 63.5083 244.868L64.689 244.83V244.398C64.689 243.852 64.5705 243.45 64.3335 243.192C64.1007 242.93 63.7262 242.798 63.21 242.798C62.6302 242.798 61.9743 242.976 61.2422 243.332L60.9185 242.525C61.2612 242.339 61.6357 242.193 62.042 242.087C62.4525 241.982 62.863 241.929 63.2734 241.929C64.1029 241.929 64.7165 242.113 65.1143 242.481C65.5163 242.849 65.7173 243.439 65.7173 244.252V249H64.9365ZM62.5562 248.257C63.2121 248.257 63.7262 248.077 64.0986 247.718C64.4753 247.358 64.6636 246.854 64.6636 246.207V245.579L63.6099 245.623C62.772 245.653 62.1668 245.784 61.7944 246.017C61.4263 246.245 61.2422 246.603 61.2422 247.089C61.2422 247.47 61.3564 247.76 61.585 247.959C61.8177 248.158 62.1414 248.257 62.5562 248.257ZM72.3823 247.102C72.3823 247.75 72.1411 248.249 71.6587 248.6C71.1763 248.951 70.4992 249.127 69.6274 249.127C68.7049 249.127 67.9855 248.981 67.4692 248.689V247.711C67.8035 247.881 68.1611 248.014 68.542 248.111C68.9271 248.209 69.2974 248.257 69.6528 248.257C70.203 248.257 70.6261 248.171 70.9224 247.997C71.2186 247.819 71.3667 247.551 71.3667 247.191C71.3667 246.92 71.2482 246.689 71.0112 246.499C70.7785 246.304 70.3215 246.076 69.6401 245.813C68.9927 245.572 68.5314 245.363 68.2563 245.185C67.9855 245.003 67.7824 244.798 67.647 244.569C67.5158 244.341 67.4502 244.068 67.4502 243.75C67.4502 243.183 67.6808 242.737 68.1421 242.411C68.6034 242.081 69.236 241.916 70.04 241.916C70.7891 241.916 71.5212 242.068 72.2363 242.373L71.8618 243.23C71.1636 242.942 70.5309 242.798 69.9639 242.798C69.4645 242.798 69.0879 242.877 68.834 243.033C68.5801 243.19 68.4531 243.406 68.4531 243.681C68.4531 243.867 68.4997 244.026 68.5928 244.157C68.6901 244.288 68.8446 244.413 69.0562 244.531C69.2677 244.65 69.674 244.821 70.2749 245.045C71.1001 245.346 71.6566 245.648 71.9443 245.953C72.2363 246.258 72.3823 246.641 72.3823 247.102ZM76.375 242.043H77.5049L79.0283 246.01C79.3626 246.916 79.57 247.57 79.6504 247.972H79.7012C79.7562 247.756 79.8704 247.388 80.0439 246.867C80.2217 246.342 80.7972 244.734 81.7705 242.043H82.9004L79.9106 249.965C79.6144 250.748 79.2674 251.302 78.8696 251.628C78.4761 251.958 77.9915 252.123 77.416 252.123C77.0944 252.123 76.777 252.087 76.4639 252.015V251.171C76.6966 251.222 76.9569 251.247 77.2446 251.247C77.9683 251.247 78.4845 250.841 78.7935 250.028L79.1807 249.038L76.375 242.043ZM90.0352 245.515C90.0352 246.649 89.7495 247.536 89.1782 248.175C88.6069 248.81 87.8177 249.127 86.8105 249.127C86.1885 249.127 85.6362 248.981 85.1538 248.689C84.6714 248.397 84.299 247.978 84.0366 247.432C83.7743 246.886 83.6431 246.247 83.6431 245.515C83.6431 244.381 83.9266 243.499 84.4937 242.868C85.0607 242.233 85.8478 241.916 86.855 241.916C87.8283 241.916 88.6006 242.24 89.1719 242.887C89.7474 243.535 90.0352 244.411 90.0352 245.515ZM84.7349 245.515C84.7349 246.404 84.9126 247.081 85.2681 247.546C85.6235 248.012 86.1462 248.245 86.8359 248.245C87.5257 248.245 88.0483 248.014 88.4038 247.553C88.7635 247.087 88.9434 246.408 88.9434 245.515C88.9434 244.631 88.7635 243.96 88.4038 243.503C88.0483 243.042 87.5215 242.811 86.8232 242.811C86.1335 242.811 85.613 243.037 85.2617 243.49C84.9105 243.943 84.7349 244.618 84.7349 245.515ZM92.8789 242.043V246.556C92.8789 247.123 93.008 247.546 93.2661 247.826C93.5243 248.105 93.9284 248.245 94.4785 248.245C95.2064 248.245 95.7375 248.046 96.0718 247.648C96.4103 247.25 96.5796 246.601 96.5796 245.699V242.043H97.6333V249H96.7637L96.6113 248.067H96.5542C96.3384 248.41 96.0379 248.672 95.6528 248.854C95.272 249.036 94.8361 249.127 94.3452 249.127C93.4989 249.127 92.8641 248.926 92.4409 248.524C92.022 248.122 91.8125 247.479 91.8125 246.594V242.043H92.8789ZM106.031 249.127C105.024 249.127 104.243 248.818 103.689 248.2C103.139 247.578 102.864 246.7 102.864 245.566C102.864 244.402 103.143 243.503 103.702 242.868C104.264 242.233 105.064 241.916 106.101 241.916C106.435 241.916 106.77 241.952 107.104 242.024C107.438 242.096 107.701 242.181 107.891 242.278L107.567 243.173C107.335 243.08 107.081 243.004 106.806 242.944C106.531 242.881 106.287 242.849 106.076 242.849C104.662 242.849 103.956 243.75 103.956 245.553C103.956 246.408 104.127 247.064 104.47 247.521C104.817 247.978 105.329 248.207 106.006 248.207C106.586 248.207 107.18 248.082 107.79 247.832V248.765C107.324 249.006 106.738 249.127 106.031 249.127ZM112.62 241.916C112.929 241.916 113.206 241.941 113.452 241.992L113.306 242.97C113.018 242.906 112.764 242.875 112.544 242.875C111.981 242.875 111.499 243.103 111.097 243.56C110.699 244.017 110.5 244.586 110.5 245.268V249H109.446V242.043H110.316L110.437 243.332H110.487C110.745 242.879 111.056 242.53 111.42 242.284C111.784 242.039 112.184 241.916 112.62 241.916ZM117.692 249.127C116.664 249.127 115.851 248.814 115.254 248.188C114.662 247.561 114.366 246.692 114.366 245.579C114.366 244.457 114.641 243.566 115.191 242.906C115.745 242.246 116.488 241.916 117.419 241.916C118.291 241.916 118.98 242.204 119.488 242.779C119.996 243.351 120.25 244.106 120.25 245.045V245.712H115.458C115.479 246.529 115.684 247.149 116.073 247.572C116.467 247.995 117.019 248.207 117.73 248.207C118.479 248.207 119.22 248.05 119.952 247.737V248.676C119.579 248.837 119.226 248.951 118.892 249.019C118.562 249.091 118.162 249.127 117.692 249.127ZM117.406 242.798C116.848 242.798 116.401 242.98 116.067 243.344C115.737 243.708 115.542 244.212 115.483 244.855H119.12C119.12 244.191 118.972 243.683 118.676 243.332C118.38 242.976 117.956 242.798 117.406 242.798ZM126.331 249L126.122 248.01H126.071C125.724 248.446 125.377 248.742 125.03 248.898C124.687 249.051 124.257 249.127 123.741 249.127C123.051 249.127 122.51 248.949 122.116 248.594C121.727 248.238 121.532 247.733 121.532 247.077C121.532 245.672 122.656 244.935 124.903 244.868L126.083 244.83V244.398C126.083 243.852 125.965 243.45 125.728 243.192C125.495 242.93 125.121 242.798 124.604 242.798C124.025 242.798 123.369 242.976 122.637 243.332L122.313 242.525C122.656 242.339 123.03 242.193 123.437 242.087C123.847 241.982 124.257 241.929 124.668 241.929C125.497 241.929 126.111 242.113 126.509 242.481C126.911 242.849 127.112 243.439 127.112 244.252V249H126.331ZM123.951 248.257C124.607 248.257 125.121 248.077 125.493 247.718C125.87 247.358 126.058 246.854 126.058 246.207V245.579L125.004 245.623C124.167 245.653 123.561 245.784 123.189 246.017C122.821 246.245 122.637 246.603 122.637 247.089C122.637 247.47 122.751 247.76 122.979 247.959C123.212 248.158 123.536 248.257 123.951 248.257ZM131.536 248.257C131.722 248.257 131.902 248.245 132.076 248.219C132.249 248.19 132.387 248.16 132.488 248.13V248.937C132.374 248.992 132.205 249.036 131.98 249.07C131.76 249.108 131.562 249.127 131.384 249.127C130.038 249.127 129.365 248.418 129.365 247V242.862H128.369V242.354L129.365 241.916L129.81 240.431H130.419V242.043H132.438V242.862H130.419V246.956C130.419 247.375 130.518 247.697 130.717 247.921C130.916 248.145 131.189 248.257 131.536 248.257ZM136.824 249.127C135.795 249.127 134.983 248.814 134.386 248.188C133.794 247.561 133.498 246.692 133.498 245.579C133.498 244.457 133.773 243.566 134.323 242.906C134.877 242.246 135.62 241.916 136.551 241.916C137.423 241.916 138.112 242.204 138.62 242.779C139.128 243.351 139.382 244.106 139.382 245.045V245.712H134.589C134.611 246.529 134.816 247.149 135.205 247.572C135.599 247.995 136.151 248.207 136.862 248.207C137.611 248.207 138.351 248.05 139.083 247.737V248.676C138.711 248.837 138.358 248.951 138.023 249.019C137.693 249.091 137.293 249.127 136.824 249.127ZM136.538 242.798C135.979 242.798 135.533 242.98 135.199 243.344C134.869 243.708 134.674 244.212 134.615 244.855H138.252C138.252 244.191 138.104 243.683 137.808 243.332C137.511 242.976 137.088 242.798 136.538 242.798ZM143.457 242.043H144.587L146.11 246.01C146.445 246.916 146.652 247.57 146.732 247.972H146.783C146.838 247.756 146.952 247.388 147.126 246.867C147.304 246.342 147.879 244.734 148.853 242.043H149.982L146.993 249.965C146.696 250.748 146.349 251.302 145.952 251.628C145.558 251.958 145.074 252.123 144.498 252.123C144.176 252.123 143.859 252.087 143.546 252.015V251.171C143.779 251.222 144.039 251.247 144.327 251.247C145.05 251.247 145.567 250.841 145.875 250.028L146.263 249.038L143.457 242.043ZM157.117 245.515C157.117 246.649 156.832 247.536 156.26 248.175C155.689 248.81 154.9 249.127 153.893 249.127C153.271 249.127 152.718 248.981 152.236 248.689C151.753 248.397 151.381 247.978 151.119 247.432C150.856 246.886 150.725 246.247 150.725 245.515C150.725 244.381 151.009 243.499 151.576 242.868C152.143 242.233 152.93 241.916 153.937 241.916C154.91 241.916 155.683 242.24 156.254 242.887C156.829 243.535 157.117 244.411 157.117 245.515ZM151.817 245.515C151.817 246.404 151.995 247.081 152.35 247.546C152.706 248.012 153.228 248.245 153.918 248.245C154.608 248.245 155.13 248.014 155.486 247.553C155.846 247.087 156.025 246.408 156.025 245.515C156.025 244.631 155.846 243.96 155.486 243.503C155.13 243.042 154.604 242.811 153.905 242.811C153.215 242.811 152.695 243.037 152.344 243.49C151.993 243.943 151.817 244.618 151.817 245.515ZM159.961 242.043V246.556C159.961 247.123 160.09 247.546 160.348 247.826C160.606 248.105 161.01 248.245 161.561 248.245C162.288 248.245 162.819 248.046 163.154 247.648C163.492 247.25 163.662 246.601 163.662 245.699V242.043H164.715V249H163.846L163.693 248.067H163.636C163.42 248.41 163.12 248.672 162.735 248.854C162.354 249.036 161.918 249.127 161.427 249.127C160.581 249.127 159.946 248.926 159.523 248.524C159.104 248.122 158.895 247.479 158.895 246.594V242.043H159.961ZM170.13 241.916C170.439 241.916 170.716 241.941 170.961 241.992L170.815 242.97C170.528 242.906 170.274 242.875 170.054 242.875C169.491 242.875 169.008 243.103 168.606 243.56C168.209 244.017 168.01 244.586 168.01 245.268V249H166.956V242.043H167.826L167.946 243.332H167.997C168.255 242.879 168.566 242.53 168.93 242.284C169.294 242.039 169.694 241.916 170.13 241.916ZM178.775 242.862H177.004V249H175.951V242.862H174.707V242.386L175.951 242.005V241.618C175.951 239.908 176.698 239.053 178.191 239.053C178.56 239.053 178.991 239.127 179.486 239.275L179.213 240.12C178.807 239.988 178.46 239.923 178.172 239.923C177.775 239.923 177.48 240.056 177.29 240.323C177.1 240.585 177.004 241.008 177.004 241.592V242.043H178.775V242.862ZM181.099 249H180.045V242.043H181.099V249ZM179.956 240.158C179.956 239.917 180.015 239.741 180.134 239.631C180.252 239.517 180.4 239.459 180.578 239.459C180.747 239.459 180.893 239.517 181.016 239.631C181.139 239.745 181.2 239.921 181.2 240.158C181.2 240.395 181.139 240.572 181.016 240.691C180.893 240.805 180.747 240.862 180.578 240.862C180.4 240.862 180.252 240.805 180.134 240.691C180.015 240.572 179.956 240.395 179.956 240.158ZM186.507 241.916C186.816 241.916 187.093 241.941 187.338 241.992L187.192 242.97C186.905 242.906 186.651 242.875 186.431 242.875C185.868 242.875 185.385 243.103 184.983 243.56C184.586 244.017 184.387 244.586 184.387 245.268V249H183.333V242.043H184.203L184.323 243.332H184.374C184.632 242.879 184.943 242.53 185.307 242.284C185.671 242.039 186.071 241.916 186.507 241.916ZM193.127 247.102C193.127 247.75 192.886 248.249 192.404 248.6C191.921 248.951 191.244 249.127 190.373 249.127C189.45 249.127 188.731 248.981 188.214 248.689V247.711C188.549 247.881 188.906 248.014 189.287 248.111C189.672 248.209 190.042 248.257 190.398 248.257C190.948 248.257 191.371 248.171 191.667 247.997C191.964 247.819 192.112 247.551 192.112 247.191C192.112 246.92 191.993 246.689 191.756 246.499C191.524 246.304 191.067 246.076 190.385 245.813C189.738 245.572 189.277 245.363 189.001 245.185C188.731 245.003 188.528 244.798 188.392 244.569C188.261 244.341 188.195 244.068 188.195 243.75C188.195 243.183 188.426 242.737 188.887 242.411C189.348 242.081 189.981 241.916 190.785 241.916C191.534 241.916 192.266 242.068 192.981 242.373L192.607 243.23C191.909 242.942 191.276 242.798 190.709 242.798C190.21 242.798 189.833 242.877 189.579 243.033C189.325 243.19 189.198 243.406 189.198 243.681C189.198 243.867 189.245 244.026 189.338 244.157C189.435 244.288 189.59 244.413 189.801 244.531C190.013 244.65 190.419 244.821 191.02 245.045C191.845 245.346 192.402 245.648 192.689 245.953C192.981 246.258 193.127 246.641 193.127 247.102ZM197.095 248.257C197.281 248.257 197.461 248.245 197.634 248.219C197.808 248.19 197.945 248.16 198.047 248.13V248.937C197.933 248.992 197.763 249.036 197.539 249.07C197.319 249.108 197.12 249.127 196.942 249.127C195.597 249.127 194.924 248.418 194.924 247V242.862H193.927V242.354L194.924 241.916L195.368 240.431H195.978V242.043H197.996V242.862H195.978V246.956C195.978 247.375 196.077 247.697 196.276 247.921C196.475 248.145 196.748 248.257 197.095 248.257ZM205.994 241.916C206.303 241.916 206.58 241.941 206.826 241.992L206.68 242.97C206.392 242.906 206.138 242.875 205.918 242.875C205.355 242.875 204.873 243.103 204.471 243.56C204.073 244.017 203.874 244.586 203.874 245.268V249H202.82V242.043H203.69L203.811 243.332H203.861C204.119 242.879 204.431 242.53 204.794 242.284C205.158 242.039 205.558 241.916 205.994 241.916ZM211.066 249.127C210.038 249.127 209.225 248.814 208.628 248.188C208.036 247.561 207.74 246.692 207.74 245.579C207.74 244.457 208.015 243.566 208.565 242.906C209.119 242.246 209.862 241.916 210.793 241.916C211.665 241.916 212.354 242.204 212.862 242.779C213.37 243.351 213.624 244.106 213.624 245.045V245.712H208.832C208.853 246.529 209.058 247.149 209.447 247.572C209.841 247.995 210.393 248.207 211.104 248.207C211.853 248.207 212.594 248.05 213.326 247.737V248.676C212.953 248.837 212.6 248.951 212.266 249.019C211.936 249.091 211.536 249.127 211.066 249.127ZM210.78 242.798C210.222 242.798 209.775 242.98 209.441 243.344C209.111 243.708 208.916 244.212 208.857 244.855H212.494C212.494 244.191 212.346 243.683 212.05 243.332C211.754 242.976 211.33 242.798 210.78 242.798ZM218.055 248.245C218.757 248.245 219.269 248.056 219.591 247.68C219.912 247.303 220.084 246.668 220.105 245.775V245.541C220.105 244.567 219.94 243.867 219.61 243.439C219.28 243.012 218.757 242.798 218.042 242.798C217.424 242.798 216.95 243.04 216.62 243.522C216.294 244 216.131 244.677 216.131 245.553C216.131 246.429 216.292 247.098 216.614 247.559C216.94 248.016 217.42 248.245 218.055 248.245ZM217.896 249.127C216.999 249.127 216.299 248.812 215.795 248.181C215.291 247.551 215.04 246.67 215.04 245.541C215.04 244.402 215.293 243.514 215.801 242.875C216.309 242.236 217.016 241.916 217.921 241.916C218.874 241.916 219.606 242.276 220.118 242.995H220.175L220.327 242.043H221.159V252.123H220.105V249.146C220.105 248.723 220.128 248.363 220.175 248.067H220.092C219.606 248.774 218.874 249.127 217.896 249.127ZM224.39 242.043V246.556C224.39 247.123 224.519 247.546 224.777 247.826C225.035 248.105 225.439 248.245 225.989 248.245C226.717 248.245 227.248 248.046 227.583 247.648C227.921 247.25 228.09 246.601 228.09 245.699V242.043H229.144V249H228.274L228.122 248.067H228.065C227.849 248.41 227.549 248.672 227.164 248.854C226.783 249.036 226.347 249.127 225.856 249.127C225.01 249.127 224.375 248.926 223.952 248.524C223.533 248.122 223.323 247.479 223.323 246.594V242.043H224.39ZM234.324 249.127C233.295 249.127 232.483 248.814 231.886 248.188C231.294 247.561 230.998 246.692 230.998 245.579C230.998 244.457 231.273 243.566 231.823 242.906C232.377 242.246 233.12 241.916 234.051 241.916C234.923 241.916 235.612 242.204 236.12 242.779C236.628 243.351 236.882 244.106 236.882 245.045V245.712H232.089C232.111 246.529 232.316 247.149 232.705 247.572C233.099 247.995 233.651 248.207 234.362 248.207C235.111 248.207 235.851 248.05 236.583 247.737V248.676C236.211 248.837 235.858 248.951 235.523 249.019C235.193 249.091 234.793 249.127 234.324 249.127ZM234.038 242.798C233.479 242.798 233.033 242.98 232.699 243.344C232.369 243.708 232.174 244.212 232.115 244.855H235.752C235.752 244.191 235.604 243.683 235.308 243.332C235.011 242.976 234.588 242.798 234.038 242.798ZM243.172 247.102C243.172 247.75 242.931 248.249 242.449 248.6C241.966 248.951 241.289 249.127 240.417 249.127C239.495 249.127 238.776 248.981 238.259 248.689V247.711C238.594 247.881 238.951 248.014 239.332 248.111C239.717 248.209 240.087 248.257 240.443 248.257C240.993 248.257 241.416 248.171 241.712 247.997C242.009 247.819 242.157 247.551 242.157 247.191C242.157 246.92 242.038 246.689 241.801 246.499C241.569 246.304 241.111 246.076 240.43 245.813C239.783 245.572 239.321 245.363 239.046 245.185C238.776 245.003 238.572 244.798 238.437 244.569C238.306 244.341 238.24 244.068 238.24 243.75C238.24 243.183 238.471 242.737 238.932 242.411C239.393 242.081 240.026 241.916 240.83 241.916C241.579 241.916 242.311 242.068 243.026 242.373L242.652 243.23C241.954 242.942 241.321 242.798 240.754 242.798C240.255 242.798 239.878 242.877 239.624 243.033C239.37 243.19 239.243 243.406 239.243 243.681C239.243 243.867 239.29 244.026 239.383 244.157C239.48 244.288 239.635 244.413 239.846 244.531C240.058 244.65 240.464 244.821 241.065 245.045C241.89 245.346 242.447 245.648 242.734 245.953C243.026 246.258 243.172 246.641 243.172 247.102ZM247.14 248.257C247.326 248.257 247.506 248.245 247.679 248.219C247.853 248.19 247.99 248.16 248.092 248.13V248.937C247.978 248.992 247.808 249.036 247.584 249.07C247.364 249.108 247.165 249.127 246.987 249.127C245.642 249.127 244.969 248.418 244.969 247V242.862H243.972V242.354L244.969 241.916L245.413 240.431H246.022V242.043H248.041V242.862H246.022V246.956C246.022 247.375 246.122 247.697 246.321 247.921C246.52 248.145 246.793 248.257 247.14 248.257ZM250.593 247.489L250.688 247.635C250.578 248.058 250.419 248.549 250.212 249.108C250.005 249.671 249.789 250.193 249.564 250.676H248.771C248.885 250.236 249.01 249.692 249.146 249.044C249.285 248.397 249.382 247.879 249.438 247.489H250.593ZM71.6396 260.043H72.7695L74.293 264.01C74.6273 264.916 74.8346 265.57 74.915 265.972H74.9658C75.0208 265.756 75.1351 265.388 75.3086 264.867C75.4863 264.342 76.0618 262.734 77.0352 260.043H78.165L75.1753 267.965C74.8791 268.748 74.5321 269.302 74.1343 269.628C73.7407 269.958 73.2562 270.123 72.6807 270.123C72.359 270.123 72.0417 270.087 71.7285 270.015V269.171C71.9613 269.222 72.2215 269.247 72.5093 269.247C73.2329 269.247 73.7492 268.841 74.0581 268.028L74.4453 267.038L71.6396 260.043ZM85.2998 263.515C85.2998 264.649 85.0142 265.536 84.4429 266.175C83.8716 266.81 83.0824 267.127 82.0752 267.127C81.4531 267.127 80.9009 266.981 80.4185 266.689C79.936 266.397 79.5636 265.978 79.3013 265.432C79.0389 264.886 78.9077 264.247 78.9077 263.515C78.9077 262.381 79.1912 261.499 79.7583 260.868C80.3254 260.233 81.1125 259.916 82.1196 259.916C83.0929 259.916 83.8652 260.24 84.4365 260.887C85.012 261.535 85.2998 262.411 85.2998 263.515ZM79.9995 263.515C79.9995 264.404 80.1772 265.081 80.5327 265.546C80.8882 266.012 81.4108 266.245 82.1006 266.245C82.7904 266.245 83.313 266.014 83.6685 265.553C84.0282 265.087 84.208 264.408 84.208 263.515C84.208 262.631 84.0282 261.96 83.6685 261.503C83.313 261.042 82.7861 260.811 82.0879 260.811C81.3981 260.811 80.8776 261.037 80.5264 261.49C80.1751 261.943 79.9995 262.618 79.9995 263.515ZM88.1436 260.043V264.556C88.1436 265.123 88.2726 265.546 88.5308 265.826C88.7889 266.105 89.193 266.245 89.7432 266.245C90.471 266.245 91.0021 266.046 91.3364 265.648C91.675 265.25 91.8442 264.601 91.8442 263.699V260.043H92.8979V267H92.0283L91.876 266.067H91.8188C91.603 266.41 91.3026 266.672 90.9175 266.854C90.5366 267.036 90.1007 267.127 89.6099 267.127C88.7635 267.127 88.1287 266.926 87.7056 266.524C87.2866 266.122 87.0771 265.479 87.0771 264.594V260.043H88.1436ZM101.296 267.127C100.289 267.127 99.508 266.818 98.9536 266.2C98.4035 265.578 98.1284 264.7 98.1284 263.566C98.1284 262.402 98.4077 261.503 98.9663 260.868C99.5291 260.233 100.329 259.916 101.366 259.916C101.7 259.916 102.034 259.952 102.369 260.024C102.703 260.096 102.965 260.181 103.156 260.278L102.832 261.173C102.599 261.08 102.345 261.004 102.07 260.944C101.795 260.881 101.552 260.849 101.34 260.849C99.9269 260.849 99.2202 261.75 99.2202 263.553C99.2202 264.408 99.3916 265.064 99.7344 265.521C100.081 265.978 100.593 266.207 101.271 266.207C101.85 266.207 102.445 266.082 103.054 265.832V266.765C102.589 267.006 102.003 267.127 101.296 267.127ZM108.989 267L108.78 266.01H108.729C108.382 266.446 108.035 266.742 107.688 266.898C107.345 267.051 106.916 267.127 106.399 267.127C105.71 267.127 105.168 266.949 104.774 266.594C104.385 266.238 104.19 265.733 104.19 265.077C104.19 263.672 105.314 262.935 107.561 262.868L108.742 262.83V262.398C108.742 261.852 108.623 261.45 108.386 261.192C108.153 260.93 107.779 260.798 107.263 260.798C106.683 260.798 106.027 260.976 105.295 261.332L104.971 260.525C105.314 260.339 105.688 260.193 106.095 260.087C106.505 259.982 106.916 259.929 107.326 259.929C108.156 259.929 108.769 260.113 109.167 260.481C109.569 260.849 109.77 261.439 109.77 262.252V267H108.989ZM106.609 266.257C107.265 266.257 107.779 266.077 108.151 265.718C108.528 265.358 108.716 264.854 108.716 264.207V263.579L107.663 263.623C106.825 263.653 106.22 263.784 105.847 264.017C105.479 264.245 105.295 264.603 105.295 265.089C105.295 265.47 105.409 265.76 105.638 265.959C105.87 266.158 106.194 266.257 106.609 266.257ZM116.708 267V262.5C116.708 261.932 116.579 261.509 116.321 261.23C116.063 260.951 115.659 260.811 115.108 260.811C114.381 260.811 113.847 261.008 113.509 261.401C113.17 261.795 113.001 262.444 113.001 263.35V267H111.947V260.043H112.804L112.976 260.995H113.026C113.242 260.652 113.545 260.388 113.934 260.202C114.323 260.011 114.757 259.916 115.235 259.916C116.073 259.916 116.704 260.119 117.127 260.525C117.55 260.927 117.762 261.573 117.762 262.461V267H116.708ZM126.445 260.862H124.674V267H123.621V260.862H122.376V260.386L123.621 260.005V259.618C123.621 257.908 124.368 257.053 125.861 257.053C126.229 257.053 126.661 257.127 127.156 257.275L126.883 258.12C126.477 257.988 126.13 257.923 125.842 257.923C125.444 257.923 125.15 258.056 124.96 258.323C124.77 258.585 124.674 259.008 124.674 259.592V260.043H126.445V260.862ZM128.769 267H127.715V260.043H128.769V267ZM127.626 258.158C127.626 257.917 127.685 257.741 127.804 257.631C127.922 257.517 128.07 257.459 128.248 257.459C128.417 257.459 128.563 257.517 128.686 257.631C128.809 257.745 128.87 257.921 128.87 258.158C128.87 258.395 128.809 258.572 128.686 258.691C128.563 258.805 128.417 258.862 128.248 258.862C128.07 258.862 127.922 258.805 127.804 258.691C127.685 258.572 127.626 258.395 127.626 258.158ZM135.764 267V262.5C135.764 261.932 135.635 261.509 135.376 261.23C135.118 260.951 134.714 260.811 134.164 260.811C133.436 260.811 132.903 261.008 132.564 261.401C132.226 261.795 132.057 262.444 132.057 263.35V267H131.003V260.043H131.86L132.031 260.995H132.082C132.298 260.652 132.6 260.388 132.99 260.202C133.379 260.011 133.813 259.916 134.291 259.916C135.129 259.916 135.759 260.119 136.183 260.525C136.606 260.927 136.817 261.573 136.817 262.461V267H135.764ZM143.724 266.067H143.667C143.18 266.774 142.452 267.127 141.483 267.127C140.573 267.127 139.864 266.816 139.356 266.194C138.853 265.572 138.601 264.687 138.601 263.541C138.601 262.394 138.855 261.503 139.363 260.868C139.871 260.233 140.577 259.916 141.483 259.916C142.427 259.916 143.15 260.259 143.654 260.944H143.736L143.692 260.443L143.667 259.954V257.123H144.72V267H143.863L143.724 266.067ZM141.616 266.245C142.336 266.245 142.856 266.05 143.178 265.661C143.504 265.267 143.667 264.634 143.667 263.763V263.541C143.667 262.555 143.501 261.852 143.171 261.433C142.846 261.01 142.323 260.798 141.604 260.798C140.986 260.798 140.512 261.04 140.182 261.522C139.856 262 139.693 262.677 139.693 263.553C139.693 264.442 139.856 265.113 140.182 265.565C140.507 266.018 140.986 266.245 141.616 266.245ZM151.392 267H150.338V260.043H151.392V267ZM150.249 258.158C150.249 257.917 150.308 257.741 150.427 257.631C150.545 257.517 150.693 257.459 150.871 257.459C151.04 257.459 151.186 257.517 151.309 257.631C151.432 257.745 151.493 257.921 151.493 258.158C151.493 258.395 151.432 258.572 151.309 258.691C151.186 258.805 151.04 258.862 150.871 258.862C150.693 258.862 150.545 258.805 150.427 258.691C150.308 258.572 150.249 258.395 150.249 258.158ZM155.873 266.257C156.059 266.257 156.239 266.245 156.413 266.219C156.586 266.19 156.724 266.16 156.825 266.13V266.937C156.711 266.992 156.542 267.036 156.317 267.07C156.097 267.108 155.898 267.127 155.721 267.127C154.375 267.127 153.702 266.418 153.702 265V260.862H152.706V260.354L153.702 259.916L154.146 258.431H154.756V260.043H156.774V260.862H154.756V264.956C154.756 265.375 154.855 265.697 155.054 265.921C155.253 266.145 155.526 266.257 155.873 266.257ZM166.359 267V262.5C166.359 261.932 166.23 261.509 165.972 261.23C165.714 260.951 165.31 260.811 164.76 260.811C164.028 260.811 163.492 261.01 163.154 261.408C162.819 261.806 162.652 262.457 162.652 263.363V267H161.599V257.123H162.652V260.113C162.652 260.472 162.635 260.771 162.602 261.008H162.665C162.872 260.674 163.167 260.411 163.547 260.221C163.932 260.026 164.37 259.929 164.861 259.929C165.712 259.929 166.349 260.132 166.772 260.538C167.199 260.94 167.413 261.581 167.413 262.461V267H166.359ZM172.523 267.127C171.495 267.127 170.682 266.814 170.085 266.188C169.493 265.561 169.197 264.692 169.197 263.579C169.197 262.457 169.472 261.566 170.022 260.906C170.576 260.246 171.319 259.916 172.25 259.916C173.122 259.916 173.812 260.204 174.319 260.779C174.827 261.351 175.081 262.106 175.081 263.045V263.712H170.289C170.31 264.529 170.515 265.149 170.904 265.572C171.298 265.995 171.85 266.207 172.561 266.207C173.31 266.207 174.051 266.05 174.783 265.737V266.676C174.41 266.837 174.057 266.951 173.723 267.019C173.393 267.091 172.993 267.127 172.523 267.127ZM172.237 260.798C171.679 260.798 171.232 260.98 170.898 261.344C170.568 261.708 170.373 262.212 170.314 262.855H173.951C173.951 262.191 173.803 261.683 173.507 261.332C173.211 260.976 172.787 260.798 172.237 260.798ZM180.058 259.916C180.367 259.916 180.644 259.941 180.889 259.992L180.743 260.97C180.455 260.906 180.201 260.875 179.981 260.875C179.419 260.875 178.936 261.103 178.534 261.56C178.136 262.017 177.938 262.586 177.938 263.268V267H176.884V260.043H177.753L177.874 261.332H177.925C178.183 260.879 178.494 260.53 178.858 260.284C179.222 260.039 179.622 259.916 180.058 259.916ZM185.129 267.127C184.101 267.127 183.289 266.814 182.692 266.188C182.099 265.561 181.803 264.692 181.803 263.579C181.803 262.457 182.078 261.566 182.628 260.906C183.183 260.246 183.925 259.916 184.856 259.916C185.728 259.916 186.418 260.204 186.926 260.779C187.434 261.351 187.688 262.106 187.688 263.045V263.712H182.895C182.916 264.529 183.121 265.149 183.511 265.572C183.904 265.995 184.457 266.207 185.167 266.207C185.917 266.207 186.657 266.05 187.389 265.737V266.676C187.017 266.837 186.663 266.951 186.329 267.019C185.999 267.091 185.599 267.127 185.129 267.127ZM184.844 260.798C184.285 260.798 183.839 260.98 183.504 261.344C183.174 261.708 182.98 262.212 182.92 262.855H186.558C186.558 262.191 186.41 261.683 186.113 261.332C185.817 260.976 185.394 260.798 184.844 260.798Z" fill="#494949"/>
</svg>
