<svg width="470" height="170" viewBox="0 0 470 170" fill="none" xmlns="http://www.w3.org/2000/svg">
<g clip-path="url(#clip0)">
<path fill-rule="evenodd" clip-rule="evenodd" d="M0 5C0 2.23858 2.23858 0 5 0H465C467.761 0 470 2.23858 470 5V170H0V5Z" fill="white"/>
<path fill-rule="evenodd" clip-rule="evenodd" d="M455.1 206.65C482.217 206.65 504.2 183.223 504.2 154.325C504.2 125.427 482.217 102 455.1 102C427.983 102 406 125.427 406 154.325C406 183.223 427.983 206.65 455.1 206.65Z" fill="#13CCB0"/>
<path d="M430 133.5H448.624" stroke="#EBECEF" stroke-width="0.5" stroke-linecap="round"/>
<path d="M445.5 130.494V133.485" stroke="#EBECEF" stroke-width="0.5" stroke-linecap="round"/>
<path d="M437.5 133.494V136.5" stroke="#EBECEF" stroke-width="0.5" stroke-linecap="round"/>
<path d="M432 136.5H445.5" stroke="#EBECEF" stroke-width="0.5" stroke-linecap="round"/>
<path fill-rule="evenodd" clip-rule="evenodd" d="M1.10001 90.6499C49.204 90.6499 88.2004 49.3146 88.2004 -1.67509C88.2004 -52.6648 49.204 -94 1.10001 -94C-47.004 -94 -86 -52.6648 -86 -1.67509C-86 49.3146 -47.004 90.6499 1.10001 90.6499Z" fill="#13CCB0"/>
<path d="M24.7422 38.5H43.3664" stroke="#EBECEF" stroke-width="0.5" stroke-linecap="round"/>
<path d="M40.2422 35.4941V38.4665" stroke="#EBECEF" stroke-width="0.5" stroke-linecap="round"/>
<path d="M32.2422 38.4941V41.5" stroke="#EBECEF" stroke-width="0.5" stroke-linecap="round"/>
<path d="M26.7422 41.5H40.2422" stroke="#EBECEF" stroke-width="0.5" stroke-linecap="round"/>
<path d="M338 59.5H356.624" stroke="#EBECEF" stroke-width="0.5" stroke-linecap="round"/>
<path d="M353.5 56.4941V59.6242" stroke="#EBECEF" stroke-width="0.5" stroke-linecap="round"/>
<path d="M345.5 59.4941V62.5" stroke="#EBECEF" stroke-width="0.5" stroke-linecap="round"/>
<path d="M340 62.5H353.5" stroke="#EBECEF" stroke-width="0.5" stroke-linecap="round"/>
<path fill-rule="evenodd" clip-rule="evenodd" d="M456 9.52862V153H455V9.00009L466.475 0.457937C466.697 0.292762 467.01 0.337774 467.177 0.558688C467.342 0.778262 467.298 1.0904 467.079 1.25586C467.078 1.25629 467.078 1.25673 467.077 1.25716L456 9.52862Z" fill="#F9F9F9"/>
<path fill-rule="evenodd" clip-rule="evenodd" d="M0 153H456L470 159L0 158.97L0 153ZM0 159H470V170H0V159Z" fill="#F9F9F9"/>
<path fill-rule="evenodd" clip-rule="evenodd" d="M0 159V153H456L470 159V170H0V159Z" fill="#F9F9F9"/>
<path fill-rule="evenodd" clip-rule="evenodd" d="M161.249 157H300.652L311.001 168H148L161.249 157Z" fill="#EDEEF1"/>
<path fill-rule="evenodd" clip-rule="evenodd" d="M163.248 159H298.544L305 166H155L163.248 159Z" fill="#F5F5F5"/>
<path d="M92 73.5H110.624" stroke="#EBECEF" stroke-width="0.5" stroke-linecap="round"/>
<path d="M107.5 70.4941V73.6242" stroke="#EBECEF" stroke-width="0.5" stroke-linecap="round"/>
<path d="M99.5 73.4941V76.5" stroke="#EBECEF" stroke-width="0.5" stroke-linecap="round"/>
<path d="M94 76.5H107.5" stroke="#EBECEF" stroke-width="0.5" stroke-linecap="round"/>
<path d="M42 127.5H60.6242" stroke="#EBECEF" stroke-width="0.5" stroke-linecap="round"/>
<path d="M57.5 124.494V127.624" stroke="#EBECEF" stroke-width="0.5" stroke-linecap="round"/>
<path d="M49.5 127.494V130.5" stroke="#EBECEF" stroke-width="0.5" stroke-linecap="round"/>
<path d="M44 130.5H57.5" stroke="#EBECEF" stroke-width="0.5" stroke-linecap="round"/>
<path fill-rule="evenodd" clip-rule="evenodd" d="M106 78C111.542 89.2792 115.328 98.4988 117.357 105.659C119.385 112.819 121.266 123.6 123 138C123 123.476 122.162 112.391 120.486 104.747C118.809 97.1026 113.981 88.187 106 78Z" fill="#2BAC58"/>
<path fill-rule="evenodd" clip-rule="evenodd" d="M131 110C130.052 114.943 128.552 118.763 126.5 121.458C124.448 124.152 122.948 129.667 122 138C122 132.027 122.305 127.469 122.916 124.325C123.527 121.182 126.221 116.407 131 110Z" fill="#2BAC58"/>
<path fill-rule="evenodd" clip-rule="evenodd" d="M137 72C128.514 83.9726 123.493 93.6968 121.939 101.173C120.384 108.648 120.76 121.258 123.068 139C122.33 126.079 122.861 114.912 124.661 105.5C126.461 96.0875 130.574 84.9208 137 72Z" fill="#138F48"/>
<path fill-rule="evenodd" clip-rule="evenodd" d="M128.691 153H116.309C111.968 150.813 109 146.398 109 141.308C109 138.604 109.837 136.09 111.273 134H133.727C135.163 136.09 136 138.604 136 141.308C136 146.398 133.032 150.813 128.691 153Z" fill="#5395FF"/>
<path d="M134.5 133H110.5C110.224 133 110 133.224 110 133.5C110 133.776 110.224 134 110.5 134H134.5C134.776 134 135 133.776 135 133.5C135 133.224 134.776 133 134.5 133Z" fill="#225FBF"/>
<g opacity="0.355004">
<g opacity="0.355004">
<g opacity="0.355004">
<path opacity="0.355004" d="M222.371 25H208.371V98H222.371V25Z" fill="url(#paint0_linear)"/>
<path opacity="0.454357" d="M220.371 27H210.371V90H220.371V27Z" fill="white"/>
<path opacity="0.355004" d="M229.371 25H222.371V98H229.371V25Z" fill="url(#paint1_linear)"/>
</g>
</g>
<g opacity="0.355004">
<g opacity="0.355004">
<path opacity="0.355004" d="M182.371 20H168.371V98H182.371V20Z" fill="url(#paint2_linear)"/>
<path opacity="0.454357" d="M181.687 24V22L169.371 22V24L181.687 24Z" fill="white"/>
<path opacity="0.454357" d="M181.687 40V38H169.371V40H181.687Z" fill="white"/>
<path opacity="0.454357" d="M181.687 56V54H169.371V56H181.687Z" fill="white"/>
<path opacity="0.454357" d="M181.687 80V78H169.371V80H181.687Z" fill="white"/>
<path opacity="0.454357" d="M181.687 28V26L169.371 26V28L181.687 28Z" fill="white"/>
<path opacity="0.454357" d="M181.687 44V42H169.371V44H181.687Z" fill="white"/>
<path opacity="0.454357" d="M181.687 60V58H169.371V60H181.687Z" fill="white"/>
<path opacity="0.454357" d="M181.687 84V82H169.371V84H181.687Z" fill="white"/>
<path opacity="0.454357" d="M181.687 32V30L169.371 30V32H181.687Z" fill="white"/>
<path opacity="0.454357" d="M181.687 48V46H169.371V48H181.687Z" fill="white"/>
<path opacity="0.454357" d="M181.687 72V70H169.371V72H181.687Z" fill="white"/>
<path opacity="0.454357" d="M181.687 64V62H169.371V64H181.687Z" fill="white"/>
<path opacity="0.454357" d="M181.687 88V86H169.371V88H181.687Z" fill="white"/>
<path opacity="0.454357" d="M181.687 36V34H169.371V36H181.687Z" fill="white"/>
<path opacity="0.454357" d="M181.687 52V50H169.371V52H181.687Z" fill="white"/>
<path opacity="0.454357" d="M181.687 76V74H169.371V76H181.687Z" fill="white"/>
<path opacity="0.454357" d="M181.687 68V66H169.371V68H181.687Z" fill="white"/>
<path opacity="0.454357" d="M181.687 92V90H169.371V92H181.687Z" fill="white"/>
<path opacity="0.355004" d="M189.371 20H182.371V98H189.371V20Z" fill="url(#paint3_linear)"/>
</g>
</g>
<g opacity="0.355004">
<g opacity="0.355004">
<path opacity="0.355004" d="M249.038 40H240.371V98H249.038V40Z" fill="url(#paint4_linear)"/>
<path opacity="0.454357" d="M247.8 41.5891H241.609V91.6439H247.8V41.5891Z" fill="white"/>
<path opacity="0.355004" d="M253.371 40H249.038V98H253.371V40Z" fill="url(#paint5_linear)"/>
</g>
</g>
<g opacity="0.355004">
<g opacity="0.355004">
<path opacity="0.355004" d="M206.594 41H192.371V100.663H206.594V41Z" fill="url(#paint6_linear)"/>
<path opacity="0.454357" d="M196.044 44H194.371V95H196.044V44Z" fill="white"/>
<path opacity="0.454357" d="M200.044 44H198.371V95H200.044V44Z" fill="white"/>
<path opacity="0.454357" d="M204.044 44H202.371V95H204.044V44Z" fill="white"/>
<path opacity="0.355004" d="M213.064 41H206.371V95.9175H213.064V41Z" fill="url(#paint7_linear)"/>
</g>
<g opacity="0.355004">
<path opacity="0.355004" d="M239.584 52H227.371V101.223H239.584V52Z" fill="url(#paint8_linear)"/>
<path opacity="0.454357" d="M232.808 55H229.371V97.0754H232.808V55Z" fill="white"/>
<path opacity="0.454357" d="M237.808 55H234.371V97.0754H237.808V55Z" fill="white"/>
</g>
<path opacity="0.355004" d="M245.118 52H239.371V96.4324H245.118V52Z" fill="url(#paint9_linear)"/>
</g>
</g>
<g opacity="0.315523">
<path opacity="0.315523" d="M263.371 57H254.371V98H263.371V57Z" fill="url(#paint10_linear)"/>
<path opacity="0.315523" d="M268.371 57H263.371V98H268.371V57Z" fill="url(#paint11_linear)"/>
</g>
<path d="M303.371 15H156.371C155.267 15 154.371 15.8954 154.371 17V95C154.371 96.1046 155.267 97 156.371 97H303.371C304.476 97 305.371 96.1046 305.371 95V17C305.371 15.8954 304.476 15 303.371 15Z" stroke="#EDEEF1" stroke-width="2"/>
<path opacity="0.138416" d="M304.371 16H155.371V96H304.371V16Z" fill="#13CCB0"/>
<path opacity="0.512021" d="M205.371 16H204.371V96H205.371V16Z" fill="white"/>
<path opacity="0.512021" fill-rule="evenodd" clip-rule="evenodd" d="M304.369 42.0049V42.9949L155.372 42.9949V42.0049L304.369 42.0049Z" fill="white"/>
<path opacity="0.512021" d="M267.371 16H266.371V96H267.371V16Z" fill="white"/>
<path d="M267.638 5H266.638V27.25H267.638V5Z" fill="#FFA300"/>
<path fill-rule="evenodd" clip-rule="evenodd" d="M247.361 35H286.171V36H247.361V35Z" fill="#FF8B00"/>
<path fill-rule="evenodd" clip-rule="evenodd" d="M294.428 53.59H239.258L252.861 34H280.49L294.428 53.59Z" fill="url(#paint12_linear)"/>
<path fill-rule="evenodd" clip-rule="evenodd" d="M269.028 30.67H264.758L265.428 27H268.178L269.028 30.67Z" fill="#FF8B00"/>
<path fill-rule="evenodd" clip-rule="evenodd" d="M247.359 35C248.494 32.1946 258.959 30 267.263 30C275.566 30 285.131 32.1946 286.166 35H247.359Z" fill="#FFA300"/>
<path fill-rule="evenodd" clip-rule="evenodd" d="M151.258 106.174H307.258V109.936C307.258 110.404 306.907 110.783 306.474 110.783H152.055C151.623 110.783 151.272 110.404 151.272 109.936V106.174H151.258Z" fill="#0DBFA1"/>
<path fill-rule="evenodd" clip-rule="evenodd" d="M152.503 105.022H306.013C306.7 105.022 307.258 105.53 307.258 106.157V108.478H151.258V106.144C151.265 105.522 151.821 105.022 152.503 105.022Z" fill="#13CCB0"/>
<path fill-rule="evenodd" clip-rule="evenodd" d="M183.881 162.631H179.935L197.4 110.783H202.876L183.881 162.631Z" fill="#0FB595"/>
<path fill-rule="evenodd" clip-rule="evenodd" d="M270.958 162.631H275.14L256.78 110.783H251.052L270.958 162.631Z" fill="#0FB595"/>
<path fill-rule="evenodd" clip-rule="evenodd" d="M258.642 107.319C258.403 107.355 258.165 107.252 258.033 107.056C257.902 106.861 257.902 106.61 258.033 106.415C258.165 106.219 258.403 106.116 258.642 106.152H265.87C265.982 106.152 266.088 106.101 266.156 106.014C266.223 105.928 266.244 105.816 266.213 105.712L262.47 93.1184C262.422 92.9691 262.439 92.8072 262.517 92.67C262.595 92.5327 262.728 92.4319 262.885 92.3906C263.213 92.2944 271.622 92.5292 271.974 92.3906C272.327 92.2519 275.331 101.737 276.282 105.618C276.387 106.29 275.853 107.204 274.94 107.319H258.642Z" fill="#F1F2F7"/>
<path d="M267.685 106.174H258.508C258.191 106.174 257.935 106.431 257.935 106.747V106.752C257.935 107.069 258.191 107.326 258.508 107.326H267.685C268.001 107.326 268.258 107.069 268.258 106.752V106.747C268.258 106.431 268.001 106.174 267.685 106.174Z" fill="#D5D8E4"/>
<path fill-rule="evenodd" clip-rule="evenodd" d="M267.793 107.319C267.562 107.355 267.332 107.251 267.206 107.055C267.079 106.858 267.079 106.605 267.206 106.408C267.332 106.212 267.562 106.108 267.793 106.144H274.768C274.877 106.144 274.979 106.093 275.044 106.006C275.109 105.919 275.129 105.806 275.099 105.701L271.487 93.022C271.448 92.7282 271.63 92.4501 271.915 92.3701C272.199 92.29 272.499 92.4324 272.618 92.7039L276.229 105.383C276.358 105.84 276.268 106.331 275.984 106.711C275.7 107.091 275.255 107.316 274.782 107.319H267.793Z" fill="#AFB7BF"/>
<path d="M288.219 67H248.296C246.651 67 245.316 68.3341 245.316 69.9798V97.4332C245.316 99.0789 246.651 100.413 248.296 100.413H288.219C289.865 100.413 291.199 99.0789 291.199 97.4332V69.9798C291.199 68.3341 289.865 67 288.219 67Z" fill="#AFB7BF"/>
<path d="M287.072 67H247.15C245.504 67 244.17 68.3341 244.17 69.9798V97.4332C244.17 99.0789 245.504 100.413 247.15 100.413H287.072C288.718 100.413 290.052 99.0789 290.052 97.4332V69.9798C290.052 68.3341 288.718 67 287.072 67Z" fill="#F1F2F7"/>
<path d="M286.569 69.3044H247.653C246.996 69.3044 246.464 69.8368 246.464 70.4936V95.7675C246.464 96.4242 246.996 96.9566 247.653 96.9566H286.569C287.226 96.9566 287.758 96.4242 287.758 95.7675V70.4936C287.758 69.8368 287.226 69.3044 286.569 69.3044Z" fill="white"/>
<path opacity="0.0468517" fill-rule="evenodd" clip-rule="evenodd" d="M247.653 69.3044H286.61C287.244 69.3044 287.758 69.8183 287.758 70.4521L246.464 95.8323V70.4936C246.464 69.8368 246.996 69.3044 247.653 69.3044Z" fill="#5395FF"/>
<path fill-rule="evenodd" clip-rule="evenodd" d="M273.601 100.424H264.645L264.903 101.296L273.882 101.378L273.601 100.424Z" fill="#DBDEE7"/>
<path fill-rule="evenodd" clip-rule="evenodd" d="M202.875 110.783H251.051C251.051 112.692 249.387 114.239 247.333 114.239H206.608C204.554 114.239 202.889 112.692 202.889 110.783H202.875Z" fill="#09B291"/>
<path fill-rule="evenodd" clip-rule="evenodd" d="M226.296 123.345C223.651 123.187 221.427 121.3 220.831 118.711L216.813 97.312L209.125 70.6341C208.778 69.4338 207.692 68.6003 206.446 68.5789H191.847C190.962 68.594 190.136 69.0215 189.611 69.7352C189.085 70.4489 188.922 71.3673 189.168 72.2192L196.401 97.312L200.419 118.711C201.062 121.523 203.612 123.477 206.486 123.359H226.309L226.296 123.345Z" fill="#E2E3E8"/>
<path fill-rule="evenodd" clip-rule="evenodd" d="M231.95 126.651H225.037C223.319 126.651 221.927 125.41 221.927 123.881V123.364H235.075V123.831C235.09 124.577 234.766 125.296 234.178 125.826C233.59 126.357 232.787 126.654 231.95 126.651Z" fill="#818D99"/>
<path d="M229.597 126.651H226.31V155.139H229.597V126.651Z" fill="#AFB7BF"/>
<path d="M230.692 147.469H225.214V158.426H230.692V147.469Z" fill="#818D99"/>
<path fill-rule="evenodd" clip-rule="evenodd" d="M243.841 160.617H212.065C212.065 159.407 212.857 158.426 213.834 158.426H242.072C243.049 158.426 243.841 159.407 243.841 160.617Z" fill="#818D99"/>
<path fill-rule="evenodd" clip-rule="evenodd" d="M225.214 124.441C222.569 124.282 220.344 122.396 219.749 119.806L215.731 98.4077L208.043 71.7298C207.696 70.5295 206.61 69.696 205.364 69.6746H190.751C189.867 69.6897 189.04 70.1172 188.515 70.8309C187.99 71.5446 187.826 72.463 188.072 73.3149L195.305 98.4077L199.323 119.806C199.966 122.619 202.516 124.572 205.391 124.454H225.214V124.441Z" fill="#F1F2F7"/>
<path fill-rule="evenodd" clip-rule="evenodd" d="M248.297 124.445H218.441C217.275 124.376 216.385 123.342 216.452 122.137C216.519 120.931 217.519 120.011 218.685 120.08H248.297C249.467 120.08 250.415 121.06 250.415 122.27C250.415 123.479 249.467 124.459 248.297 124.459V124.445Z" fill="#F1F2F7"/>
<path d="M213.161 160.617H212.065V162.809H213.161V160.617Z" fill="#818D99"/>
<path d="M211.518 165C212.425 165 213.161 164.264 213.161 163.356C213.161 162.449 212.425 161.713 211.518 161.713C210.61 161.713 209.874 162.449 209.874 163.356C209.874 164.264 210.61 165 211.518 165Z" fill="#AFB7BF"/>
<path d="M211.518 164.356C212.07 164.356 212.518 163.909 212.518 163.356C212.518 162.804 212.07 162.356 211.518 162.356C210.965 162.356 210.518 162.804 210.518 163.356C210.518 163.909 210.965 164.356 211.518 164.356Z" fill="white"/>
<path d="M228.501 160.617H227.405V162.809H228.501V160.617Z" fill="#818D99"/>
<path d="M226.857 165C227.765 165 228.501 164.264 228.501 163.356C228.501 162.449 227.765 161.713 226.857 161.713C225.95 161.713 225.214 162.449 225.214 163.356C225.214 164.264 225.95 165 226.857 165Z" fill="#AFB7BF"/>
<path d="M226.857 164.356C227.41 164.356 227.857 163.909 227.857 163.356C227.857 162.804 227.41 162.356 226.857 162.356C226.305 162.356 225.857 162.804 225.857 163.356C225.857 163.909 226.305 164.356 226.857 164.356Z" fill="white"/>
<path d="M243.841 160.617H242.745V162.809H243.841V160.617Z" fill="#818D99"/>
<path d="M242.197 165C243.105 165 243.841 164.264 243.841 163.356C243.841 162.449 243.105 161.713 242.197 161.713C241.29 161.713 240.554 162.449 240.554 163.356C240.554 164.264 241.29 165 242.197 165Z" fill="#AFB7BF"/>
<path d="M242.197 164.356C242.75 164.356 243.197 163.909 243.197 163.356C243.197 162.804 242.75 162.356 242.197 162.356C241.645 162.356 241.197 162.804 241.197 163.356C241.197 163.909 241.645 164.356 242.197 164.356Z" fill="white"/>
<path fill-rule="evenodd" clip-rule="evenodd" d="M196.726 104.939L196.888 105.63H217.544L217.381 104.939H196.726Z" fill="#E0E0E0"/>
<path fill-rule="evenodd" clip-rule="evenodd" d="M219.735 115.485L219.573 114.806H198.917L199.08 115.485H219.735Z" fill="#E0E0E0"/>
<path fill-rule="evenodd" clip-rule="evenodd" d="M195.63 99.4609L195.779 100.151H216.448L216.286 99.4609H195.63Z" fill="#E0E0E0"/>
<path fill-rule="evenodd" clip-rule="evenodd" d="M197.821 109.328L197.984 110.007H218.64L218.477 109.328H197.821Z" fill="#E0E0E0"/>
<path fill-rule="evenodd" clip-rule="evenodd" d="M193.438 89.5999L193.681 90.2901H214.257L214.014 89.5999H193.438Z" fill="#E0E0E0"/>
<path fill-rule="evenodd" clip-rule="evenodd" d="M191.247 84.1267L191.49 84.806H212.065L211.809 84.1267H191.247Z" fill="#E0E0E0"/>
<path fill-rule="evenodd" clip-rule="evenodd" d="M194.534 93.988L194.777 94.6674H215.352L215.11 93.988H194.534Z" fill="#E0E0E0"/>
<path fill-rule="evenodd" clip-rule="evenodd" d="M190.151 79.7439L190.394 80.4232H210.97L210.727 79.7439H190.151Z" fill="#E0E0E0"/>
<path fill-rule="evenodd" clip-rule="evenodd" d="M189.056 74.26L189.299 74.9503H209.874L209.631 74.26H189.056Z" fill="#E0E0E0"/>
<path d="M362 46.116C370.452 46.116 377.303 39.3218 377.303 30.9407C377.303 22.5596 370.452 15.7654 362 15.7654C353.549 15.7654 346.697 22.5596 346.697 30.9407C346.697 39.3218 353.549 46.116 362 46.116Z" fill="#DBDBDB"/>
<path d="M362.399 44.4745C370.848 44.2562 377.521 37.2873 377.305 28.9089C377.088 20.5306 370.064 13.9155 361.615 14.1338C353.166 14.3521 346.493 21.3211 346.709 29.6994C346.926 38.0778 353.95 44.6928 362.399 44.4745Z" fill="#13CCB0"/>
<mask id="mask0" mask-type="alpha" maskUnits="userSpaceOnUse" x="346" y="14" width="32" height="31">
<path d="M362 44.4727C370.452 44.4727 377.303 37.6785 377.303 29.2974C377.303 20.9163 370.452 14.1221 362 14.1221C353.549 14.1221 346.697 20.9163 346.697 29.2974C346.697 37.6785 353.549 44.4727 362 44.4727Z" fill="white"/>
</mask>
<g mask="url(#mask0)">
<path d="M362 44.4727C370.452 44.4727 377.303 37.6785 377.303 29.2974C377.303 20.9163 370.452 14.1221 362 14.1221C353.549 14.1221 346.697 20.9163 346.697 29.2974C346.697 37.6785 353.549 44.4727 362 44.4727Z" fill="#225FBF"/>
<path d="M379.143 28.8667H344.857V47H379.143V28.8667Z" fill="#5395FF"/>
</g>
<path fill-rule="evenodd" clip-rule="evenodd" d="M357.561 24.4778L357.866 24.2046L364.638 31.6548L364.332 31.928L357.561 24.4778Z" fill="#F7F7F7"/>
<path fill-rule="evenodd" clip-rule="evenodd" d="M367.64 21.3886L367.975 21.6254L360.567 31.9354L360.232 31.6987L367.64 21.3886Z" fill="white"/>
<path fill-rule="evenodd" clip-rule="evenodd" d="M382.206 54.7244C380.217 55.1275 378.851 57.8334 379.729 59.6327C380.141 60.4761 380.814 61.1527 381.475 61.8126C381.848 62.1858 382.284 62.574 382.75 62.8154C384.252 60.2745 384.246 57.0632 382.206 54.7244Z" fill="#13CCB0"/>
<path fill-rule="evenodd" clip-rule="evenodd" d="M382.711 54.6714C382.539 54.6714 382.371 54.691 382.206 54.7244C384.07 56.9759 384.252 60.2746 382.75 62.8154C383.173 63.034 383.621 63.1326 384.074 62.9843C384.578 62.819 384.95 62.3669 385.153 61.87C385.476 61.0777 385.691 59.9721 385.693 58.8649C385.696 56.7712 384.936 54.6716 382.711 54.6714Z" fill="#09B291"/>
<path fill-rule="evenodd" clip-rule="evenodd" d="M390.073 58.1819C389.689 60.9731 389.536 63.5712 387.309 65.1176C387.696 65.136 388.125 64.9584 388.417 64.6808C389.444 63.7036 390.776 62.7435 391.422 61.437C392.048 60.1695 391.259 58.6878 390.073 58.1819Z" fill="#09B291"/>
<path fill-rule="evenodd" clip-rule="evenodd" d="M390.017 58.1563C388.815 57.6803 387.559 58.1355 386.975 59.3154C386.572 60.1292 386.523 61.0695 386.481 61.9787C386.456 62.5093 386.432 63.0398 386.407 63.5703C386.387 64.0104 386.383 64.4999 386.672 64.8286C386.839 65.0181 387.066 65.1062 387.309 65.1176C389.536 63.5713 390.098 60.8028 390.073 58.1819C390.054 58.1739 390.036 58.1639 390.017 58.1563Z" fill="#13CCB0"/>
<path fill-rule="evenodd" clip-rule="evenodd" d="M384.891 72.1945C383.893 72.2952 382.841 72.0335 382.063 71.4085C381.079 70.6188 380.685 69.0505 380.392 67.8693C379.684 65.0109 381.431 62.0837 384.445 62.084C386.944 62.084 388.4 63.9117 388.458 66.349C388.492 67.74 388.202 69.2603 387.57 70.4995C387.051 71.5169 386.005 72.082 384.891 72.1945Z" fill="#13CCB0"/>
<path fill-rule="evenodd" clip-rule="evenodd" d="M389.884 72.904H378.526C378.379 72.904 378.261 72.7837 378.261 72.6352V70.8025C378.261 70.6538 378.379 70.5337 378.526 70.5337H389.884C390.031 70.5337 390.15 70.6538 390.15 70.8025V72.6352C390.15 72.7837 390.031 72.904 389.884 72.904Z" fill="white"/>
<path fill-rule="evenodd" clip-rule="evenodd" d="M385.204 58.9148C385.205 59.0877 385.47 59.0879 385.469 58.9148C385.47 58.7416 385.205 58.7416 385.204 58.9148Z" fill="#373B41"/>
<path fill-rule="evenodd" clip-rule="evenodd" d="M380.893 61.4461C380.31 60.8538 379.684 60.1932 379.394 59.3931C378.539 57.0368 381.128 53.8608 383.571 55.1302C384.894 55.818 385.2 57.5489 385.204 58.9147C385.205 58.7416 385.47 58.7416 385.469 58.9147C385.465 57.5564 385.177 55.9419 384.018 55.0935C382.864 54.2492 381.294 54.5256 380.291 55.4651C379.326 56.3687 378.738 57.8463 379.052 59.1719C379.251 60.0146 379.846 60.7289 380.421 61.3419C380.883 61.8333 381.376 62.3755 381.95 62.7613C382.084 62.752 382.096 62.5846 382.23 62.5557C381.673 62.2485 381.324 61.8859 380.893 61.4461Z" fill="#373B41"/>
<path fill-rule="evenodd" clip-rule="evenodd" d="M385.204 58.9148C385.198 59.7229 385.083 61.2759 384.512 62.2093C384.595 62.214 384.679 62.2228 384.762 62.2396C385.302 61.2562 385.462 59.788 385.468 58.9148C385.469 59.0879 385.204 59.0877 385.204 58.9148Z" fill="#373B41"/>
<path fill-rule="evenodd" clip-rule="evenodd" d="M387.966 64.6353C387.918 64.6784 387.866 64.72 387.809 64.7594C387.846 64.8543 387.859 64.9491 387.86 65.044C387.967 64.9787 388.066 64.9048 388.153 64.8254C388.029 64.9434 387.841 64.7534 387.966 64.6353Z" fill="#373B41"/>
<path fill-rule="evenodd" clip-rule="evenodd" d="M387.966 64.6354C387.841 64.7535 388.029 64.9435 388.153 64.8255C388.281 64.71 388.093 64.5203 387.966 64.6354Z" fill="#373B41"/>
<path fill-rule="evenodd" clip-rule="evenodd" d="M390.346 58.4472C389.371 57.6917 387.942 57.69 387.038 58.5621C385.955 59.6058 386.006 61.1768 385.956 62.5986C386.041 62.6706 386.122 62.7331 386.207 62.7914C386.211 62.7272 386.215 62.6625 386.218 62.5986C386.277 61.3023 386.192 59.8398 387.147 58.8304C387.941 57.9908 389.248 57.96 390.155 58.636C391.102 59.3422 391.426 60.5949 390.835 61.6377C390.143 62.8574 388.963 63.6933 387.967 64.6354C388.093 64.5203 388.281 64.71 388.154 64.8256C389.196 63.8406 390.433 62.9645 391.123 61.6647C391.718 60.543 391.321 59.2039 390.346 58.4472Z" fill="#373B41"/>
<path fill-rule="evenodd" clip-rule="evenodd" d="M379.81 57.3956C379.495 57.1683 379.179 56.9409 378.864 56.7135C378.725 56.6131 378.592 56.8464 378.73 56.9459C379.046 57.173 379.361 57.4004 379.676 57.6278C379.816 57.7282 379.948 57.4951 379.81 57.3956Z" fill="#373B41"/>
<path fill-rule="evenodd" clip-rule="evenodd" d="M382.977 55.2815C382.977 54.908 382.977 54.5345 382.977 54.161C382.977 53.9879 382.712 53.9874 382.712 54.161C382.712 54.5345 382.712 54.908 382.712 55.2815C382.712 55.4547 382.977 55.4551 382.977 55.2815Z" fill="#373B41"/>
<path fill-rule="evenodd" clip-rule="evenodd" d="M383.869 58.5973C383.968 58.3382 384.066 58.0795 384.164 57.8207C384.226 57.6589 383.97 57.5888 383.909 57.7491C383.811 58.008 383.712 58.2669 383.614 58.5257C383.552 58.6873 383.809 58.7574 383.869 58.5973Z" fill="#373B41"/>
<path fill-rule="evenodd" clip-rule="evenodd" d="M388.119 60.0154C388.119 59.7383 388.119 59.4607 388.119 59.1832C388.119 59.01 387.854 59.0098 387.854 59.1832C387.854 59.4607 387.854 59.7383 387.854 60.0154C387.854 60.1886 388.119 60.189 388.119 60.0154Z" fill="#373B41"/>
<path fill-rule="evenodd" clip-rule="evenodd" d="M389.52 61.213C389.724 61.0285 389.928 60.8438 390.132 60.6593C390.259 60.5439 390.072 60.3542 389.945 60.4689C389.741 60.6538 389.537 60.8383 389.333 61.0228C389.205 61.1384 389.393 61.3279 389.52 61.213Z" fill="#373B41"/>
<path fill-rule="evenodd" clip-rule="evenodd" d="M387.565 62.0074C387.718 61.7777 387.872 61.5477 388.025 61.318C388.121 61.1745 387.892 61.0397 387.796 61.1823C387.643 61.4122 387.49 61.642 387.336 61.8715C387.241 62.0155 387.47 62.15 387.565 62.0074Z" fill="#373B41"/>
<path fill-rule="evenodd" clip-rule="evenodd" d="M382.347 57.5408C382.287 57.2703 382.226 56.9996 382.166 56.7289C382.128 56.5602 381.872 56.6315 381.91 56.8004C381.97 57.0711 382.031 57.3416 382.091 57.6123C382.129 57.7812 382.384 57.7096 382.347 57.5408Z" fill="#373B41"/>
<path fill-rule="evenodd" clip-rule="evenodd" d="M381.124 59.1329C380.905 58.9661 380.687 58.7994 380.468 58.6329C380.332 58.5287 380.2 58.762 380.335 58.865C380.553 59.0315 380.772 59.1982 380.99 59.365C381.127 59.469 381.259 59.2354 381.124 59.1329Z" fill="#373B41"/>
<path fill-rule="evenodd" clip-rule="evenodd" d="M389.852 58.5248C389.973 58.3358 390.094 58.1464 390.215 57.9574C390.308 57.8117 390.079 57.6767 389.986 57.8217C389.865 58.0109 389.744 58.1999 389.623 58.3891C389.53 58.5346 389.76 58.6698 389.852 58.5248Z" fill="#373B41"/>
<path fill-rule="evenodd" clip-rule="evenodd" d="M390.743 59.7218C391.052 59.5899 391.361 59.4579 391.67 59.326C391.824 59.2602 391.757 58.9996 391.6 59.0669C391.29 59.1986 390.981 59.3305 390.672 59.4622C390.518 59.5285 390.585 59.7888 390.743 59.7218Z" fill="#373B41"/>
<path fill-rule="evenodd" clip-rule="evenodd" d="M390.792 60.8399C391.111 60.8399 391.43 60.8399 391.748 60.8399C391.919 60.8399 391.919 60.571 391.748 60.571C391.43 60.571 391.111 60.571 390.792 60.571C390.622 60.571 390.621 60.8399 390.792 60.8399Z" fill="#373B41"/>
<path fill-rule="evenodd" clip-rule="evenodd" d="M389.513 62.828C389.721 63.0399 389.93 63.2517 390.139 63.4634C390.259 63.5861 390.447 63.3959 390.326 63.2732C390.117 63.0615 389.909 62.8495 389.7 62.638C389.579 62.5153 389.392 62.7055 389.513 62.828Z" fill="#373B41"/>
<path fill-rule="evenodd" clip-rule="evenodd" d="M388.205 58.1732C388.205 57.9432 388.205 57.7135 388.205 57.4835C388.205 57.3106 387.939 57.3104 387.939 57.4835C387.939 57.7135 387.939 57.9432 387.939 58.1732C387.939 58.3463 388.205 58.3466 388.205 58.1732Z" fill="#373B41"/>
<path fill-rule="evenodd" clip-rule="evenodd" d="M386.874 59.125C386.672 58.9203 386.471 58.7157 386.269 58.5113C386.149 58.3886 385.961 58.5788 386.082 58.7015C386.284 58.9059 386.485 59.1105 386.687 59.3152C386.807 59.4376 386.995 59.2474 386.874 59.125Z" fill="#373B41"/>
<path fill-rule="evenodd" clip-rule="evenodd" d="M384.068 56.1748C384.318 55.9209 384.568 55.6673 384.818 55.4136C384.939 55.2912 384.751 55.1008 384.63 55.2234C384.381 55.4771 384.131 55.731 383.881 55.9847C383.76 56.1071 383.947 56.2973 384.068 56.1748Z" fill="#373B41"/>
<path fill-rule="evenodd" clip-rule="evenodd" d="M384.504 57.3616C384.897 57.3616 385.29 57.3616 385.683 57.3616C385.854 57.3616 385.854 57.093 385.683 57.093C385.29 57.093 384.897 57.093 384.504 57.093C384.333 57.093 384.333 57.3616 384.504 57.3616Z" fill="#373B41"/>
<path fill-rule="evenodd" clip-rule="evenodd" d="M379.488 58.4912C379.129 58.4912 378.771 58.4912 378.413 58.4912C378.243 58.4912 378.242 58.7603 378.413 58.7603C378.771 58.7603 379.129 58.7603 379.488 58.7603C379.658 58.7603 379.658 58.4912 379.488 58.4912Z" fill="#373B41"/>
<path fill-rule="evenodd" clip-rule="evenodd" d="M380.642 55.9847C380.406 55.7455 380.171 55.5065 379.935 55.2676C379.815 55.1451 379.627 55.3351 379.748 55.4575C379.983 55.6967 380.219 55.9359 380.455 56.1749C380.575 56.2974 380.763 56.1072 380.642 55.9847Z" fill="#373B41"/>
<path fill-rule="evenodd" clip-rule="evenodd" d="M381.952 55.3625C381.952 55.0259 381.952 54.6894 381.952 54.3528C381.952 54.1797 381.688 54.1795 381.688 54.3528C381.688 54.6894 381.688 55.0259 381.688 55.3625C381.688 55.5356 381.952 55.5359 381.952 55.3625Z" fill="#373B41"/>
<path fill-rule="evenodd" clip-rule="evenodd" d="M382.967 60.2073C382.87 59.9785 382.772 59.7497 382.675 59.5211C382.608 59.3627 382.38 59.4994 382.447 59.6569C382.544 59.8856 382.641 60.114 382.738 60.3427C382.806 60.5014 383.034 60.3645 382.967 60.2073Z" fill="#373B41"/>
<path fill-rule="evenodd" clip-rule="evenodd" d="M380.846 70.6202H381.15C380.753 70.0018 380.525 69.2612 380.336 68.5621C380.099 67.681 379.926 66.812 380.065 65.8962C380.19 65.0781 380.523 64.2859 381.055 63.6556C382.174 62.3336 384.097 61.9063 385.681 62.5683C387.29 63.2407 387.972 64.9519 387.971 66.6219C387.97 67.8854 387.723 69.1805 387.177 70.3216C387.127 70.4267 387.069 70.5241 387.009 70.6202H387.328C387.527 70.2524 387.676 69.8488 387.801 69.4573C387.987 68.8752 388.109 68.2734 388.177 67.6651C388.384 65.8183 388.042 63.7402 386.399 62.6491C384.897 61.6524 382.754 61.8156 381.379 62.9584C379.944 64.1502 379.478 66.1728 379.907 67.9546C380.124 68.8558 380.369 69.8121 380.846 70.6202Z" fill="#373B41"/>
<path fill-rule="evenodd" clip-rule="evenodd" d="M380.254 66.3948C379.945 66.3451 379.637 66.2953 379.328 66.2453C379.162 66.2186 379.09 66.4777 379.258 66.5047C379.566 66.5547 379.875 66.6044 380.183 66.6541C380.35 66.6811 380.422 66.422 380.254 66.3948Z" fill="#373B41"/>
<path fill-rule="evenodd" clip-rule="evenodd" d="M381.227 63.836C381.039 63.5779 380.851 63.32 380.663 63.062C380.563 62.9242 380.333 63.058 380.434 63.1975C380.623 63.4557 380.81 63.7138 380.998 63.972C381.099 64.1096 381.329 63.9755 381.227 63.836Z" fill="#373B41"/>
<path fill-rule="evenodd" clip-rule="evenodd" d="M388.712 66.7562C388.33 66.8607 387.949 66.9651 387.567 67.0698C387.403 67.1146 387.473 67.3742 387.638 67.3289C388.019 67.2245 388.401 67.12 388.782 67.0156C388.946 66.9706 388.876 66.711 388.712 66.7562Z" fill="#373B41"/>
<path fill-rule="evenodd" clip-rule="evenodd" d="M389.333 72.7329C388.188 72.7329 387.044 72.7329 385.9 72.7329C384.085 72.7329 382.269 72.7329 380.454 72.7329C380.033 72.7329 379.613 72.7329 379.193 72.7329C379.126 72.7329 379.053 72.7945 379.06 72.8672C379.264 75.1802 379.468 77.493 379.672 79.806C379.701 80.1356 379.73 80.4646 379.759 80.7941C379.766 80.8663 379.815 80.9286 379.892 80.9286C382.514 80.9286 385.136 80.9286 387.758 80.9286C388.128 80.9286 388.497 80.9286 388.867 80.9286C388.941 80.9286 388.995 80.8668 388.999 80.7941C389.135 78.4811 389.271 76.1683 389.407 73.8553C389.427 73.5259 389.446 73.1966 389.465 72.8672C389.476 72.6945 389.21 72.6953 389.2 72.8672C389.064 75.1802 388.928 77.493 388.792 79.806C388.773 80.1356 388.754 80.4646 388.734 80.7941C388.779 80.7493 388.822 80.7045 388.867 80.6595C386.245 80.6595 383.622 80.6595 381 80.6595C380.631 80.6595 380.261 80.6595 379.892 80.6595C379.936 80.7045 379.98 80.7493 380.024 80.7941C379.82 78.4811 379.616 76.1683 379.412 73.8553C379.383 73.5259 379.354 73.1966 379.325 72.8672C379.281 72.9122 379.237 72.957 379.193 73.0017C380.337 73.0017 381.481 73.0017 382.626 73.0017C384.441 73.0017 386.256 73.0017 388.071 73.0017C388.492 73.0017 388.912 73.0017 389.333 73.0017C389.503 73.0017 389.504 72.7329 389.333 72.7329Z" fill="#373B41"/>
<path fill-rule="evenodd" clip-rule="evenodd" d="M382.453 66.7106C382.39 66.434 382.327 66.1571 382.264 65.8805C382.225 65.7119 381.969 65.7831 382.008 65.952C382.071 66.2286 382.134 66.5055 382.198 66.7824C382.236 66.9508 382.492 66.8795 382.453 66.7106Z" fill="#373B41"/>
<path fill-rule="evenodd" clip-rule="evenodd" d="M386.039 67.1299C386.141 66.8568 386.243 66.5842 386.345 66.3111C386.406 66.1493 386.15 66.0792 386.09 66.2398C385.988 66.5126 385.886 66.7853 385.784 67.0581C385.723 67.2201 385.979 67.29 386.039 67.1299Z" fill="#373B41"/>
<path fill-rule="evenodd" clip-rule="evenodd" d="M384.527 65.3017C384.527 64.9671 384.527 64.6324 384.527 64.2978C384.527 64.1246 384.262 64.1241 384.262 64.2978C384.262 64.6324 384.262 64.9671 384.262 65.3017C384.262 65.4746 384.527 65.4749 384.527 65.3017Z" fill="#373B41"/>
<path fill-rule="evenodd" clip-rule="evenodd" d="M381.782 69.0108C381.68 68.7517 381.578 68.4926 381.475 68.2338C381.413 68.0751 381.157 68.1445 381.22 68.3051C381.322 68.5642 381.425 68.8233 381.527 69.0824C381.589 69.2411 381.846 69.1719 381.782 69.0108Z" fill="#373B41"/>
<path fill-rule="evenodd" clip-rule="evenodd" d="M384.738 69.1749C384.738 69.002 384.474 69.0018 384.474 69.1749C384.474 69.4499 384.474 69.7249 384.474 69.9998C384.474 70.1727 384.738 70.173 384.738 69.9998C384.738 69.7249 384.738 69.4499 384.738 69.1749Z" fill="#373B41"/>
<path fill-rule="evenodd" clip-rule="evenodd" d="M389.884 72.7902C388.22 72.7902 386.555 72.7902 384.891 72.7902C382.844 72.7902 380.798 72.7902 378.751 72.7902C378.535 72.7902 378.372 72.804 378.372 72.5181C378.372 71.9767 378.362 71.4343 378.372 70.8931C378.378 70.6167 378.564 70.6473 378.768 70.6473C379.088 70.6473 379.407 70.6473 379.727 70.6473C382.089 70.6473 384.451 70.6473 386.813 70.6473C387.705 70.6473 388.597 70.6473 389.49 70.6473C389.607 70.6473 389.851 70.5987 389.961 70.6684C390.101 70.7569 390.037 71.1266 390.037 71.2619C390.037 71.5816 390.037 71.9016 390.037 72.2213C390.037 72.375 390.106 72.7599 389.884 72.7902C389.743 72.8094 389.741 73.0373 389.884 73.0178C390.168 72.979 390.261 72.7834 390.261 72.5181C390.261 72.2341 390.261 71.9499 390.261 71.6659C390.261 71.2913 390.424 70.4687 389.883 70.4197C389.315 70.368 388.719 70.4197 388.149 70.4197C385.621 70.4197 383.093 70.4197 380.565 70.4197C379.897 70.4197 379.221 70.3868 378.554 70.4197C378.074 70.4434 378.148 70.9355 378.148 71.2856C378.148 71.6122 378.148 71.9388 378.148 72.2654C378.148 72.4335 378.112 72.6756 378.2 72.8281C378.331 73.0574 378.601 73.0178 378.821 73.0178C379.181 73.0178 379.542 73.0178 379.902 73.0178C381.099 73.0178 382.296 73.0178 383.492 73.0178C385.585 73.0178 387.677 73.0178 389.77 73.0178C389.808 73.0178 389.846 73.0178 389.884 73.0178C390.028 73.0178 390.028 72.7902 389.884 72.7902Z" fill="#373B41"/>
<path fill-rule="evenodd" clip-rule="evenodd" d="M329.35 81.3818V156.945H398.65V81.3818H329.35Z" fill="white" stroke="#0FC5A8" stroke-width="0.7"/>
<path fill-rule="evenodd" clip-rule="evenodd" d="M331.855 83.8H364.055V97.6516H331.855V83.8Z" fill="#0DBFA1"/>
<path fill-rule="evenodd" clip-rule="evenodd" d="M342.384 91.4001H350.616V89.4001H351.4V92.2001H350.616H342.384H341.6V89.4001H342.384V91.4001Z" fill="white"/>
<path fill-rule="evenodd" clip-rule="evenodd" d="M365.399 83.8H396.227V97.6516H365.399V83.8Z" fill="#FFA300"/>
<path fill-rule="evenodd" clip-rule="evenodd" d="M377.384 91.4001H385.616V89.4001H386.4V92.2001H385.616H377.384H376.6V89.4001H377.384V91.4001Z" fill="white"/>
<path fill-rule="evenodd" clip-rule="evenodd" d="M342.384 127.8H350.616V125.8H351.4V128.6H350.616H342.384H341.6V125.8H342.384V127.8Z" fill="#0FC5A8"/>
<path fill-rule="evenodd" clip-rule="evenodd" d="M332.149 120.55V133.702H363.649V120.55H332.149Z" stroke="#0FC5A8" stroke-width="0.7"/>
<path fill-rule="evenodd" clip-rule="evenodd" d="M365.399 120.2H396.227V134.052H365.399V120.2Z" fill="#13CCB0"/>
<path fill-rule="evenodd" clip-rule="evenodd" d="M331.8 139.8H364V153.652H331.8V139.8Z" fill="#FFA300"/>
<path fill-rule="evenodd" clip-rule="evenodd" d="M342.384 147.4H350.616V145.4H351.4V148.2H350.616H342.384H341.6V145.4H342.384V147.4Z" fill="white"/>
<path fill-rule="evenodd" clip-rule="evenodd" d="M365.75 140.15V153.302H395.878V140.15H365.75Z" fill="white" stroke="#0FC5A8" stroke-width="0.7"/>
<path fill-rule="evenodd" clip-rule="evenodd" d="M342.384 109.6H350.616V107.6H351.4V110.4H350.616H342.384H341.6V107.6H342.384V109.6Z" fill="#0FC5A8"/>
<path fill-rule="evenodd" clip-rule="evenodd" d="M377.384 109.6H385.616V107.6H386.4V110.4H385.616H377.384H376.6V107.6H377.384V109.6Z" fill="#0FC5A8"/>
<path fill-rule="evenodd" clip-rule="evenodd" d="M332.206 102.35V115.502H363.706V102.35H332.206Z" stroke="#0FC5A8" stroke-width="0.7"/>
<path fill-rule="evenodd" clip-rule="evenodd" d="M365.75 102.35V115.502H395.878V102.35H365.75Z" stroke="#0FC5A8" stroke-width="0.7"/>
<path fill-rule="evenodd" clip-rule="evenodd" d="M377.384 147.4H385.616V145.4H386.4V148.2H385.616H377.384H376.6V145.4H377.384V147.4Z" fill="#0FC5A8"/>
<path fill-rule="evenodd" clip-rule="evenodd" d="M377.384 127.8H385.616V125.8H386.4V128.6H385.616H377.384H376.6V125.8H377.384V127.8Z" fill="white"/>
</g>
<defs>
<linearGradient id="paint0_linear" x1="215.371" y1="25" x2="215.371" y2="98" gradientUnits="userSpaceOnUse">
<stop stop-color="#B0DCDD"/>
<stop offset="1" stop-color="#ECEFF1" stop-opacity="0"/>
</linearGradient>
<linearGradient id="paint1_linear" x1="225.871" y1="25" x2="225.871" y2="98" gradientUnits="userSpaceOnUse">
<stop stop-color="#89CECF"/>
<stop offset="1" stop-color="white" stop-opacity="0.5259"/>
</linearGradient>
<linearGradient id="paint2_linear" x1="175.371" y1="20" x2="175.371" y2="98" gradientUnits="userSpaceOnUse">
<stop stop-color="#B0DCDD"/>
<stop offset="1" stop-color="#ECEFF1" stop-opacity="0"/>
</linearGradient>
<linearGradient id="paint3_linear" x1="185.871" y1="20" x2="185.871" y2="98" gradientUnits="userSpaceOnUse">
<stop stop-color="#89CECF"/>
<stop offset="1" stop-color="white" stop-opacity="0.5259"/>
</linearGradient>
<linearGradient id="paint4_linear" x1="244.704" y1="40" x2="244.704" y2="98" gradientUnits="userSpaceOnUse">
<stop stop-color="#B0DCDD"/>
<stop offset="1" stop-color="#ECEFF1" stop-opacity="0"/>
</linearGradient>
<linearGradient id="paint5_linear" x1="251.205" y1="40" x2="251.205" y2="98" gradientUnits="userSpaceOnUse">
<stop stop-color="#89CECF"/>
<stop offset="1" stop-color="white" stop-opacity="0.5259"/>
</linearGradient>
<linearGradient id="paint6_linear" x1="199.482" y1="41" x2="199.482" y2="100.663" gradientUnits="userSpaceOnUse">
<stop stop-color="#B0DCDD"/>
<stop offset="1" stop-color="#ECEFF1" stop-opacity="0"/>
</linearGradient>
<linearGradient id="paint7_linear" x1="209.718" y1="41" x2="209.718" y2="95.9175" gradientUnits="userSpaceOnUse">
<stop stop-color="#89CECF"/>
<stop offset="1" stop-color="white" stop-opacity="0.5259"/>
</linearGradient>
<linearGradient id="paint8_linear" x1="233.478" y1="52" x2="233.478" y2="101.223" gradientUnits="userSpaceOnUse">
<stop stop-color="#CCEDED"/>
<stop offset="1" stop-color="#ECEFF1" stop-opacity="0"/>
</linearGradient>
<linearGradient id="paint9_linear" x1="242.245" y1="52" x2="242.245" y2="96.4324" gradientUnits="userSpaceOnUse">
<stop stop-color="#89CECF"/>
<stop offset="1" stop-color="white" stop-opacity="0.5259"/>
</linearGradient>
<linearGradient id="paint10_linear" x1="258.871" y1="57" x2="258.871" y2="98" gradientUnits="userSpaceOnUse">
<stop stop-color="#D3F3F4"/>
<stop offset="1" stop-color="#ECEFF1" stop-opacity="0"/>
</linearGradient>
<linearGradient id="paint11_linear" x1="265.871" y1="57" x2="265.871" y2="98" gradientUnits="userSpaceOnUse">
<stop stop-color="#89CECF"/>
<stop offset="1" stop-color="white" stop-opacity="0.5259"/>
</linearGradient>
<linearGradient id="paint12_linear" x1="266.838" y1="53.59" x2="266.838" y2="34" gradientUnits="userSpaceOnUse">
<stop stop-color="white" stop-opacity="0"/>
<stop offset="1" stop-color="white" stop-opacity="0.887823"/>
</linearGradient>
<clipPath id="clip0">
<rect width="470" height="170" fill="white"/>
</clipPath>
</defs>
</svg>
