<svg width="470" height="170" viewBox="0 0 470 170" fill="none" xmlns="http://www.w3.org/2000/svg">
<mask id="mask0" mask-type="alpha" maskUnits="userSpaceOnUse" x="0" y="0" width="470" height="170">
<path d="M0 5C0 2.23858 2.23858 0 5 0H465C467.761 0 470 2.23858 470 5V170H0V5Z" fill="white"/>
</mask>
<g mask="url(#mask0)">
<path d="M0 5C0 2.23858 2.23858 0 5 0H465C467.761 0 470 2.23858 470 5V170H0V5Z" fill="white"/>
<path fill-rule="evenodd" clip-rule="evenodd" d="M455.1 206.65C482.217 206.65 504.2 183.223 504.2 154.325C504.2 125.427 482.217 102 455.1 102C427.983 102 406 125.427 406 154.325C406 183.223 427.983 206.65 455.1 206.65Z" fill="#FFB825"/>
<path fill-rule="evenodd" clip-rule="evenodd" d="M1.10001 90.6499C49.204 90.6499 88.2004 49.3146 88.2004 -1.67509C88.2004 -52.6648 49.204 -94 1.10001 -94C-47.004 -94 -86 -52.6648 -86 -1.67509C-86 49.3146 -47.004 90.6499 1.10001 90.6499Z" fill="#FFB825"/>
</g>
<path d="M430 133.5H448.624" stroke="#EBECEF" stroke-width="0.5" stroke-linecap="round"/>
<path d="M445.5 130.494V133.485" stroke="#EBECEF" stroke-width="0.5" stroke-linecap="round"/>
<path d="M437.5 133.494V136.5" stroke="#EBECEF" stroke-width="0.5" stroke-linecap="round"/>
<path d="M432 136.5H445.5" stroke="#EBECEF" stroke-width="0.5" stroke-linecap="round"/>
<path d="M24.7422 38.5H43.3664" stroke="#EBECEF" stroke-width="0.5" stroke-linecap="round"/>
<path d="M40.2422 35.4941V38.4664" stroke="#EBECEF" stroke-width="0.5" stroke-linecap="round"/>
<path d="M32.2422 38.4941V41.5" stroke="#EBECEF" stroke-width="0.5" stroke-linecap="round"/>
<path d="M26.7422 41.5H40.2422" stroke="#EBECEF" stroke-width="0.5" stroke-linecap="round"/>
<path d="M357 76.5H375.624" stroke="#EBECEF" stroke-width="0.5" stroke-linecap="round"/>
<path d="M372.5 73.4941V76.6242" stroke="#EBECEF" stroke-width="0.5" stroke-linecap="round"/>
<path d="M364.5 76.4941V79.5" stroke="#EBECEF" stroke-width="0.5" stroke-linecap="round"/>
<path d="M359 79.5H372.5" stroke="#EBECEF" stroke-width="0.5" stroke-linecap="round"/>
<mask id="mask1" mask-type="alpha" maskUnits="userSpaceOnUse" x="380" y="87" width="14" height="14">
<path d="M387 101C390.866 101 394 97.866 394 94C394 90.134 390.866 87 387 87C383.134 87 380 90.134 380 94C380 97.866 383.134 101 387 101Z" fill="white"/>
</mask>
<g mask="url(#mask1)">
<path fill-rule="evenodd" clip-rule="evenodd" d="M387 101C390.866 101 394 97.866 394 94C394 90.134 390.866 87 387 87C383.134 87 380 90.134 380 94C380 97.866 383.134 101 387 101Z" fill="#FFA200"/>
<path fill-rule="evenodd" clip-rule="evenodd" d="M392.754 90.0067C390.448 94.8526 386.562 97.2756 381.095 97.2756C375.628 97.2756 373.321 97.2756 374.172 97.2756V101.531H394.613L395.687 94.95V91.3806L393.371 89L392.754 90.0067Z" fill="#FF9800"/>
<path fill-rule="evenodd" clip-rule="evenodd" d="M389 91C389.552 91 390 90.5523 390 90C390 89.4477 389.552 89 389 89C388.448 89 388 89.4477 388 90C388 90.5523 388.448 91 389 91Z" fill="white"/>
</g>
<path opacity="0.517346" d="M385 70L386.665 88.0342" stroke="#FFA200" stroke-width="0.2"/>
<path fill-rule="evenodd" clip-rule="evenodd" d="M385.786 77.4516C385.989 74.8621 386.259 73.7931 386.598 74.2446C387.107 74.9218 388.085 73.2628 387.774 74.4277C387.566 75.2042 386.904 76.2122 385.786 77.4516Z" fill="#FFA200"/>
<path fill-rule="evenodd" clip-rule="evenodd" d="M386.144 83.5371C385.06 81.7366 384.417 81.0464 384.215 81.4663C383.913 82.0962 382.579 81.3498 383.165 82.0086C383.555 82.4477 384.548 82.9572 386.144 83.5371Z" fill="#FFA200"/>
<path fill-rule="evenodd" clip-rule="evenodd" d="M389.834 79.158C391.269 77.686 392.034 77.1781 392.128 77.6344C392.27 78.3188 393.745 77.9173 393.017 78.4147C392.531 78.7463 391.47 78.994 389.834 79.158Z" fill="#FFA200"/>
<path fill-rule="evenodd" clip-rule="evenodd" d="M392 73.3582C393.477 71.8784 393.984 71.1115 393.521 71.0574C392.827 70.9764 393.098 69.4718 392.666 70.2405C392.378 70.7529 392.156 71.7921 392 73.3582Z" fill="#FFA200"/>
<path fill-rule="evenodd" clip-rule="evenodd" d="M384.891 70.056C385.545 66.9656 386.041 65.6461 386.38 66.0976C386.889 66.7748 388.132 66.5623 387.821 67.7272C387.625 68.4619 386.414 68.8806 385.063 70.195C385.012 70.245 384.955 70.1986 384.891 70.056Z" fill="#FFA200"/>
<path d="M392.173 73L386.762 87.0691" stroke="#FFCF7B" stroke-width="0.2"/>
<path d="M236 70.5H254.624" stroke="#EBECEF" stroke-width="0.5" stroke-linecap="round"/>
<path d="M251.5 67.4941V70.6242" stroke="#EBECEF" stroke-width="0.5" stroke-linecap="round"/>
<path d="M243.5 70.4941V73.5" stroke="#EBECEF" stroke-width="0.5" stroke-linecap="round"/>
<path d="M238 73.5H251.5" stroke="#EBECEF" stroke-width="0.5" stroke-linecap="round"/>
<path fill-rule="evenodd" clip-rule="evenodd" d="M456 9.52862V153H455V9.00009L466.475 0.457937C466.697 0.292761 467.01 0.337774 467.177 0.558688C467.342 0.778262 467.298 1.09039 467.079 1.25586C467.078 1.25629 467.078 1.25673 467.077 1.25716L456 9.52862Z" fill="#F9F9F9"/>
<path fill-rule="evenodd" clip-rule="evenodd" d="M0 153H456L470 159L0 158.97V153ZM0 159H470V170H0V159Z" fill="#F9F9F9"/>
<path fill-rule="evenodd" clip-rule="evenodd" d="M0 159V153H456L470 159V170H0V159Z" fill="#F9F9F9"/>
<mask id="mask2" mask-type="alpha" maskUnits="userSpaceOnUse" x="181" y="9" width="50" height="94">
<path d="M206 9C219.807 9 231 20.1929 231 34V103H181V34C181 20.1929 192.193 9 206 9Z" fill="white"/>
</mask>
<g mask="url(#mask2)">
<path fill-rule="evenodd" clip-rule="evenodd" d="M206 9C219.807 9 231 20.1929 231 34V103H181V34C181 20.1929 192.193 9 206 9Z" fill="#E8EAED"/>
<path fill-rule="evenodd" clip-rule="evenodd" d="M206 9H205V103H206V9Z" fill="white"/>
<path fill-rule="evenodd" clip-rule="evenodd" d="M231.004 56V57H181V56H231.004Z" fill="white"/>
</g>
<mask id="mask3" mask-type="alpha" maskUnits="userSpaceOnUse" x="258" y="9" width="50" height="94">
<path d="M283 9C296.807 9 308 20.1929 308 34V103H258V34C258 20.1929 269.193 9 283 9Z" fill="white"/>
</mask>
<g mask="url(#mask3)">
<path fill-rule="evenodd" clip-rule="evenodd" d="M283 9C296.807 9 308 20.1929 308 34V103H258V34C258 20.1929 269.193 9 283 9Z" fill="#E8EAED"/>
<path fill-rule="evenodd" clip-rule="evenodd" d="M283 9H282V103H283V9Z" fill="white"/>
<path fill-rule="evenodd" clip-rule="evenodd" d="M308.005 56V57H258V56H308.005Z" fill="white"/>
</g>
<path fill-rule="evenodd" clip-rule="evenodd" d="M179.143 148.21L178.343 159.056H181.053L185.35 148.21H179.143Z" fill="#D2D5D7"/>
<path fill-rule="evenodd" clip-rule="evenodd" d="M304.819 148.21L305.619 159.056H302.909L298.612 148.21H304.819Z" fill="#D2D5D7"/>
<path fill-rule="evenodd" clip-rule="evenodd" d="M176.821 123.514L179.512 100.713C180.251 95.4342 185.425 91.4629 191.567 91.4629H291.282C297.199 91.4629 302.254 95.1555 303.251 100.206L307.151 123.514H176.821Z" fill="#FFA200"/>
<path fill-rule="evenodd" clip-rule="evenodd" d="M307.262 123.494H179.358V111.278C179.417 111.278 179.474 111.277 179.532 111.277C188.794 111.277 191.455 119.049 191.455 119.049H292.713C295.727 114.773 302.258 112.206 305.208 111.223L307.262 123.494Z" fill="#FF8800"/>
<path fill-rule="evenodd" clip-rule="evenodd" d="M176.313 149.299H307.991V143.65H176.313V149.299Z" fill="#AFB7BF"/>
<path fill-rule="evenodd" clip-rule="evenodd" d="M316.405 108.69H313.531C308.382 108.69 303.507 111.109 300.48 115.267C298.312 118.244 297.243 122.088 297.243 122.088L242.034 122.964L186.824 122.088C186.824 122.088 185.754 118.244 183.587 115.267C180.56 111.109 175.684 108.69 170.537 108.69H167.662C162.185 108.69 159.689 113.739 160.869 119.078C162.314 125.615 164.111 134.119 169.079 141.169C171.446 144.527 175.362 146.456 179.475 146.456H304.592C308.705 146.456 312.622 144.527 314.988 141.169C319.957 134.119 321.753 125.615 323.197 119.078C324.378 113.739 321.882 108.69 316.405 108.69Z" fill="#FFB825"/>
<path fill-rule="evenodd" clip-rule="evenodd" d="M301.687 134.869H182.871C181.212 134.869 179.866 133.526 179.866 131.869C179.866 126.623 184.125 122.37 189.38 122.37H296.148C300.866 122.37 304.691 126.188 304.691 130.899V131.869C304.691 133.526 303.346 134.869 301.687 134.869Z" fill="#FF8800"/>
<path fill-rule="evenodd" clip-rule="evenodd" d="M239.14 133.366H182.492C181.042 133.366 179.866 132.193 179.866 130.744C179.866 126.119 183.621 122.37 188.254 122.37H239.14C240.59 122.37 241.766 123.544 241.766 124.992V130.744C241.766 132.193 240.59 133.366 239.14 133.366Z" fill="#FFA200"/>
<path fill-rule="evenodd" clip-rule="evenodd" d="M302.065 133.366H245.417C243.967 133.366 242.791 132.193 242.791 130.744V124.992C242.791 123.544 243.967 122.37 245.417 122.37H296.303C300.936 122.37 304.691 126.119 304.691 130.744C304.691 132.193 303.515 133.366 302.065 133.366Z" fill="#FFA200"/>
<path fill-rule="evenodd" clip-rule="evenodd" d="M202.253 122.263L189.117 123.275C187.647 123.388 186.364 122.291 186.251 120.824L185.456 110.545C185.342 109.078 186.442 107.797 187.911 107.683L201.047 106.671C202.517 106.558 203.8 107.655 203.913 109.123L204.708 119.401C204.822 120.868 203.722 122.15 202.253 122.263Z" fill="#F1F2F7"/>
<path opacity="0.0885417" fill-rule="evenodd" clip-rule="evenodd" d="M195.303 105.735L186.357 121.403C186.488 121.736 186.609 121.981 186.722 122.136C186.89 122.369 187.238 122.689 187.431 122.818C187.606 122.935 187.807 123.123 188.238 123.203C188.525 123.256 188.824 123.283 189.135 123.283C196.266 122.674 200.071 122.37 200.55 122.37C201.268 122.37 201.977 122.319 202.444 122.251C203.24 122.135 203.616 121.955 203.571 121.711L195.303 105.735Z" fill="url(#paint0_linear)"/>
<path fill-rule="evenodd" clip-rule="evenodd" d="M206.245 122.641L193.714 118.569C192.313 118.114 191.545 116.609 192 115.209L195.185 105.406C195.64 104.006 197.145 103.24 198.547 103.696L211.077 107.767C212.479 108.223 213.246 109.726 212.791 111.126L209.606 120.93C209.151 122.33 207.646 123.096 206.245 122.641Z" fill="#5395FF"/>
<path fill-rule="evenodd" clip-rule="evenodd" d="M239.894 160.345C193.008 160.345 155 159.669 155 158.837C155 158.432 163.979 158.065 178.594 157.794L178.512 158.913H181.222L181.686 157.739C196.884 157.485 217.364 157.33 239.894 157.33C264.662 157.33 286.955 157.518 302.474 157.818L302.907 158.913H305.617L305.541 157.881C317.57 158.141 324.789 158.474 324.789 158.837C324.789 159.669 286.78 160.345 239.894 160.345Z" fill="#EDEEF1"/>
<path opacity="0.102097" fill-rule="evenodd" clip-rule="evenodd" d="M293.878 108.688C293.979 108.693 295.399 108.683 295.5 108.688C302.502 109.036 306.581 109.2 307.739 109.178C308.914 109.156 309.37 108.464 309.11 107.1L306.586 103.096L296.418 105.973L293.878 108.688Z" fill="black"/>
<path fill-rule="evenodd" clip-rule="evenodd" d="M368.5 161.122C385.897 161.122 400 160.45 400 159.622C400 158.793 385.897 158.122 368.5 158.122C351.103 158.122 337 158.793 337 159.622C337 160.45 351.103 161.122 368.5 161.122Z" fill="#EDEEF1"/>
<path fill-rule="evenodd" clip-rule="evenodd" d="M118.482 82.9045L117.5 83.0953L131.62 155.736L132.601 155.545L118.482 82.9045Z" fill="#D2D5D7"/>
<path fill-rule="evenodd" clip-rule="evenodd" d="M116.485 83.1545L115.995 83.0591L101.642 156.031H102.366L116.485 83.1545Z" fill="#D2D5D7"/>
<path fill-rule="evenodd" clip-rule="evenodd" d="M116 83H117V157H116V83Z" fill="#D2D5D7"/>
<path fill-rule="evenodd" clip-rule="evenodd" d="M95.8256 81H140.169L140.5 83.8793C140.563 84.4279 140.169 84.9238 139.621 84.9869C139.582 84.9913 139.544 84.9935 139.506 84.9934L96.5004 84.9646C95.9481 84.9643 95.5007 84.5163 95.501 83.964C95.501 83.9272 95.5031 83.8904 95.5072 83.8538L95.8256 81Z" fill="#FF8300"/>
<path opacity="0.352934" fill-rule="evenodd" clip-rule="evenodd" d="M99.5 83H136.5L145.5 97H90.5L99.5 83Z" fill="url(#paint1_linear)"/>
<path fill-rule="evenodd" clip-rule="evenodd" d="M99.2901 66H136.71C137.729 66 138.585 66.7663 138.698 67.7791L140.5 84H95.5L97.3023 67.7791C97.4149 66.7663 98.271 66 99.2901 66Z" fill="#FFA200"/>
<path fill-rule="evenodd" clip-rule="evenodd" d="M116.616 111.169L116.975 111.516L109.352 119L108.993 118.653L116.616 111.169Z" fill="#D2D5D7"/>
<path fill-rule="evenodd" clip-rule="evenodd" d="M116.99 111.221L116.63 111.569L124.599 119.407L124.959 119.06L116.99 111.221Z" fill="#D2D5D7"/>
<path d="M135 43.5H153.624" stroke="#EBECEF" stroke-width="0.5" stroke-linecap="round"/>
<path d="M150.5 40.4941V43.6242" stroke="#EBECEF" stroke-width="0.5" stroke-linecap="round"/>
<path d="M142.5 43.4941V46.5" stroke="#EBECEF" stroke-width="0.5" stroke-linecap="round"/>
<path d="M137 46.5H150.5" stroke="#EBECEF" stroke-width="0.5" stroke-linecap="round"/>
<path d="M42 127.5H60.6242" stroke="#EBECEF" stroke-width="0.5" stroke-linecap="round"/>
<path d="M57.5 124.494V127.624" stroke="#EBECEF" stroke-width="0.5" stroke-linecap="round"/>
<path d="M49.5 127.494V130.5" stroke="#EBECEF" stroke-width="0.5" stroke-linecap="round"/>
<path d="M44 130.5H57.5" stroke="#EBECEF" stroke-width="0.5" stroke-linecap="round"/>
<path fill-rule="evenodd" clip-rule="evenodd" d="M349.641 100.375L349.376 99.5598C350.26 99.2016 351.067 98.6759 351.751 98.0116C353.002 96.8587 353.381 94.4468 352.766 93.4894C352.675 93.3167 352.51 93.1961 352.317 93.1635C351.924 93.1704 351.545 93.3145 351.246 93.5709L350.659 92.915C351.144 92.4918 351.773 92.2715 352.415 92.2998C352.854 92.3684 353.241 92.628 353.47 93.0087C354.395 94.4224 353.813 97.2661 352.317 98.6431C351.549 99.3922 350.639 99.9808 349.641 100.375Z" fill="#D8D8D8"/>
<path fill-rule="evenodd" clip-rule="evenodd" d="M351.572 92.2101L347.526 91.3953L343.481 92.2101C343.481 92.2101 343.008 95.8767 344.34 98.6308C345.673 101.385 345.844 101.389 347.526 101.483C349.213 101.405 349.384 101.405 350.712 98.6308C352.04 95.8564 351.572 92.2101 351.572 92.2101Z" fill="#E8EAED"/>
<path d="M347.526 93.1367C349.76 93.1367 351.572 92.689 351.572 92.1367C351.572 91.5844 349.76 91.1367 347.526 91.1367C345.292 91.1367 343.48 91.5844 343.48 92.1367C343.48 92.689 345.292 93.1367 347.526 93.1367Z" fill="#D8D8D8"/>
<g style="mix-blend-mode:multiply">
<path d="M347.526 93.1367C349.76 93.1367 351.572 92.689 351.572 92.1367C351.572 91.5844 349.76 91.1367 347.526 91.1367C345.292 91.1367 343.48 91.5844 343.48 92.1367C343.48 92.689 345.292 93.1367 347.526 93.1367Z" fill="#D8D8D8"/>
</g>
<g style="mix-blend-mode:screen" opacity="0.3">
<path fill-rule="evenodd" clip-rule="evenodd" d="M343.733 92.2101C343.733 91.7619 345.546 91.3952 347.779 91.3952C348.846 91.3762 349.913 91.4801 350.957 91.7049C349.835 91.4197 348.679 91.2909 347.522 91.3219C345.285 91.3219 343.477 91.6845 343.477 92.1367C343.477 92.3282 343.802 92.4993 344.344 92.6378C343.961 92.5156 343.733 92.3689 343.733 92.2101Z" fill="#9B316B"/>
</g>
<g style="mix-blend-mode:multiply" opacity="0.5">
<path d="M353.479 93.0166C353.249 92.6359 352.863 92.3764 352.424 92.3077C352.148 92.2757 351.87 92.3078 351.609 92.4014C351.609 92.2792 351.609 92.21 351.609 92.21C351.507 92.4463 350.9 92.654 350.004 92.7885C350.034 94.4246 349.715 96.0484 349.067 97.5511C347.734 100.309 347.563 100.309 345.881 100.403L345.294 100.37C345.422 100.588 345.576 100.79 345.75 100.973C345.949 101.178 346.204 101.32 346.484 101.381C346.693 101.425 346.905 101.452 347.119 101.462H347.188H347.563C348.785 101.405 349.221 101.385 349.881 100.297C350.797 99.8937 351.636 99.3355 352.362 98.647C353.821 97.274 354.404 94.4303 353.479 93.0166ZM350.574 98.92L350.717 98.6307C351.592 96.8137 351.686 94.6137 351.65 93.3344C351.849 93.2221 352.077 93.1697 352.305 93.1837C352.498 93.2163 352.663 93.3369 352.754 93.5096C353.381 94.467 352.994 96.8748 351.739 98.0318C351.376 98.3594 350.986 98.6565 350.574 98.92Z" fill="#D8D8D8"/>
</g>
<path fill-rule="evenodd" clip-rule="evenodd" d="M347.5 92.8069C349.433 92.8069 351 92.388 351 92.2499C351 92.1118 349.433 91.6138 347.5 91.6138C345.567 91.6138 344 92.1118 344 92.2499C344 92.388 345.567 92.8069 347.5 92.8069Z" fill="#FFA200"/>
<path opacity="0.367885" fill-rule="evenodd" clip-rule="evenodd" d="M347.249 91.3532C345.941 90.3061 345.496 89.0205 345.915 87.496C346.544 85.2098 344.832 83.9746 345.014 84.0004C345.193 84.0262 347.982 86.1603 347.249 87.496C346.762 88.3866 346.762 89.6722 347.249 91.3532Z" fill="#FFA200"/>
<path opacity="0.367885" fill-rule="evenodd" clip-rule="evenodd" d="M348.277 89.4796C347.741 88.6653 347.722 87.8772 348.219 87.1153C348.965 85.9722 348.24 84.9812 348.335 85.0282C348.43 85.0754 349.589 86.757 348.952 87.3584C348.529 87.7593 348.304 88.4664 348.277 89.4796Z" fill="#FFA200"/>
<path opacity="0.367885" fill-rule="evenodd" clip-rule="evenodd" d="M349.366 90.8596C349.186 90.4705 349.241 90.1389 349.532 89.8645C349.969 89.4531 349.715 88.9729 349.755 89.0012C349.795 89.0294 350.192 89.8377 349.851 90.0323C349.622 90.162 349.461 90.4377 349.366 90.8596Z" fill="#FFA200"/>
<path fill-rule="evenodd" clip-rule="evenodd" d="M399.75 101.25H340.25C339.698 101.25 339.25 101.698 339.25 102.25V115.75C339.25 116.302 339.698 116.75 340.25 116.75H399.75C400.302 116.75 400.75 116.302 400.75 115.75V102.25C400.75 101.698 400.302 101.25 399.75 101.25Z" fill="white" stroke="#FFA200" stroke-width="0.5"/>
<path fill-rule="evenodd" clip-rule="evenodd" d="M370 103H341V115H370V103Z" fill="#0FB595"/>
<path opacity="0.153576" fill-rule="evenodd" clip-rule="evenodd" d="M356 112C357.105 112 358 111.105 358 110C358 108.895 357.105 108 356 108C354.895 108 354 108.895 354 110C354 111.105 354.895 112 356 112Z" fill="black"/>
<path fill-rule="evenodd" clip-rule="evenodd" d="M356 111C357.105 111 358 110.105 358 109C358 107.895 357.105 107 356 107C354.895 107 354 107.895 354 109C354 110.105 354.895 111 356 111Z" fill="white"/>
<path fill-rule="evenodd" clip-rule="evenodd" d="M399 103H370V115H399V103Z" fill="#FFA200"/>
<path opacity="0.153576" fill-rule="evenodd" clip-rule="evenodd" d="M386 112C387.105 112 388 111.105 388 110C388 108.895 387.105 108 386 108C384.895 108 384 108.895 384 110C384 111.105 384.895 112 386 112Z" fill="black"/>
<path fill-rule="evenodd" clip-rule="evenodd" d="M386 111C387.105 111 388 110.105 388 109C388 107.895 387.105 107 386 107C384.895 107 384 107.895 384 109C384 110.105 384.895 111 386 111Z" fill="white"/>
<path fill-rule="evenodd" clip-rule="evenodd" d="M348.167 117H353.167L345.421 160L344 159.933L348.167 117Z" fill="#FFA200"/>
<path fill-rule="evenodd" clip-rule="evenodd" d="M392 117H387L394.745 160L396.167 159.933L392 117Z" fill="#FFA200"/>
<path opacity="0.15" fill-rule="evenodd" clip-rule="evenodd" d="M391.989 117L387.363 119L387 117H391.989Z" fill="black"/>
<path opacity="0.15" fill-rule="evenodd" clip-rule="evenodd" d="M353.161 117L347.971 119L348.162 117H353.161Z" fill="black"/>
<path fill-rule="evenodd" clip-rule="evenodd" d="M237.907 105.775C237.907 105.775 233.276 119.052 229.749 119.653C226.222 120.254 220.667 121.615 220.667 121.615L221.279 121.857C221.279 121.857 240.17 122.839 245.277 121.193C246.92 120.669 251.467 110.219 251.467 110.219L237.907 105.775Z" fill="#FA3F55"/>
<g style="mix-blend-mode:multiply" opacity="0.25">
<path fill-rule="evenodd" clip-rule="evenodd" d="M237.907 105.775C237.907 105.775 233.276 119.052 229.749 119.653C226.222 120.254 220.667 121.615 220.667 121.615L221.279 121.857C221.279 121.857 240.17 122.839 245.277 121.193C246.92 120.669 251.467 110.219 251.467 110.219L237.907 105.775Z" fill="#FF3934"/>
</g>
<g style="mix-blend-mode:multiply" opacity="0.61">
<path fill-rule="evenodd" clip-rule="evenodd" d="M241.255 103.208C241.255 103.208 236.451 122.667 225.917 122.146C225.917 122.146 243.264 122.828 245.556 121.2C247.847 119.572 251.1 113.053 251.1 113.053L241.255 103.208Z" fill="#FD2826"/>
</g>
<path fill-rule="evenodd" clip-rule="evenodd" d="M236.771 93.3101C246.114 94.1461 254.859 101.219 266.343 112.212C278.443 123.802 260.843 125.21 257.316 123.861C250.136 121.129 240.581 108.798 237.101 101.597C236.076 99.5442 236.126 97.1183 237.237 95.1104C237.574 94.6777 236.082 93.2477 236.771 93.3101Z" fill="#194DB0"/>
<path fill-rule="evenodd" clip-rule="evenodd" d="M217.319 120.434L236.247 93.539C236.379 93.3489 236.618 93.2647 236.841 93.33C239.286 94.0107 241.092 96.0805 241.435 98.5953C242.113 103.175 240.317 106.618 232.488 112.001C227.678 115.301 221.65 120.46 218.867 122.891C218.749 123.288 218.663 123.694 218.61 124.104C218.61 124.871 216.326 125.494 213.51 125.494C208.237 125.494 206.312 124.592 206.312 123.822C206.316 123.202 213.726 121.941 217.319 120.434Z" fill="#F2B779"/>
<g style="mix-blend-mode:multiply" opacity="0.39">
<path fill-rule="evenodd" clip-rule="evenodd" d="M217.323 120.434L236.25 93.535C236.38 93.3481 236.615 93.2653 236.833 93.3297C239.282 94.0093 241.091 96.0809 241.435 98.5987C242.113 103.178 240.317 106.621 232.488 112.004C227.678 115.304 221.65 120.463 218.867 122.894C218.749 123.291 218.663 123.697 218.61 124.108C218.61 124.874 216.326 125.497 213.51 125.497C208.237 125.497 206.312 124.595 206.312 123.825C206.319 123.202 213.73 121.941 217.323 120.434Z" fill="#FAB48C"/>
</g>
<path fill-rule="evenodd" clip-rule="evenodd" d="M221.1 115.052L236.239 93.5465C236.376 93.3507 236.622 93.2637 236.852 93.3302C239.291 94.0141 241.092 96.0814 241.435 98.5919C242.113 103.172 240.317 106.615 232.488 111.997C229.823 113.831 226.787 116.225 224.136 118.414" fill="#225FBF"/>
<g style="mix-blend-mode:multiply" opacity="0.3">
<path fill-rule="evenodd" clip-rule="evenodd" d="M236.276 93.599C236.355 93.4901 236.469 93.4122 236.599 93.379C236.617 93.3277 236.669 93.302 236.771 93.3093C246.114 94.1453 254.859 101.218 266.343 112.211C278.443 123.801 260.843 125.209 257.316 123.86C251.449 121.627 243.976 112.966 239.554 105.945C238.135 107.778 235.888 109.732 232.533 112.039C229.867 113.872 226.831 116.266 224.18 118.455L221.151 115.097C227.044 106.722 231.463 100.441 234.409 96.2534C234.824 95.6636 235.446 94.7788 236.276 93.599Z" fill="#225FBF"/>
</g>
<path fill-rule="evenodd" clip-rule="evenodd" d="M238.238 93.3096C247.581 94.1456 256.326 101.219 267.81 112.211C279.91 123.802 262.31 125.21 258.782 123.86C251.603 121.129 242.048 108.798 238.568 101.596C237.555 99.6406 237.776 97.2737 239.133 95.539C239.463 95.1063 237.541 93.2473 238.238 93.3096Z" fill="#FAB48C"/>
<path fill-rule="evenodd" clip-rule="evenodd" d="M238.466 93.3081L216.609 124.035L219.175 124.236C219.175 124.236 227.847 116.43 234.322 111.99C242.151 106.611 243.947 103.164 243.269 98.5844C242.954 95.9825 241.027 93.8651 238.466 93.3081Z" fill="#FAB48C"/>
<path fill-rule="evenodd" clip-rule="evenodd" d="M208.008 123.986C208.008 124.753 209.933 125.658 215.206 125.658C218.022 125.658 220.306 125.035 220.306 124.269C220.306 123.502 222.407 117.174 220.787 119.476C219.375 121.482 208.008 123.205 208.008 123.986Z" fill="#FAB48C"/>
<path fill-rule="evenodd" clip-rule="evenodd" d="M238.15 93.3112C238.3 93.3112 238.209 93.307 238.238 93.3112C247.581 94.1472 256.326 101.22 267.81 112.213C279.91 123.803 262.31 125.211 258.782 123.862C252.916 121.629 245.443 112.968 241.021 105.947C239.602 107.78 237.354 109.734 233.999 112.041C230.956 114.131 224.539 119.374 224.539 119.374L222.145 115.744C222.145 115.744 238 93.3112 238.15 93.3112Z" fill="#5395FF"/>
<g style="mix-blend-mode:multiply" opacity="0.15">
<path fill-rule="evenodd" clip-rule="evenodd" d="M223.623 117.838C226.149 115.547 229.149 113.105 231.99 111.458C237.094 108.507 240.79 102.464 240.79 102.475C241.384 103.164 254.053 118.861 265.082 118.814C267.333 118.694 269.541 118.156 271.594 117.226C274.414 124.193 261.727 124.999 258.779 123.877C252.912 121.644 245.44 112.984 241.018 105.962C239.599 107.795 237.351 109.75 233.996 112.056C230.953 114.146 227.425 116.977 224.536 119.389" fill="#843BFA"/>
</g>
<path fill-rule="evenodd" clip-rule="evenodd" d="M301.632 92.0607C301.632 92.0607 300.507 92.9378 298.543 93.9137C296.578 94.8916 291.687 97.319 293.672 100.418C295.657 103.516 296.948 104.733 298.18 104.858C299.412 104.983 305.819 104.233 307.239 101.268C308.658 98.3027 308.575 90.4093 301.632 92.0607Z" fill="#F8C6B5"/>
<path fill-rule="evenodd" clip-rule="evenodd" d="M304.609 96.0258C303.405 95.1246 301.657 94.9633 300.743 93.7729C300 92.806 300.109 91.2931 300.984 90.4379C301.652 89.7856 302.663 89.5446 303.583 89.702C304.505 89.8612 305.334 90.383 305.975 91.0594C306.616 91.7348 307.078 92.5575 307.453 93.4075C308.034 94.7144 308.425 96.1257 308.396 97.5546C308.378 98.4609 308.181 99.3693 307.785 100.189C307.485 100.807 306.832 101.988 306.014 101.984C305.207 101.981 305.223 101.276 305.502 100.771C305.925 99.9993 306.164 99.276 306.025 98.3786C305.882 97.4525 305.363 96.5894 304.609 96.0258Z" fill="#1B2644"/>
<path fill-rule="evenodd" clip-rule="evenodd" d="M297.064 106.237C297.379 105.829 297.772 105.419 297.968 104.923C298.219 104.284 297.822 103.726 297.536 103.167C296.985 102.091 295.419 100.31 294.796 101.438C293.541 103.715 290.456 105.338 290.456 105.338C290.979 107.107 291.618 108.26 292.84 109.623C292.84 109.623 294.845 109.105 297.064 106.237Z" fill="#F8C6B5"/>
<path fill-rule="evenodd" clip-rule="evenodd" d="M296.248 107.471C296.076 107.278 295.838 107.172 295.593 107.162C295.332 107.151 295.095 107.317 294.996 107.56L294.913 107.764C294.913 107.764 294.139 106.235 291.206 106.893C289.551 107.266 287.061 106.88 283.984 108.516C281.495 109.839 278.357 110.409 275.81 110.483C269.965 110.654 267.09 108.014 267.09 108.014C267.09 108.014 266.236 107.487 264.873 108.784C263.511 110.081 258.939 119.951 259.014 121.792C259.091 123.634 261.438 126.159 264.648 126.58C268.691 127.11 274.021 127.725 281.725 125.192C283.732 124.532 297.903 118.717 298.146 115.315C298.146 115.315 299.102 113.252 298.631 112.52C298.631 112.52 299.001 112.533 299.359 112.328C299.786 112.081 299.862 111.493 299.533 111.127L296.248 107.471Z" fill="#0FB595"/>
<path fill-rule="evenodd" clip-rule="evenodd" d="M298.617 115.246C298.617 115.246 299.571 113.185 299.102 112.453C298.957 112.379 298.82 112.293 298.69 112.194C298.51 112.909 298.195 113.605 297.716 114.251C295.505 117.228 290.962 118.496 287.46 118.939C287.022 118.995 286.586 118.966 286.185 118.855C285.908 118.959 285.63 119.061 285.354 119.165C285.931 118.947 284.63 119.437 284.452 119.5C282.666 120.134 280.84 120.509 278.95 120.635C272.556 121.061 267.423 116.464 263.482 111.716C261.671 115.178 259.433 120.43 259.486 121.725C259.562 123.565 261.909 126.09 265.119 126.511C269.161 127.042 274.492 127.657 282.196 125.124C284.202 124.463 298.374 118.649 298.617 115.246Z" fill="#0DA98B"/>
<path fill-rule="evenodd" clip-rule="evenodd" d="M290.374 101.629C289.618 102.039 289.016 102.972 288.022 104.09C287.57 104.599 287.896 105.609 288.141 106.241C288.992 108.441 292.234 113.263 304.204 112.392C304.818 112.348 305.236 111.831 305.288 111.215C305.288 111.215 307.428 107.36 302.005 105.262C302.005 105.262 298.164 106.661 294.226 102.277C293.56 101.536 291.934 100.783 290.374 101.629Z" fill="#E8312C"/>
<path fill-rule="evenodd" clip-rule="evenodd" d="M266.676 105.392C267.279 105.406 267.868 105.576 268.387 105.885C270.376 107.065 274.914 110.375 274.508 115.526C274.128 120.33 282.584 122.29 287.936 124.443C288.934 124.851 289.615 125.787 289.693 126.86C289.772 127.933 289.236 128.958 288.308 129.505C285.238 131.326 280.855 133.373 277.583 132.726C273.149 131.842 270.223 132.786 267.374 133.48C265.989 133.817 264.57 134.725 261.715 133.606C258.86 132.486 257.283 129.624 257.338 124.61C257.474 110.8 258.413 104.118 253.441 99.4519C253.441 99.4519 258.538 103.321 261.551 104.444C263.199 105.028 264.928 105.348 266.676 105.392Z" fill="#FF3934"/>
<g style="mix-blend-mode:multiply" opacity="0.4">
<path fill-rule="evenodd" clip-rule="evenodd" d="M262.146 122.685C263.213 127.586 265.39 130.033 268.417 130.492C271.444 130.951 272.637 129.75 273.913 129.119C276.537 127.821 279.182 126.245 283.703 126.126C285.181 126.089 286.756 125.481 288.278 124.606C289.154 125.11 289.695 126.041 289.7 127.05C289.704 128.059 289.172 128.994 288.3 129.506C285.231 131.326 280.847 133.374 277.576 132.727C273.142 131.843 270.215 132.787 267.367 133.481C265.981 133.818 264.563 134.726 261.708 133.607C258.853 132.487 257.276 129.624 257.331 124.611C257.466 110.8 258.405 104.119 253.433 99.4526C253.433 99.4526 253.811 99.731 254.419 100.179C258.78 103.908 259.507 110.567 262.146 122.685Z" fill="#FA3F55"/>
</g>
<path d="M289.212 107.186C289.212 107.186 294.937 112.135 301.105 112.742M303.399 106.48C303.399 106.48 299.494 108.337 292.602 102.91L303.399 106.48Z" stroke="#D02C27" stroke-width="0.5"/>
<path fill-rule="evenodd" clip-rule="evenodd" d="M273.534 112.793C273.534 112.793 256.841 104.969 256.693 103.597C256.424 101.132 252.871 98.023 252.161 98.9249C251.85 99.3217 253.501 100.648 253.803 101.467C254.174 102.465 254.371 104.008 255.734 105.413C256.78 106.492 270.498 116.5 270.498 116.5L273.534 112.793Z" fill="#F3BCA9"/>
<path fill-rule="evenodd" clip-rule="evenodd" d="M265.349 92.237C264.064 90.6656 264.264 88.3114 265.795 86.9784C267.326 85.6453 269.609 85.8387 270.894 87.41L286.877 106.954C287.672 107.924 288.175 109.112 288.329 110.374C288.48 111.602 288.969 112.756 289.741 113.7L291.662 116.049C292.227 116.74 292.138 117.775 291.466 118.36C290.791 118.949 289.783 118.86 289.22 118.164L287.393 115.907C286.637 114.974 285.639 114.282 284.514 113.912L284.304 113.844C283.158 113.467 282.139 112.766 281.365 111.818L265.349 92.237Z" fill="white"/>
<path fill-rule="evenodd" clip-rule="evenodd" d="M290.303 118.31C290.464 118.306 290.624 118.248 290.757 118.134L291.25 117.703C291.556 117.436 291.596 116.967 291.34 116.653L269.143 89.5136C268.997 89.3357 268.788 89.2463 268.577 89.2505C268.418 89.2538 268.257 89.3119 268.125 89.4272L267.631 89.8572C267.326 90.1233 267.286 90.5933 267.542 90.9069L289.739 118.047C289.884 118.224 290.094 118.314 290.303 118.31Z" fill="#E8EAED"/>
<path fill-rule="evenodd" clip-rule="evenodd" d="M290.303 117.211L290.514 117.027C290.644 116.913 290.662 116.711 290.552 116.577L274.961 97.4666C274.851 97.3321 274.656 97.3158 274.525 97.4296L274.313 97.6138C274.182 97.7281 274.166 97.9294 274.275 98.0639L289.866 117.174C289.976 117.309 290.171 117.325 290.303 117.211Z" fill="#EA4335"/>
<path fill-rule="evenodd" clip-rule="evenodd" d="M277.332 98.2832L278.502 97.2647C278.589 97.1886 278.601 97.0544 278.527 96.9648L278.409 96.8199C278.336 96.7305 278.205 96.7193 278.118 96.7954L276.948 97.8138C276.861 97.8899 276.85 98.0243 276.923 98.1138L277.041 98.2587C277.115 98.3485 277.245 98.3593 277.332 98.2832Z" fill="#AFB7BF"/>
<path fill-rule="evenodd" clip-rule="evenodd" d="M281.981 103.981L283.15 102.962C283.239 102.886 283.249 102.752 283.175 102.662L283.058 102.517C282.984 102.428 282.855 102.417 282.766 102.493L281.597 103.511C281.509 103.587 281.498 103.721 281.572 103.811L281.69 103.956C281.764 104.046 281.893 104.056 281.981 103.981Z" fill="#AFB7BF"/>
<path fill-rule="evenodd" clip-rule="evenodd" d="M272.685 92.5864L273.855 91.5677C273.941 91.4915 273.954 91.3575 273.88 91.2677L273.761 91.1229C273.688 91.0334 273.557 91.0222 273.471 91.0983L272.301 92.117C272.213 92.1928 272.202 92.3272 272.275 92.4167L272.394 92.5616C272.468 92.6513 272.597 92.6622 272.685 92.5864Z" fill="#AFB7BF"/>
<path fill-rule="evenodd" clip-rule="evenodd" d="M266.514 92.4598C266.785 92.454 267.041 92.1076 266.814 91.8254C266.315 91.2013 265.919 90.4309 266.037 89.5944C266.15 88.8055 266.704 88.2101 267.314 87.7708C267.639 87.538 267.372 87.1031 267.049 87.1098C266.978 87.1112 266.905 87.1337 266.835 87.1844C266.056 87.7439 265.429 88.5406 265.294 89.5316C265.154 90.5671 265.621 91.5471 266.242 92.3229C266.321 92.4219 266.419 92.4618 266.514 92.4598Z" fill="#E8EAED"/>
<path fill-rule="evenodd" clip-rule="evenodd" d="M267.399 93.3794C267.491 93.3777 267.582 93.3446 267.657 93.2791C267.83 93.1279 267.853 92.8609 267.708 92.6827C267.625 92.5817 267.506 92.5309 267.387 92.5335C267.296 92.5354 267.205 92.5683 267.13 92.6339C266.956 92.7851 266.933 93.0521 267.079 93.2301C267.162 93.3312 267.281 93.382 267.399 93.3794Z" fill="#E8EAED"/>
<path fill-rule="evenodd" clip-rule="evenodd" d="M273.897 112.638L274.14 112.579C277.395 111.868 290.748 110.001 290.748 110.001C290.748 110.001 294.066 116.231 290.833 117.329C287.868 118.338 274.885 118.294 271.787 117.233C269.723 116.526 266.366 114.07 261.718 109.866L266.78 109.782L273.897 112.638Z" fill="#F3BCA9"/>
<path fill-rule="evenodd" clip-rule="evenodd" d="M310.115 92.1224C311.443 93.1506 312.14 94.9259 311.872 96.5854C311.734 97.4288 311.366 98.2611 311.489 99.1062C311.65 100.218 312.601 101.019 313.178 101.981C314.053 103.444 314.018 105.401 313.089 106.841C311.21 109.759 306.655 109.924 304.696 112.791C303.804 114.095 303.618 115.74 303.562 117.314C303.505 118.886 303.544 120.499 303.015 121.986C302.487 123.472 301.225 124.835 299.646 124.934C298.516 125.006 296.156 124.904 295.205 124.303C294.144 123.634 291.555 121.778 290.666 120.896C288.609 118.855 286.369 112.09 288.84 109.337C289.211 105.806 296.671 105.247 297.96 102.894C298.62 101.688 299.895 100.961 300.824 99.9436C300.889 99.8719 300.952 99.7994 301.014 99.7251C301.928 98.6171 302.124 97.3889 302.222 96.0128C302.294 94.9838 302.817 93.8186 303.437 93.0105C303.931 92.3655 304.585 91.8404 305.333 91.5191C306.885 90.8546 308.788 91.0952 310.115 92.1224Z" fill="#1B2644"/>
<defs>
<linearGradient id="paint0_linear" x1="189.865" y1="124.751" x2="195.519" y2="115.33" gradientUnits="userSpaceOnUse">
<stop stop-color="white" stop-opacity="0"/>
<stop offset="1"/>
</linearGradient>
<linearGradient id="paint1_linear" x1="118" y1="67.3199" x2="118" y2="94.6074" gradientUnits="userSpaceOnUse">
<stop stop-color="#FFB825"/>
<stop offset="1" stop-color="#FFB825" stop-opacity="0"/>
</linearGradient>
</defs>
</svg>
