<svg width="470" height="170" viewBox="0 0 470 170" fill="none" xmlns="http://www.w3.org/2000/svg">
<g clip-path="url(#clip0)">
<mask id="mask0" mask-type="alpha" maskUnits="userSpaceOnUse" x="0" y="0" width="470" height="170">
<path fill-rule="evenodd" clip-rule="evenodd" d="M0 5C0 2.23858 2.23858 0 5 0H465C467.761 0 470 2.23858 470 5V170H0V5Z" fill="white"/>
</mask>
<g mask="url(#mask0)">
<path fill-rule="evenodd" clip-rule="evenodd" d="M1.10001 90.6499C49.204 90.6499 88.2004 49.3146 88.2004 -1.67509C88.2004 -52.6648 49.204 -94 1.10001 -94C-47.004 -94 -86 -52.6648 -86 -1.67509C-86 49.3146 -47.004 90.6499 1.10001 90.6499Z" fill="#15499E"/>
</g>
<path fill-rule="evenodd" clip-rule="evenodd" d="M455.1 206.65C482.217 206.65 504.2 183.223 504.2 154.325C504.2 125.427 482.217 102 455.1 102C427.983 102 406 125.427 406 154.325C406 183.223 427.983 206.65 455.1 206.65Z" fill="#15499E"/>
<path d="M430 133.5H448.624" stroke="#EBECEF" stroke-width="0.5" stroke-linecap="round"/>
<path d="M445.5 130.494V133.485" stroke="#EBECEF" stroke-width="0.5" stroke-linecap="round"/>
<path d="M437.5 133.494V136.5" stroke="#EBECEF" stroke-width="0.5" stroke-linecap="round"/>
<path d="M432 136.5H445.5" stroke="#EBECEF" stroke-width="0.5" stroke-linecap="round"/>
<path d="M21.7422 34.5H40.3664" stroke="#EBECEF" stroke-width="0.5" stroke-linecap="round"/>
<path d="M37.2422 31.4941V34.4665" stroke="#EBECEF" stroke-width="0.5" stroke-linecap="round"/>
<path d="M29.2422 34.4941V37.5" stroke="#EBECEF" stroke-width="0.5" stroke-linecap="round"/>
<path d="M23.7422 37.5H37.2422" stroke="#EBECEF" stroke-width="0.5" stroke-linecap="round"/>
<path d="M326 81.5H344.624" stroke="#EBECEF" stroke-width="0.5" stroke-linecap="round"/>
<path d="M341.5 78.4941V81.6242" stroke="#EBECEF" stroke-width="0.5" stroke-linecap="round"/>
<path d="M333.5 81.4941V84.5" stroke="#EBECEF" stroke-width="0.5" stroke-linecap="round"/>
<path d="M328 84.5H341.5" stroke="#EBECEF" stroke-width="0.5" stroke-linecap="round"/>
<path fill-rule="evenodd" clip-rule="evenodd" d="M456 9.52862V153H455V9.00009L466.475 0.457937C466.697 0.292762 467.01 0.337774 467.177 0.558688C467.342 0.778262 467.298 1.0904 467.079 1.25586C467.078 1.25629 467.078 1.25673 467.077 1.25716L456 9.52862Z" fill="#F9F9F9"/>
<path fill-rule="evenodd" clip-rule="evenodd" d="M0 153H456L470 159L0 158.97L0 153ZM0 159H470V170H0V159Z" fill="#F9F9F9"/>
<path fill-rule="evenodd" clip-rule="evenodd" d="M0 159V153H456L470 159V170H0V159Z" fill="#F9F9F9"/>
<path fill-rule="evenodd" clip-rule="evenodd" d="M139.5 163C156.897 163 171 162.328 171 161.5C171 160.671 156.897 160 139.5 160C122.103 160 108 160.671 108 161.5C108 162.328 122.103 163 139.5 163Z" fill="#EDEEF1"/>
<path fill-rule="evenodd" clip-rule="evenodd" d="M209 166C217.837 166 225 165.552 225 165C225 164.447 217.837 164 209 164C200.163 164 193 164.447 193 165C193 165.552 200.163 166 209 166Z" fill="#EDEEF1"/>
<path fill-rule="evenodd" clip-rule="evenodd" d="M310.5 163C327.897 163 342 162.328 342 161.5C342 160.671 327.897 160 310.5 160C293.103 160 279 160.671 279 161.5C279 162.328 293.103 163 310.5 163Z" fill="#EDEEF1"/>
<path d="M92 73.5H110.624" stroke="#EBECEF" stroke-width="0.5" stroke-linecap="round"/>
<path d="M107.5 70.4941V73.6242" stroke="#EBECEF" stroke-width="0.5" stroke-linecap="round"/>
<path d="M99.5 73.4941V76.5" stroke="#EBECEF" stroke-width="0.5" stroke-linecap="round"/>
<path d="M94 76.5H107.5" stroke="#EBECEF" stroke-width="0.5" stroke-linecap="round"/>
<path d="M42 127.5H60.6242" stroke="#EBECEF" stroke-width="0.5" stroke-linecap="round"/>
<path d="M57.5 124.494V127.624" stroke="#EBECEF" stroke-width="0.5" stroke-linecap="round"/>
<path d="M49.5 127.494V130.5" stroke="#EBECEF" stroke-width="0.5" stroke-linecap="round"/>
<path d="M44 130.5H57.5" stroke="#EBECEF" stroke-width="0.5" stroke-linecap="round"/>
<path d="M386 49.116C394.452 49.116 401.303 42.3218 401.303 33.9407C401.303 25.5596 394.452 18.7654 386 18.7654C377.549 18.7654 370.697 25.5596 370.697 33.9407C370.697 42.3218 377.549 49.116 386 49.116Z" fill="#DBDBDB"/>
<path d="M386.399 47.4745C394.848 47.2562 401.521 40.2873 401.305 31.9089C401.088 23.5306 394.064 16.9155 385.615 17.1338C377.166 17.3521 370.493 24.3211 370.709 32.6994C370.926 41.0778 377.95 47.6928 386.399 47.4745Z" fill="#13CCB0"/>
<mask id="mask1" mask-type="alpha" maskUnits="userSpaceOnUse" x="370" y="17" width="32" height="31">
<path d="M386 47.4727C394.452 47.4727 401.303 40.6785 401.303 32.2974C401.303 23.9163 394.452 17.1221 386 17.1221C377.549 17.1221 370.697 23.9163 370.697 32.2974C370.697 40.6785 377.549 47.4727 386 47.4727Z" fill="white"/>
</mask>
<g mask="url(#mask1)">
<path d="M386 47.4727C394.452 47.4727 401.303 40.6785 401.303 32.2974C401.303 23.9163 394.452 17.1221 386 17.1221C377.549 17.1221 370.697 23.9163 370.697 32.2974C370.697 40.6785 377.549 47.4727 386 47.4727Z" fill="white" stroke="#FFA200" stroke-width="0.5"/>
</g>
<mask id="mask2" mask-type="alpha" maskUnits="userSpaceOnUse" x="373" y="20" width="26" height="25">
<path d="M386 44.4727C392.795 44.4727 398.303 39.0217 398.303 32.2974C398.303 25.5732 392.795 20.1221 386 20.1221C379.205 20.1221 373.697 25.5732 373.697 32.2974C373.697 39.0217 379.205 44.4727 386 44.4727Z" fill="white"/>
</mask>
<g mask="url(#mask2)">
<path d="M386 44.4727C392.795 44.4727 398.303 39.0217 398.303 32.2974C398.303 25.5732 392.795 20.1221 386 20.1221C379.205 20.1221 373.697 25.5732 373.697 32.2974C373.697 39.0217 379.205 44.4727 386 44.4727Z" fill="#5395FF"/>
</g>
<path fill-rule="evenodd" clip-rule="evenodd" d="M381.561 27.4778L381.866 27.2046L388.638 34.6548L388.332 34.928L381.561 27.4778Z" fill="white"/>
<path fill-rule="evenodd" clip-rule="evenodd" d="M391.64 24.3886L391.975 24.6254L384.567 34.9354L384.232 34.6987L391.64 24.3886Z" fill="white"/>
<g opacity="0.542853">
<g opacity="0.542853">
<mask id="mask3" mask-type="alpha" maskUnits="userSpaceOnUse" x="163" y="17" width="148" height="128">
<g opacity="0.542853">
<path opacity="0.542853" d="M301 17H173C167.477 17 163 21.4772 163 27V135C163 140.523 167.477 145 173 145H301C306.523 145 311 140.523 311 135V27C311 21.4772 306.523 17 301 17Z" fill="white"/>
</g>
</mask>
<g mask="url(#mask3)">
<path opacity="0.6" d="M301 17H173C167.477 17 163 21.4772 163 27V135C163 140.523 167.477 145 173 145H301C306.523 145 311 140.523 311 135V27C311 21.4772 306.523 17 301 17Z" fill="#0062FF"/>
<g opacity="0.496698">
<g opacity="0.496698">
<g opacity="0.496698">
<path opacity="0.496698" fill-rule="evenodd" clip-rule="evenodd" d="M-9.37186 122.11C-10.5979 120.973 -10.534 119.018 -9.25972 117.942C-3.54766 113.117 13.4335 101.34 42.7085 101.768C79.491 102.305 154.547 101.341 186.763 103.871C215.528 106.131 242.144 112.276 247.514 113.566C248.089 113.705 248.49 114.225 248.483 114.819L248.481 115.038C248.469 116 247.954 116.882 247.12 117.354C241.355 120.614 216.576 132.56 164.148 131.794C103.478 130.908 22.9081 131.941 9.82833 130.203C-0.12247 128.88 -6.17427 125.075 -9.37186 122.11Z" fill="#75A9FF"/>
<path opacity="0.496698" fill-rule="evenodd" clip-rule="evenodd" d="M242.245 117.906L238.491 114.906C232.551 115.194 226.066 115.413 220.96 115.338C210.834 115.189 205.862 113.235 204.244 112.437L221.658 121.98C230.007 120.721 236.902 119.278 242.245 117.906Z" fill="#4773BB"/>
<path opacity="0.496698" fill-rule="evenodd" clip-rule="evenodd" d="M43.0772 104.521C22.6658 104.222 7.10966 108.757 -2.37973 113.165C6.1882 107.844 21.2072 101.333 43.1116 101.652C71.1122 102.061 121.293 101.6 157.869 102.473C169.341 102.746 179.474 103.151 187.166 103.755C212.651 105.757 236.447 110.809 245.277 112.832C232.667 111.051 208.895 108.334 187.131 106.625C154.916 104.094 79.8596 105.058 43.0772 104.521Z" fill="#8EB9FF"/>
<path opacity="0.496698" fill-rule="evenodd" clip-rule="evenodd" d="M228.945 124.764C215.433 128.64 194.495 132.359 164.509 131.921C154.17 131.77 143.258 131.675 132.196 131.612C143.258 131.675 154.17 131.77 164.509 131.921C194.495 132.359 215.433 128.639 228.945 124.764Z" fill="#52BED0"/>
<path opacity="0.496698" fill-rule="evenodd" clip-rule="evenodd" d="M247.001 117.651C247.005 117.649 247.009 117.647 247.012 117.645C247.012 117.645 247.013 117.644 247.014 117.644C247.017 117.642 247.021 117.64 247.024 117.638C247.508 117.358 247.88 116.936 248.108 116.442C247.279 116.706 246.38 116.977 245.413 117.255C244.34 117.562 243.183 117.877 241.942 118.196L243.503 119.441C240.26 120.965 235.283 122.625 228.431 124.589C227.944 124.729 227.449 124.868 226.943 125.007L221.375 122C206.647 124.221 187.37 126.136 164.105 125.796C157.768 125.703 151.219 125.632 144.548 125.576C137.948 126.605 130.389 127.523 122.408 127.999L130.979 131.773C111.458 131.619 97.5227 131.665 78.6537 131.635L72.5037 125.813C72.273 125.659 72.093 125.498 71.9703 125.327C41.2735 125.261 16.5356 125.102 9.78404 124.205C2.10676 123.184 -5.6902 121.806 -10.3228 119.867C-10.4872 120.752 -10.2286 121.701 -9.52537 122.376C-9.52192 122.379 -9.51954 122.381 -9.51693 122.384C-9.51432 122.386 -9.51196 122.388 -9.50958 122.39C-9.50566 122.395 -9.50328 122.397 -9.50115 122.398C-9.49616 122.403 -9.49379 122.405 -9.49117 122.408C-6.29358 125.372 -0.241769 129.177 9.70903 130.5C14.8534 131.184 30.435 131.439 51.1427 131.551C74.1127 131.675 103.395 131.621 131.716 131.782C142.778 131.845 153.69 131.941 164.029 132.091C194.016 132.529 214.953 128.81 228.466 124.934C238.578 122.035 244.533 119.047 247.001 117.651Z" fill="#628DD3"/>
<path opacity="0.496698" fill-rule="evenodd" clip-rule="evenodd" d="M228.456 124.622C235.308 122.658 240.251 120.653 243.494 119.13L241.933 117.884C236.59 119.256 229.695 120.699 221.345 121.959L226.968 125.04C227.474 124.901 227.97 124.762 228.456 124.622Z" fill="#4773BB"/>
<path opacity="0.496698" fill-rule="evenodd" clip-rule="evenodd" d="M242.705 73.459L256.48 73.66L244.31 112.67C237.287 111.086 223.223 108.149 206.649 105.929C206.649 105.929 231.395 87.5671 242.705 73.459Z" fill="#517EC8"/>
<path opacity="0.496698" fill-rule="evenodd" clip-rule="evenodd" d="M206.967 112.617L203.607 111.718C203.607 111.718 208.972 110.513 220.402 110.68C231.833 110.846 255.044 112.469 255.044 112.469L206.967 112.617Z" fill="#BFD7FF"/>
<path opacity="0.496698" fill-rule="evenodd" clip-rule="evenodd" d="M203.607 111.718C203.607 111.718 208.188 114.768 220.938 114.955C232.03 115.116 249.631 113.897 254.017 113.578C254.594 113.536 255.038 113.059 255.045 112.479L255.044 112.469L203.607 111.718Z" fill="#C9DEDC"/>
<path opacity="0.496698" fill-rule="evenodd" clip-rule="evenodd" d="M254.243 113.539C254.706 113.406 255.039 112.981 255.045 112.479L255.044 112.469L203.607 111.718C203.607 111.718 203.801 111.847 204.222 112.054C205.84 112.852 210.812 114.806 220.938 114.955C226.044 115.029 232.529 114.811 238.469 114.523C242.206 114.341 245.727 114.132 248.553 113.951C250.996 113.794 252.92 113.658 254.017 113.578C254.096 113.573 254.171 113.559 254.243 113.539Z" fill="#517EC8"/>
<path opacity="0.496698" fill-rule="evenodd" clip-rule="evenodd" d="M176.767 117.156L176.799 117.156C177.68 117.169 178.404 116.463 178.414 115.577L178.436 113.743C178.447 112.857 177.741 112.13 176.86 112.117L176.827 112.116C175.946 112.104 175.223 112.811 175.212 113.696L175.19 115.53C175.18 116.415 175.886 117.143 176.767 117.156Z" fill="#BFD7FF"/>
<path opacity="0.496698" fill-rule="evenodd" clip-rule="evenodd" d="M171.767 117.156L171.799 117.156C172.68 117.169 173.404 116.463 173.414 115.577L173.436 113.743C173.447 112.857 172.741 112.13 171.86 112.117L171.827 112.116C170.946 112.104 170.223 112.811 170.212 113.696L170.19 115.53C170.18 116.415 170.886 117.143 171.767 117.156Z" fill="#BFD7FF"/>
<path opacity="0.496698" fill-rule="evenodd" clip-rule="evenodd" d="M166.767 117.156L166.799 117.156C167.68 117.169 168.404 116.463 168.414 115.577L168.436 113.743C168.447 112.857 167.741 112.13 166.86 112.117L166.827 112.116C165.946 112.104 165.223 112.811 165.212 113.696L165.19 115.53C165.18 116.415 165.886 117.143 166.767 117.156Z" fill="#BFD7FF"/>
<path opacity="0.496698" fill-rule="evenodd" clip-rule="evenodd" d="M161.767 117.156L161.799 117.156C162.68 117.169 163.404 116.463 163.414 115.577L163.436 113.743C163.447 112.857 162.741 112.13 161.86 112.117L161.827 112.116C160.946 112.104 160.223 112.811 160.212 113.696L160.19 115.53C160.18 116.415 160.886 117.143 161.767 117.156Z" fill="#BFD7FF"/>
<path opacity="0.496698" fill-rule="evenodd" clip-rule="evenodd" d="M181.767 117.156L181.799 117.156C182.68 117.169 183.404 116.463 183.414 115.577L183.436 113.743C183.447 112.857 182.741 112.13 181.86 112.117L181.827 112.116C180.946 112.104 180.223 112.811 180.212 113.696L180.19 115.53C180.18 116.415 180.886 117.143 181.767 117.156Z" fill="#BFD7FF"/>
<path opacity="0.496698" fill-rule="evenodd" clip-rule="evenodd" d="M186.767 117.156L186.799 117.156C187.68 117.169 188.404 116.463 188.414 115.577L188.436 113.743C188.447 112.857 187.741 112.13 186.86 112.117L186.827 112.116C185.946 112.104 185.223 112.811 185.212 113.696L185.19 115.53C185.18 116.415 185.886 117.143 186.767 117.156Z" fill="#BFD7FF"/>
<path opacity="0.496698" fill-rule="evenodd" clip-rule="evenodd" d="M193.253 122.199L195.891 122.238C196.802 122.252 197.548 121.522 197.56 120.607L197.648 113.251C197.659 112.336 196.93 111.585 196.019 111.571L193.381 111.533C192.47 111.521 191.724 112.25 191.712 113.165L191.625 120.52C191.613 121.434 192.343 122.187 193.253 122.199Z" fill="#BFD7FF"/>
<path opacity="0.496698" fill-rule="evenodd" clip-rule="evenodd" d="M71.784 124.273C71.784 124.273 127.731 124.546 156.108 119.988L168.411 120.167C168.411 120.167 139.371 128.29 108.731 127.841C108.731 127.841 71.7284 128.933 71.784 124.273Z" fill="#C9DEDC"/>
<path opacity="0.496698" fill-rule="evenodd" clip-rule="evenodd" d="M156.108 119.988C127.731 124.546 71.784 124.273 71.784 124.273C71.7835 124.359 71.7953 124.444 71.8189 124.526C71.9034 124.817 72.1415 125.084 72.5105 125.329C77.6825 128.757 108.731 127.841 108.731 127.841C113.36 127.909 117.953 127.781 122.414 127.515C130.396 127.04 137.955 126.122 144.555 125.092C158.687 122.887 168.411 120.167 168.411 120.167L156.108 119.988Z" fill="#517EC8"/>
</g>
<path opacity="0.496698" fill-rule="evenodd" clip-rule="evenodd" d="M171.397 114.732L165.21 114.533L156.045 120L168.41 120.165L171.397 114.732Z" fill="#8EB9FF"/>
</g>
</g>
</g>
</g>
<g opacity="0.408366">
<path opacity="0.408366" fill-rule="evenodd" clip-rule="evenodd" d="M271.482 59H299.519C300.623 59 301.519 59.8954 301.519 61C301.519 61.1428 301.504 61.2853 301.473 61.4249L297 82H274L269.528 61.4249C269.293 60.3455 269.978 59.2803 271.057 59.0456C271.197 59.0153 271.339 59 271.482 59Z" fill="#5395FF"/>
<path opacity="0.408366" d="M295 82H276V145H295V82Z" fill="#5395FF"/>
<path opacity="0.0930525" fill-rule="evenodd" clip-rule="evenodd" d="M295 84V91L276 84H295Z" fill="black"/>
<path opacity="0.408366" fill-rule="evenodd" clip-rule="evenodd" d="M274 82H297V83C297 83.5523 296.552 84 296 84H275C274.448 84 274 83.5523 274 83V82Z" fill="#15499E"/>
<path opacity="0.259068" fill-rule="evenodd" clip-rule="evenodd" d="M272 63H279L281.893 78.0786L275 78.0218L272 63Z" fill="white"/>
<path opacity="0.259068" fill-rule="evenodd" clip-rule="evenodd" d="M280 63H291.07L288.13 78.0786H282.893L280 63Z" fill="white"/>
<path opacity="0.259068" fill-rule="evenodd" clip-rule="evenodd" d="M298.894 63H291.894L289.001 78.0786L295.831 78.0218L298.894 63Z" fill="white"/>
<path opacity="0.408366" d="M297 56H274V59H297V56Z" fill="#5395FF"/>
<path opacity="0.408366" d="M290 53H281V56H290V53Z" fill="#5395FF"/>
<path opacity="0.408366" d="M286 49H285V53H286V49Z" fill="#15499E"/>
<path opacity="0.408366" fill-rule="evenodd" clip-rule="evenodd" d="M277 51.3294C279.986 51.8118 283.224 50.8798 285.645 48.5421C288.066 46.2044 289.11 43.0005 288.732 40.0001L277 51.3294Z" fill="#15499E"/>
<path opacity="0.408366" d="M284.061 47.4094L280.588 43.8127L279.869 44.5074L283.342 48.1041L284.061 47.4094Z" fill="#D8D8D8" stroke="#15499E"/>
<path opacity="0.408366" fill-rule="evenodd" clip-rule="evenodd" d="M277.121 51.7171C280.107 52.1995 283.345 51.2675 285.766 48.9298C288.187 46.5921 289.231 43.3882 288.853 40.3878L277.121 51.7171Z" fill="#5395FF"/>
<path opacity="0.408366" d="M280 44C280.552 44 281 43.5523 281 43C281 42.4477 280.552 42 280 42C279.448 42 279 42.4477 279 43C279 43.5523 279.448 44 280 44Z" fill="#5395FF"/>
<path opacity="0.408366" d="M297 49H296V56H297V49Z" fill="#5395FF"/>
<path opacity="0.408366" d="M295 53H294V56H295V53Z" fill="#5395FF"/>
</g>
<path opacity="0.542853" d="M212 17H207V145H212V17Z" fill="white"/>
<path opacity="0.542853" d="M267 17H262V145H267V17Z" fill="white"/>
</g>
<path d="M200.5 165C201.881 165 203 163.881 203 162.5C203 161.119 201.881 160 200.5 160C199.119 160 198 161.119 198 162.5C198 163.881 199.119 165 200.5 165Z" fill="#15499E"/>
<path d="M200.5 164C201.328 164 202 163.328 202 162.5C202 161.672 201.328 161 200.5 161C199.672 161 199 161.672 199 162.5C199 163.328 199.672 164 200.5 164Z" fill="#6FA6FF"/>
<path d="M216.5 165C217.881 165 219 163.881 219 162.5C219 161.119 217.881 160 216.5 160C215.119 160 214 161.119 214 162.5C214 163.881 215.119 165 216.5 165Z" fill="#15499E"/>
<path d="M216.5 164C217.328 164 218 163.328 218 162.5C218 161.672 217.328 161 216.5 161C215.672 161 215 161.672 215 162.5C215 163.328 215.672 164 216.5 164Z" fill="#6FA6FF"/>
<path d="M204 106H203V124H204V106Z" fill="#6FA6FF"/>
<path d="M212 106H211V124H212V106Z" fill="#6FA6FF"/>
<path d="M215 124H199C196.239 124 194 126.239 194 129V158C194 160.761 196.239 163 199 163H215C217.761 163 220 160.761 220 158V129C220 126.239 217.761 124 215 124Z" fill="#225FBF"/>
<path d="M218 124H208C205.239 124 203 126.239 203 129V158C203 160.761 205.239 163 208 163H218C220.761 163 223 160.761 223 158V129C223 126.239 220.761 124 218 124Z" fill="#5395FF"/>
<path d="M220 130H206C205.448 130 205 130.448 205 131V158C205 158.552 205.448 159 206 159H220C220.552 159 221 158.552 221 158V131C221 130.448 220.552 130 220 130Z" fill="#225FBF"/>
<path d="M220 131H207C206.448 131 206 131.448 206 132V158C206 158.552 206.448 159 207 159H220C220.552 159 221 158.552 221 158V132C221 131.448 220.552 131 220 131Z" fill="#6FA6FF"/>
<path fill-rule="evenodd" clip-rule="evenodd" d="M196 131L197 132V133L196 134V131Z" fill="#15499E"/>
<path fill-rule="evenodd" clip-rule="evenodd" d="M196 153L197 154V155L196 156V153Z" fill="#15499E"/>
<path fill-rule="evenodd" clip-rule="evenodd" d="M200 131L201 132V133L200 134V131Z" fill="#15499E"/>
<path fill-rule="evenodd" clip-rule="evenodd" d="M200 153L201 154V155L200 156V153Z" fill="#15499E"/>
<path opacity="0.35612" d="M220 136H208V137H220V136Z" fill="white"/>
<path opacity="0.177804" fill-rule="evenodd" clip-rule="evenodd" d="M218.858 136.5L220.156 136.56L220.567 137.765C220.746 138.288 220.467 138.856 219.944 139.035C219.9 139.05 219.855 139.062 219.809 139.071L219.198 139.187C218.705 139.281 218.229 138.958 218.134 138.465C218.099 138.278 218.122 138.085 218.203 137.912L218.858 136.5Z" fill="black"/>
<path fill-rule="evenodd" clip-rule="evenodd" d="M218.999 136H219.999L220.547 137.692C220.718 138.217 220.43 138.781 219.904 138.951C219.805 138.984 219.701 139 219.596 139H219.369C218.817 139 218.369 138.552 218.369 138C218.369 137.889 218.388 137.779 218.423 137.675L218.999 136Z" fill="#225FBF"/>
<path d="M220 137.5C220 137.224 219.776 137 219.5 137C219.224 137 219 137.224 219 137.5C219 137.776 219.224 138 219.5 138C219.776 138 220 137.776 220 137.5Z" fill="#6FA6FF"/>
<path fill-rule="evenodd" clip-rule="evenodd" d="M210 107H205V109C205 109.552 204.552 110 204 110H203C202.448 110 202 109.552 202 109V107C202 105.343 203.343 104 205 104H210C211.657 104 213 105.343 213 107V109C213 109.552 212.552 110 212 110H211C210.448 110 210 109.552 210 109V107Z" fill="#225FBF"/>
<path fill-rule="evenodd" clip-rule="evenodd" d="M135.543 137H141.001V137.477L141.309 136.7L158.659 161.175H155.095L138.364 145.287L121.633 161.175H118.069L134.001 138.708V137H135.212L135.424 136.7L135.543 137Z" fill="#818D99"/>
<path opacity="0.0572219" fill-rule="evenodd" clip-rule="evenodd" d="M133.798 139.022L150.411 149.511L142.217 138L133.798 139.022Z" fill="black"/>
<path fill-rule="evenodd" clip-rule="evenodd" d="M129.403 132.151L129.407 132.148C129.931 132.86 130.363 133.31 130.703 133.5C131.042 133.689 131.616 133.8 132.425 133.832L132.567 134.985L132.425 133.828L163.477 130.082C164.718 129.932 165.847 130.816 165.998 132.057L166.138 133.198L132.841 137.214C131.089 137.137 129.867 136.927 129.175 136.586C128.483 136.245 127.642 135.437 126.654 134.162L104.012 102.878L104.925 102.212C105.937 101.474 107.355 101.696 108.092 102.708C108.094 102.71 108.096 102.712 108.097 102.714L129.403 132.151Z" fill="#E4E5E9"/>
<path fill-rule="evenodd" clip-rule="evenodd" d="M128.055 134.192L128.058 134.189C128.582 134.901 129.014 135.351 129.354 135.541C129.693 135.73 130.268 135.841 131.076 135.873L131.218 137.026L131.077 135.869L165.949 131.564L166.088 132.704C166.24 133.946 165.357 135.075 164.116 135.229L131.492 139.255C129.74 139.178 128.518 138.968 127.826 138.627C127.134 138.286 126.294 137.478 125.305 136.203L102.996 105.378C102.444 104.615 102.612 103.55 103.373 102.996C104.13 102.443 105.191 102.61 105.743 103.367C105.744 103.368 105.746 103.37 105.747 103.371L128.055 134.192Z" fill="#F1F2F7"/>
<path fill-rule="evenodd" clip-rule="evenodd" d="M172.52 151.602C172.553 151.902 172.597 152.224 172.802 152.447C173.05 152.713 173.452 152.75 173.816 152.771C174.646 152.817 175.476 152.863 176.306 152.909C176.562 152.924 176.86 152.919 177.013 152.713C177.152 152.528 177.102 152.269 177.046 152.047C176.866 151.328 176.685 150.612 176.505 149.894C176.346 149.263 176.172 148.603 175.729 148.126C175.089 147.44 173.113 146.895 172.405 147.764C171.754 148.563 172.417 150.697 172.52 151.602Z" fill="#F3BCA9"/>
<path fill-rule="evenodd" clip-rule="evenodd" d="M185.634 155.964C185.784 155.32 185.24 154.691 184.624 154.45C184.007 154.208 183.324 154.23 182.67 154.13C180.803 153.846 179.144 152.469 178.52 150.686C178.434 150.442 178.355 150.173 178.148 150.016C177.874 149.806 177.469 149.876 177.175 150.057C176.879 150.237 176.651 150.507 176.374 150.715C175.88 151.089 175.228 151.242 174.617 151.148C174.106 151.068 173.587 150.595 173.057 150.785C172.589 150.953 172.388 151.538 172.218 151.953C171.923 152.666 171.648 153.386 171.361 154.102C171.298 154.261 171.235 154.428 171.199 154.595L174.762 155.096C174.96 154.886 175.191 154.225 175.301 153.955C175.273 154.245 175.29 154.944 175.443 155.192L185.236 156.568C185.429 156.411 185.577 156.207 185.634 155.964Z" fill="black"/>
<path fill-rule="evenodd" clip-rule="evenodd" d="M178.001 145.264C178.734 144.95 179.347 144.408 180.065 144.061C181.463 143.388 183.119 143.513 184.581 142.994C186.155 142.437 187.433 141.102 187.92 139.504C188.025 139.161 188.084 138.754 187.862 138.473C187.654 138.21 187.277 138.158 186.941 138.156C184.354 138.138 183.766 139.203 181.204 139.559C180.52 139.655 177.618 139.457 176.204 140.112C174.669 140.82 174.895 141.483 174.889 142.095C174.884 142.71 175.157 144.727 175.723 145.126C176.365 145.581 177.309 145.56 178.001 145.264Z" fill="black"/>
<path fill-rule="evenodd" clip-rule="evenodd" d="M175.248 139.826C175.162 139.536 175.076 139.222 175.177 138.938C175.301 138.594 175.656 138.402 175.983 138.241C176.728 137.873 177.474 137.505 178.219 137.137C178.449 137.023 178.726 136.911 178.947 137.039C179.147 137.156 179.202 137.413 179.239 137.64C179.353 138.371 179.47 139.101 179.586 139.831C179.687 140.474 179.785 141.15 179.565 141.763C179.245 142.646 177.64 143.922 176.651 143.401C175.737 142.921 175.51 140.697 175.248 139.826Z" fill="#F3BCA9"/>
<path fill-rule="evenodd" clip-rule="evenodd" d="M172.435 114.197L166.636 123.855C168.222 124.229 169.272 125.715 170.208 128.314C173.599 137.739 174.795 141.251 175.537 142.136C176.104 142.81 179.452 142.087 179.683 141.174C180.32 138.644 176.35 124.332 174.301 118.431C173.89 117.245 173.217 115.15 172.435 114.197Z" fill="#5395FF"/>
<path fill-rule="evenodd" clip-rule="evenodd" d="M134.764 133.334C136.55 134.387 145.407 133.86 147.452 133.521C150.457 133.024 153.461 132.526 156.466 132.028C157.898 131.791 161.354 130.273 162.586 131.041C164.26 132.086 170.346 147.542 171.915 149.442C172.435 150.073 176.276 150.106 176.601 148.871C176.924 147.636 173.683 135.201 172.386 130.253C171.888 128.354 171.386 126.44 170.518 124.679C169.648 122.918 168.378 121.301 166.66 120.348C164.248 119.01 142.205 121.89 141.201 122.548C139.785 123.473 132.887 132.224 134.764 133.334Z" fill="#225FBF"/>
<path fill-rule="evenodd" clip-rule="evenodd" d="M130.159 117.844C128.89 118.492 127.927 119.644 127.295 120.92C125.596 124.341 126.296 128.798 128.96 131.534C131.625 134.268 139.554 135.248 144.503 132.289C147.781 130.329 145.23 127.951 144.86 124.151C144.674 122.241 143.778 120.284 142.097 119.361C139.974 118.197 137.566 119.053 135.34 118.466C133.395 117.952 132.379 116.711 130.159 117.844Z" fill="#5395FF"/>
<path fill-rule="evenodd" clip-rule="evenodd" d="M171.287 113.211C166.636 110.386 142.526 115.37 138.008 122.025C136.526 124.208 137.283 127.02 138.338 129.244C139.996 132.745 143.584 132.241 146.665 131.078C151.569 129.227 156.348 127.034 160.949 124.523C163.356 123.209 168.124 120.422 169.491 122.426L172.444 114.235C172.117 113.835 171.737 113.485 171.287 113.211Z" fill="#5395FF"/>
<path fill-rule="evenodd" clip-rule="evenodd" d="M116.391 93.4845C115.323 94.2734 114.67 95.503 114.196 96.7435C112.059 102.331 112.961 108.727 115.407 114.186C117.854 119.647 121.721 124.332 125.656 128.838C126.421 129.715 127.304 130.649 128.463 130.77C130.124 130.943 131.408 129.406 132.36 128.032C133.691 126.109 135.02 124.187 136.351 122.265C137.049 121.257 137.774 120.171 137.818 118.945C137.887 117.04 136.345 115.521 135.006 114.165C131.307 110.423 128.315 105.984 126.231 101.151C125.516 99.4919 124.901 97.7775 123.939 96.2471C122.425 93.8414 119.19 91.4148 116.391 93.4845Z" fill="#FFA200"/>
<path fill-rule="evenodd" clip-rule="evenodd" d="M117.422 92.4492C117.224 92.7797 117.01 93.1106 116.931 93.486C116.854 93.8625 116.944 94.3023 117.257 94.5256C117.475 94.6799 117.757 94.7042 118.024 94.723C119.51 94.8286 120.997 94.9342 122.484 95.0401C122.505 93.2822 123.171 91.5408 124.328 90.2187C124.631 89.8706 124.988 89.5025 124.99 89.0413C124.991 88.5562 124.598 88.1718 124.218 87.8722C123.37 87.2023 122.433 86.6445 121.441 86.2155C120.319 85.7303 119.772 85.234 119.448 86.4405C118.875 88.5703 118.586 90.5039 117.422 92.4492Z" fill="#F3BCA9"/>
<path fill-rule="evenodd" clip-rule="evenodd" d="M117.251 81.1744C116.201 82.2878 115.693 84.0706 116.49 85.3791C116.956 86.1462 117.771 86.6199 118.553 87.0623C119.95 87.8529 121.347 88.6445 122.745 89.435C123.587 89.9118 125.937 90.0567 126.827 89.6802C127.732 89.2958 127.1 88.5423 127.311 87.5797C127.652 86.0264 126.762 83.5628 126.568 81.9847C126.374 80.4057 126.43 79.703 125.091 78.8463C122.735 77.3382 118.94 79.3837 117.251 81.1744Z" fill="#F8C6B4"/>
<path fill-rule="evenodd" clip-rule="evenodd" d="M115.369 87.0855C115.605 87.9157 115.852 88.768 116.381 89.4497C116.911 90.1317 117.796 90.6093 118.634 90.4021C119.703 90.1392 120.231 88.9654 120.607 87.9309C121.066 86.6759 121.926 87.6237 122.384 86.3684C122.58 85.8346 122.377 83.0914 122.706 82.6281C123.497 81.5119 124.93 80.9906 125.731 79.8807C126.706 78.5268 126.39 76.4169 125.06 75.4104C123.729 74.403 121.614 74.67 120.574 75.9745C119.817 76.9282 119.706 78.2992 118.863 79.18C118.155 79.9207 117.395 79.6781 116.547 80.046C113.883 81.2048 114.773 84.9844 115.369 87.0855Z" fill="black"/>
<path d="M140.507 118.468L145.9 115.837C146.148 115.716 146.448 115.819 146.569 116.068C146.69 116.316 146.587 116.615 146.339 116.736L140.946 119.366C140.698 119.487 140.398 119.384 140.277 119.136C140.156 118.888 140.259 118.589 140.507 118.468Z" fill="#225FBF"/>
<path fill-rule="evenodd" clip-rule="evenodd" d="M139.52 117.332C139.825 117.12 140.924 116.756 141.747 116.242C142.391 116.457 141.03 117.699 140.729 117.739C141.416 118.075 143.035 118.264 144.094 117.403C144.13 117.572 144.111 118.285 144.014 118.427C143.656 118.964 142.961 119.19 142.602 119.727C142.333 120.129 142.361 120.469 141.965 120.748C141.332 121.196 140.498 121.236 139.714 121.224C139.307 121.216 138.891 121.197 138.507 121.053C136.38 120.251 138.576 117.988 139.52 117.332Z" fill="#F3BCA9"/>
<path fill-rule="evenodd" clip-rule="evenodd" d="M122.027 107.071C122.329 111.291 122.249 115.402 123.511 116.894C126.378 120.285 134.049 119.728 138.383 118.582C138.622 119.335 139.273 119.531 139.133 120.814C138.507 121.143 137.445 121.247 136.807 121.554C135.254 122.302 133.682 122.658 132.037 123.175C130.31 123.718 128.509 124.102 126.694 124.12C124.945 124.138 123.182 123.787 121.664 122.889C120.945 122.463 120.296 121.925 119.732 121.308C117.513 118.877 114.909 108.738 115.039 105.128C115.324 97.1592 117.487 95.7448 119.987 95.8736C123.811 96.071 121.769 103.467 122.027 107.071Z" fill="#F3BCA9"/>
<path fill-rule="evenodd" clip-rule="evenodd" d="M114.02 96.8439C115.777 92.2727 120.903 93.813 122.313 97.6864C122.852 99.1729 122.786 100.985 122.916 102.545C123.002 103.576 123.054 104.612 123.057 105.647L114.427 106.375C114.284 105.777 114.269 103.781 114.124 103.189C113.616 101.101 113.248 98.8503 114.02 96.8439Z" fill="#FF9100"/>
<path fill-rule="evenodd" clip-rule="evenodd" d="M117.372 79.3346C117.577 79.1498 117.893 79.1664 118.078 79.3716L121.758 83.4589L121.015 84.1281L117.335 80.0408C117.15 79.8355 117.166 79.5194 117.372 79.3346Z" fill="#E4E5E9"/>
<path d="M122 86C123.105 86 124 85.1046 124 84C124 82.8954 123.105 82 122 82C120.895 82 120 82.8954 120 84C120 85.1046 120.895 86 122 86Z" fill="#5395FF" stroke="#225FBF" stroke-width="0.3"/>
<path fill-rule="evenodd" clip-rule="evenodd" d="M314.457 137H308.999V137.477L308.691 136.7L291.341 161.175H294.905L311.636 145.287L328.367 161.175H331.931L315.999 138.708V137H314.788L314.576 136.7L314.457 137Z" fill="#818D99"/>
<path opacity="0.0572219" fill-rule="evenodd" clip-rule="evenodd" d="M316.202 139.022L299.589 149.511L307.783 138L316.202 139.022Z" fill="black"/>
<path fill-rule="evenodd" clip-rule="evenodd" d="M320.597 132.151L320.593 132.148C320.069 132.86 319.637 133.31 319.297 133.5C318.958 133.689 318.384 133.8 317.575 133.832L317.433 134.985L317.575 133.828L286.523 130.082C285.282 129.932 284.153 130.816 284.002 132.057L283.862 133.198L317.159 137.214C318.911 137.137 320.133 136.927 320.825 136.586C321.517 136.245 322.358 135.437 323.346 134.162L345.988 102.878L345.075 102.212C344.063 101.474 342.645 101.696 341.908 102.708C341.906 102.71 341.904 102.712 341.903 102.714L320.597 132.151Z" fill="#E4E5E9"/>
<path fill-rule="evenodd" clip-rule="evenodd" d="M321.945 134.192L321.942 134.189C321.418 134.901 320.986 135.351 320.646 135.541C320.307 135.73 319.732 135.841 318.924 135.873L318.782 137.026L318.923 135.869L284.051 131.564L283.912 132.704C283.76 133.946 284.643 135.075 285.884 135.229L318.508 139.255C320.26 139.178 321.482 138.968 322.174 138.627C322.866 138.286 323.706 137.478 324.695 136.203L347.004 105.378C347.556 104.615 347.388 103.55 346.627 102.996C345.87 102.443 344.809 102.61 344.257 103.367C344.256 103.368 344.254 103.37 344.253 103.371L321.945 134.192Z" fill="#F1F2F7"/>
<g opacity="0.6">
<mask id="mask4" mask-type="alpha" maskUnits="userSpaceOnUse" x="163" y="38" width="99" height="107">
<path d="M255.311 38H169.689C165.995 38 163 41.7426 163 46.3594V91.5V136.641C163 141.257 165.995 145 169.689 145H255.311C259.005 145 262 141.257 262 136.641V46.3594C262 41.7426 259.005 38 255.311 38Z" fill="#6DA5FF"/>
</mask>
<g mask="url(#mask4)">
<g opacity="0.496698">
<g opacity="0.496698">
<path opacity="0.496698" fill-rule="evenodd" clip-rule="evenodd" d="M-9.85135 112.11C-11.0774 110.973 -11.0135 109.018 -9.73921 107.942C-4.02716 103.117 12.954 91.3403 42.229 91.7679C79.0115 92.3049 154.068 91.341 186.283 93.8709C215.049 96.1306 241.664 102.276 247.034 103.566C247.61 103.705 248.011 104.225 248.004 104.819L248.002 105.038C247.99 106 247.474 106.882 246.641 107.354C240.875 110.614 216.096 122.56 163.669 121.794C102.998 120.908 22.4286 121.941 9.34884 120.203C-0.601962 118.88 -6.65376 115.075 -9.85135 112.11Z" fill="#75A9FF"/>
<path opacity="0.496698" fill-rule="evenodd" clip-rule="evenodd" d="M241.766 107.906L238.012 104.906C232.071 105.194 225.586 105.413 220.48 105.338C210.355 105.189 205.382 103.235 203.764 102.437L221.178 111.98C229.528 110.721 236.422 109.278 241.766 107.906Z" fill="#4773BB"/>
<path opacity="0.496698" fill-rule="evenodd" clip-rule="evenodd" d="M42.5977 94.5209C22.1863 94.2222 6.63017 98.7568 -2.85922 103.165C5.70871 97.8435 20.7278 91.3325 42.6321 91.6521C70.6327 92.0609 120.813 91.5999 157.39 92.4725C168.861 92.7462 178.995 93.1511 186.686 93.7551C212.172 95.7572 235.968 100.809 244.798 102.832C232.188 101.051 208.415 98.3336 186.651 96.625C154.436 94.094 79.3801 95.0579 42.5977 94.5209Z" fill="#8EB9FF"/>
<path opacity="0.496698" fill-rule="evenodd" clip-rule="evenodd" d="M228.466 114.764C214.953 118.64 194.016 122.359 164.029 121.921C153.69 121.77 142.779 121.675 131.716 121.612C142.779 121.675 153.69 121.77 164.029 121.921C194.016 122.359 214.953 118.639 228.466 114.764Z" fill="#52BED0"/>
<path opacity="0.496698" fill-rule="evenodd" clip-rule="evenodd" d="M246.521 107.651C246.525 107.649 246.529 107.647 246.533 107.645C246.533 107.645 246.534 107.644 246.534 107.644C246.538 107.642 246.541 107.64 246.544 107.638C247.029 107.358 247.4 106.936 247.628 106.442C246.799 106.706 245.901 106.977 244.933 107.255C243.86 107.562 242.704 107.877 241.463 108.196L243.023 109.441C239.781 110.965 234.803 112.625 227.952 114.589C227.465 114.729 226.969 114.868 226.463 115.007L220.895 112C206.168 114.221 186.89 116.136 163.625 115.796C157.289 115.703 150.739 115.632 144.069 115.576C137.469 116.605 129.909 117.523 121.928 117.999L130.5 121.773C110.978 121.619 97.0433 121.665 78.1742 121.635L72.0242 115.813C71.7935 115.659 71.6136 115.498 71.4909 115.327C40.794 115.261 16.0561 115.102 9.30455 114.205C1.62726 113.184 -6.16969 111.806 -10.8023 109.867C-10.9667 110.752 -10.708 111.701 -10.0049 112.376C-10.0014 112.379 -9.99904 112.381 -9.99642 112.384C-9.99381 112.386 -9.99145 112.388 -9.98908 112.39C-9.98515 112.395 -9.98277 112.397 -9.98064 112.398C-9.97565 112.403 -9.97328 112.405 -9.97067 112.408C-6.77307 115.372 -0.721262 119.177 9.22954 120.5C14.3739 121.184 29.9555 121.439 50.6632 121.551C73.6332 121.675 102.916 121.621 131.237 121.782C142.299 121.845 153.21 121.941 163.549 122.091C193.536 122.529 214.474 118.81 227.986 114.934C238.098 112.035 244.053 109.047 246.521 107.651Z" fill="#628DD3"/>
<path opacity="0.496698" fill-rule="evenodd" clip-rule="evenodd" d="M227.977 114.622C234.829 112.658 239.772 110.653 243.014 109.13L241.454 107.884C236.11 109.256 229.216 110.699 220.866 111.959L226.489 115.04C226.994 114.901 227.49 114.762 227.977 114.622Z" fill="#4773BB"/>
<path opacity="0.496698" fill-rule="evenodd" clip-rule="evenodd" d="M242.225 63.459L256 63.66L243.831 102.67C236.808 101.086 222.744 98.1487 206.17 95.9292C206.17 95.9292 230.916 77.5671 242.225 63.459Z" fill="#517EC8"/>
<path opacity="0.496698" fill-rule="evenodd" clip-rule="evenodd" d="M206.488 102.617L203.128 101.718C203.128 101.718 208.493 100.513 219.923 100.68C231.354 100.846 254.565 102.469 254.565 102.469L206.488 102.617Z" fill="#BFD7FF"/>
<path opacity="0.496698" fill-rule="evenodd" clip-rule="evenodd" d="M203.128 101.718C203.128 101.718 207.709 104.768 220.458 104.955C231.551 105.116 249.152 103.897 253.538 103.578C254.115 103.536 254.558 103.059 254.565 102.479L254.565 102.469L203.128 101.718Z" fill="#C9DEDC"/>
<path opacity="0.496698" fill-rule="evenodd" clip-rule="evenodd" d="M253.764 103.539C254.226 103.406 254.559 102.981 254.565 102.479L254.565 102.469L203.128 101.718C203.128 101.718 203.322 101.847 203.742 102.054C205.36 102.852 210.333 104.806 220.458 104.955C225.564 105.029 232.049 104.811 237.99 104.523C241.726 104.341 245.247 104.132 248.074 103.951C250.517 103.794 252.441 103.658 253.538 103.578C253.616 103.573 253.691 103.559 253.764 103.539Z" fill="#517EC8"/>
<path opacity="0.496698" fill-rule="evenodd" clip-rule="evenodd" d="M176.288 107.156L176.319 107.156C177.201 107.169 177.924 106.463 177.935 105.577L177.957 103.743C177.967 102.857 177.262 102.13 176.38 102.117L176.348 102.116C175.467 102.104 174.744 102.811 174.733 103.696L174.711 105.53C174.701 106.415 175.407 107.143 176.288 107.156Z" fill="white"/>
<path opacity="0.496698" fill-rule="evenodd" clip-rule="evenodd" d="M171.288 107.156L171.319 107.156C172.201 107.169 172.924 106.463 172.935 105.577L172.957 103.743C172.967 102.857 172.262 102.13 171.38 102.117L171.348 102.116C170.467 102.104 169.744 102.811 169.733 103.696L169.711 105.53C169.701 106.415 170.407 107.143 171.288 107.156Z" fill="white"/>
<path opacity="0.496698" fill-rule="evenodd" clip-rule="evenodd" d="M166.288 107.156L166.319 107.156C167.201 107.169 167.924 106.463 167.935 105.577L167.957 103.743C167.967 102.857 167.262 102.13 166.38 102.117L166.348 102.116C165.467 102.104 164.744 102.811 164.733 103.696L164.711 105.53C164.701 106.415 165.407 107.143 166.288 107.156Z" fill="white"/>
<path opacity="0.496698" fill-rule="evenodd" clip-rule="evenodd" d="M161.288 107.156L161.319 107.156C162.201 107.169 162.924 106.463 162.935 105.577L162.957 103.743C162.967 102.857 162.262 102.13 161.38 102.117L161.348 102.116C160.467 102.104 159.744 102.811 159.733 103.696L159.711 105.53C159.701 106.415 160.407 107.143 161.288 107.156Z" fill="white"/>
<path opacity="0.496698" fill-rule="evenodd" clip-rule="evenodd" d="M181.288 107.156L181.319 107.156C182.201 107.169 182.924 106.463 182.935 105.577L182.957 103.743C182.967 102.857 182.262 102.13 181.38 102.117L181.348 102.116C180.467 102.104 179.744 102.811 179.733 103.696L179.711 105.53C179.701 106.415 180.407 107.143 181.288 107.156Z" fill="white"/>
<path opacity="0.496698" fill-rule="evenodd" clip-rule="evenodd" d="M186.288 107.156L186.319 107.156C187.201 107.169 187.924 106.463 187.935 105.577L187.957 103.743C187.967 102.857 187.262 102.13 186.38 102.117L186.348 102.116C185.467 102.104 184.744 102.811 184.733 103.696L184.711 105.53C184.701 106.415 185.407 107.143 186.288 107.156Z" fill="white"/>
<path opacity="0.496698" fill-rule="evenodd" clip-rule="evenodd" d="M192.773 112.199L195.411 112.238C196.322 112.252 197.069 111.522 197.08 110.607L197.169 103.251C197.179 102.336 196.45 101.585 195.539 101.571L192.902 101.533C191.991 101.521 191.244 102.25 191.233 103.165L191.145 110.52C191.134 111.434 191.864 112.187 192.773 112.199Z" fill="white"/>
<path opacity="0.496698" fill-rule="evenodd" clip-rule="evenodd" d="M71.3045 114.273C71.3045 114.273 127.251 114.546 155.629 109.988L167.931 110.167C167.931 110.167 138.891 118.29 108.252 117.841C108.252 117.841 71.2489 118.933 71.3045 114.273Z" fill="#C9DEDC"/>
<path opacity="0.496698" fill-rule="evenodd" clip-rule="evenodd" d="M155.629 109.988C127.251 114.546 71.3045 114.273 71.3045 114.273C71.304 114.359 71.3158 114.444 71.3394 114.526C71.4239 114.817 71.662 115.084 72.0311 115.329C77.203 118.757 108.252 117.841 108.252 117.841C112.88 117.909 117.474 117.781 121.935 117.515C129.916 117.04 137.476 116.122 144.076 115.092C158.207 112.887 167.931 110.167 167.931 110.167L155.629 109.988Z" fill="#517EC8"/>
</g>
<path opacity="0.496698" fill-rule="evenodd" clip-rule="evenodd" d="M170.917 104.732L164.731 104.533L155.565 110L167.931 110.165L170.917 104.732Z" fill="#8EB9FF"/>
</g>
</g>
</g>
</g>
<defs>
<clipPath id="clip0">
<rect width="470" height="170" fill="white"/>
</clipPath>
</defs>
</svg>
